<svg xmlns="http://www.w3.org/2000/svg" xmlns:xlink="http://www.w3.org/1999/xlink" viewBox="0 0 135 40"><path d="M 134.14 35.126 C 134.14 36.132 133.736 37.098 133.016 37.809 C 132.296 38.52 131.32 38.92 130.303 38.919 L 4.733 38.919 C 2.613 38.921 0.893 37.223 0.891 35.126 L 0.891 4.879 C 0.893 2.781 2.613 1.082 4.733 1.081 L 130.302 1.081 C 131.32 1.081 132.296 1.482 133.016 2.194 C 133.735 2.906 134.139 3.872 134.139 4.879 Z" fill="rgb(255,255,255)"></path><path d="M 130.303 39.801 L 4.733 39.801 C 2.122 39.8 0.005 37.709 0 35.126 L 0 4.88 C 0.004 2.296 2.121 0.202 4.733 0.2 L 130.302 0.2 C 132.913 0.203 135.03 2.296 135.035 4.88 L 135.035 35.126 C 135.037 37.704 132.91 39.801 130.303 39.801 Z" fill="rgb(166,166,166)"></path><path d="M 134.14 35.126 C 134.14 36.132 133.736 37.098 133.016 37.809 C 132.296 38.52 131.32 38.92 130.303 38.919 L 4.733 38.919 C 2.613 38.921 0.893 37.223 0.891 35.126 L 0.891 4.879 C 0.893 2.781 2.613 1.082 4.733 1.081 L 130.302 1.081 C 131.32 1.081 132.296 1.482 133.016 2.194 C 133.735 2.906 134.139 3.872 134.139 4.879 Z" fill="rgb(0,0,0)"></path><path d="M 30.152 19.792 C 30.123 16.6 32.793 15.048 32.916 14.975 C 31.403 12.794 29.059 12.496 28.236 12.472 C 26.267 12.267 24.358 13.637 23.355 13.637 C 22.332 13.637 20.788 12.492 19.123 12.525 C 16.982 12.558 14.978 13.785 13.879 15.69 C 11.611 19.575 13.303 25.284 15.475 28.424 C 16.562 29.963 17.832 31.68 19.495 31.619 C 21.121 31.554 21.729 30.594 23.691 30.594 C 25.636 30.594 26.206 31.619 27.901 31.58 C 29.647 31.554 30.746 30.036 31.795 28.484 C 33.051 26.722 33.555 24.985 33.575 24.896 C 33.535 24.882 30.186 23.617 30.152 19.792 Z M 26.95 10.406 C 27.824 9.324 28.423 7.851 28.257 6.357 C 26.991 6.412 25.407 7.223 24.496 8.282 C 23.689 9.215 22.969 10.744 23.155 12.182 C 24.577 12.287 26.037 11.472 26.95 10.406 Z" fill="rgb(255,255,255)"></path><g><defs><linearGradient id="idss1093729295_5g955948955" x1="0.49748743718592964" x2="0.5025125628140703" y1="1" y2="0"><stop offset="0" stop-color="rgba(26,26,26,0.1)" stop-opacity="0.1"></stop><stop offset="1" stop-color="rgba(179,179,179,0.51)" stop-opacity="0.51"></stop></linearGradient></defs><path d="M 130.303 0.2 L 63.044 0.2 L 89.388 39.801 L 130.303 39.801 C 132.914 39.799 135.031 37.706 135.036 35.123 L 135.036 4.88 C 135.031 2.296 132.915 0.203 130.303 0.2 Z" fill="url(#idss1093729295_5g955948955)"></path></g><path d="M 53.708 31.398 L 51.435 31.398 L 50.19 27.527 L 45.863 27.527 L 44.677 31.398 L 42.464 31.398 L 46.753 18.219 L 49.401 18.219 Z M 49.815 25.903 L 48.689 22.462 C 48.57 22.11 48.346 21.282 48.018 19.979 L 47.978 19.979 C 47.846 20.54 47.634 21.368 47.345 22.462 L 46.238 25.903 Z M 64.715 26.53 C 64.715 28.146 64.272 29.424 63.384 30.361 C 62.589 31.196 61.602 31.613 60.424 31.613 C 59.152 31.613 58.237 31.165 57.682 30.265 L 57.682 35.251 L 55.548 35.251 L 55.548 25.019 C 55.548 24.004 55.521 22.963 55.469 21.895 L 57.345 21.895 L 57.464 23.402 L 57.504 23.402 C 58.216 22.267 59.296 21.699 60.745 21.699 C 61.878 21.699 62.824 22.142 63.58 23.028 C 64.336 23.917 64.715 25.083 64.715 26.53 Z M 62.541 26.607 C 62.541 25.682 62.331 24.92 61.909 24.319 C 61.448 23.694 60.828 23.381 60.051 23.381 C 59.525 23.381 59.047 23.555 58.619 23.899 C 58.191 24.245 57.911 24.698 57.78 25.258 C 57.721 25.468 57.688 25.684 57.681 25.901 L 57.681 27.487 C 57.681 28.177 57.895 28.76 58.323 29.237 C 58.751 29.713 59.308 29.951 59.992 29.951 C 60.796 29.951 61.422 29.643 61.869 29.032 C 62.317 28.419 62.541 27.611 62.541 26.607 Z M 75.761 26.53 C 75.761 28.146 75.318 29.424 74.43 30.361 C 73.634 31.196 72.648 31.613 71.469 31.613 C 70.197 31.613 69.282 31.165 68.726 30.265 L 68.726 35.251 L 66.593 35.251 L 66.593 25.019 C 66.593 24.004 66.566 22.963 66.514 21.895 L 68.39 21.895 L 68.509 23.402 L 68.549 23.402 C 69.26 22.267 70.34 21.699 71.79 21.699 C 72.922 21.699 73.868 22.142 74.626 23.028 C 75.381 23.917 75.761 25.083 75.761 26.53 Z M 73.586 26.607 C 73.586 25.682 73.375 24.92 72.953 24.319 C 72.491 23.694 71.874 23.381 71.097 23.381 C 70.571 23.381 70.093 23.555 69.663 23.899 C 69.235 24.245 68.956 24.698 68.824 25.258 C 68.759 25.52 68.724 25.733 68.724 25.901 L 68.724 27.487 C 68.724 28.177 68.94 28.76 69.366 29.237 C 69.794 29.712 70.351 29.951 71.037 29.951 C 71.842 29.951 72.467 29.643 72.914 29.032 C 73.362 28.419 73.586 27.611 73.586 26.607 Z M 88.111 27.701 C 88.111 28.824 87.715 29.736 86.927 30.44 C 86.06 31.208 84.85 31.593 83.299 31.593 C 81.866 31.593 80.717 31.32 79.85 30.772 L 80.344 29.013 C 81.28 29.561 82.307 29.835 83.426 29.835 C 84.231 29.835 84.856 29.654 85.303 29.297 C 85.75 28.938 85.976 28.459 85.976 27.861 C 85.976 27.325 85.789 26.877 85.422 26.511 C 85.053 26.147 84.442 25.807 83.584 25.495 C 81.253 24.635 80.086 23.376 80.086 21.72 C 80.086 20.639 80.498 19.753 81.321 19.061 C 82.143 18.37 83.234 18.024 84.591 18.024 C 85.803 18.024 86.813 18.233 87.615 18.65 L 87.079 20.371 C 86.325 19.967 85.473 19.765 84.52 19.765 C 83.768 19.765 83.177 19.949 82.755 20.313 C 82.399 20.639 82.219 21.036 82.219 21.507 C 82.219 22.027 82.424 22.459 82.833 22.798 C 83.187 23.11 83.834 23.449 84.768 23.814 C 85.915 24.271 86.758 24.804 87.297 25.416 C 87.841 26.028 88.111 26.791 88.111 27.701 Z M 95.184 23.48 L 92.832 23.48 L 92.832 28.094 C 92.832 29.267 93.246 29.852 94.077 29.852 C 94.458 29.852 94.774 29.821 95.025 29.754 L 95.084 31.358 C 94.663 31.513 94.11 31.591 93.424 31.591 C 92.582 31.591 91.923 31.337 91.448 30.828 C 90.974 30.319 90.736 29.466 90.736 28.266 L 90.736 23.476 L 89.335 23.476 L 89.335 21.891 L 90.736 21.891 L 90.736 20.152 L 92.832 19.526 L 92.832 21.891 L 95.184 21.891 Z M 105.774 26.569 C 105.774 28.029 105.352 29.229 104.509 30.166 C 103.628 31.132 102.455 31.613 100.992 31.613 C 99.581 31.613 98.459 31.151 97.623 30.227 C 96.786 29.301 96.368 28.134 96.368 26.727 C 96.368 25.254 96.8 24.048 97.662 23.111 C 98.525 22.172 99.688 21.702 101.151 21.702 C 102.56 21.702 103.692 22.166 104.548 23.091 C 105.367 23.988 105.774 25.147 105.774 26.569 Z M 103.562 26.617 C 103.562 25.747 103.372 25 102.991 24.375 C 102.544 23.621 101.903 23.243 101.073 23.243 C 100.219 23.243 99.563 23.621 99.117 24.375 C 98.735 25 98.544 25.76 98.544 26.657 C 98.544 27.528 98.735 28.277 99.117 28.9 C 99.578 29.654 100.222 30.032 101.055 30.032 C 101.871 30.032 102.511 29.646 102.973 28.881 C 103.365 28.241 103.562 27.49 103.562 26.617 Z M 112.713 23.752 C 112.491 23.713 112.266 23.693 112.04 23.694 C 111.29 23.694 110.709 23.973 110.301 24.536 C 109.947 25.031 109.768 25.657 109.768 26.412 L 109.768 31.398 L 107.635 31.398 L 107.635 24.888 C 107.637 23.891 107.616 22.893 107.573 21.896 L 109.431 21.896 L 109.509 23.715 L 109.568 23.715 C 109.795 23.09 110.149 22.586 110.635 22.208 C 111.08 21.879 111.621 21.7 112.177 21.699 C 112.375 21.699 112.553 21.713 112.711 21.738 Z M 122.256 26.197 C 122.261 26.518 122.235 26.839 122.178 27.155 L 115.776 27.155 C 115.8 28.094 116.111 28.813 116.705 29.308 C 117.245 29.749 117.942 29.971 118.799 29.971 C 119.747 29.971 120.611 29.823 121.389 29.523 L 121.723 30.987 C 120.814 31.379 119.742 31.575 118.504 31.575 C 117.014 31.575 115.845 31.141 114.995 30.275 C 114.146 29.409 113.721 28.244 113.721 26.785 C 113.721 25.354 114.116 24.16 114.908 23.209 C 115.736 22.193 116.856 21.684 118.265 21.684 C 119.649 21.684 120.697 22.193 121.409 23.209 C 121.972 24.014 122.256 25.012 122.256 26.197 Z M 120.221 25.65 C 120.236 25.023 120.096 24.483 119.807 24.027 C 119.437 23.438 118.869 23.145 118.107 23.145 C 117.41 23.145 116.841 23.431 116.409 24.006 C 116.054 24.462 115.842 25.011 115.777 25.648 Z M 45.247 13.56 C 44.654 13.56 44.141 13.531 43.713 13.483 L 43.713 7.111 C 44.311 7.02 44.915 6.975 45.52 6.977 C 47.967 6.977 49.094 8.168 49.094 10.11 C 49.094 12.35 47.763 13.56 45.247 13.56 Z M 45.606 7.794 C 45.276 7.794 44.994 7.813 44.761 7.861 L 44.761 12.705 C 44.887 12.724 45.129 12.733 45.47 12.733 C 47.073 12.733 47.986 11.83 47.986 10.139 C 47.986 8.63 47.16 7.794 45.606 7.794 Z M 52.605 13.609 C 51.226 13.609 50.333 12.59 50.333 11.206 C 50.333 9.764 51.245 8.736 52.683 8.736 C 54.043 8.736 54.956 9.707 54.956 11.13 C 54.956 12.59 54.015 13.609 52.605 13.609 Z M 52.645 9.495 C 51.888 9.495 51.402 10.196 51.402 11.176 C 51.402 12.138 51.898 12.839 52.635 12.839 C 53.373 12.839 53.868 12.09 53.868 11.157 C 53.868 10.206 53.383 9.495 52.645 9.495 Z M 62.821 8.832 L 61.344 13.503 L 60.383 13.503 L 59.771 11.475 C 59.619 10.978 59.493 10.475 59.392 9.966 L 59.372 9.966 C 59.295 10.475 59.149 10.985 58.994 11.475 L 58.343 13.503 L 57.371 13.503 L 55.982 8.832 L 57.06 8.832 L 57.594 11.053 C 57.721 11.582 57.827 12.081 57.915 12.552 L 57.935 12.552 C 58.012 12.159 58.138 11.668 58.323 11.063 L 58.994 8.833 L 59.848 8.833 L 60.49 11.015 C 60.645 11.544 60.771 12.063 60.869 12.553 L 60.897 12.553 C 60.965 12.073 61.072 11.563 61.217 11.015 L 61.791 8.833 Z M 68.255 13.503 L 67.206 13.503 L 67.206 10.821 C 67.206 9.995 66.886 9.581 66.254 9.581 C 65.633 9.581 65.206 10.11 65.206 10.725 L 65.206 13.503 L 64.157 13.503 L 64.157 10.167 C 64.157 9.754 64.147 9.312 64.118 8.831 L 65.04 8.831 L 65.089 9.552 L 65.118 9.552 C 65.401 9.053 65.973 8.736 66.615 8.736 C 67.606 8.736 68.256 9.486 68.256 10.706 Z M 71.147 13.503 L 70.098 13.503 L 70.098 6.689 L 71.147 6.689 Z M 74.971 13.609 C 73.593 13.609 72.699 12.59 72.699 11.206 C 72.699 9.764 73.611 8.736 75.049 8.736 C 76.409 8.736 77.321 9.707 77.321 11.13 C 77.322 12.59 76.38 13.609 74.971 13.609 Z M 75.01 9.495 C 74.253 9.495 73.767 10.196 73.767 11.176 C 73.767 12.138 74.264 12.839 74.999 12.839 C 75.738 12.839 76.232 12.09 76.232 11.157 C 76.233 10.206 75.749 9.495 75.01 9.495 Z M 81.457 13.503 L 81.381 12.965 L 81.353 12.965 C 81.032 13.398 80.565 13.609 79.972 13.609 C 79.127 13.609 78.526 13.022 78.526 12.234 C 78.526 11.081 79.536 10.485 81.285 10.485 L 81.285 10.399 C 81.285 9.784 80.955 9.476 80.305 9.476 C 79.839 9.476 79.431 9.592 79.072 9.823 L 78.859 9.14 C 79.295 8.871 79.839 8.736 80.479 8.736 C 81.712 8.736 82.334 9.38 82.334 10.668 L 82.334 12.389 C 82.334 12.86 82.355 13.225 82.402 13.504 Z M 81.313 11.176 C 80.148 11.176 79.563 11.456 79.563 12.118 C 79.563 12.608 79.864 12.848 80.283 12.848 C 80.816 12.848 81.313 12.445 81.313 11.897 Z M 87.427 13.503 L 87.378 12.753 L 87.349 12.753 C 87.048 13.319 86.542 13.609 85.834 13.609 C 84.696 13.609 83.854 12.618 83.854 11.225 C 83.854 9.764 84.727 8.735 85.92 8.735 C 86.552 8.735 86.999 8.946 87.251 9.37 L 87.272 9.37 L 87.272 6.689 L 88.322 6.689 L 88.322 12.244 C 88.322 12.696 88.333 13.118 88.361 13.503 Z M 87.272 10.755 C 87.272 10.101 86.835 9.544 86.167 9.544 C 85.39 9.544 84.914 10.226 84.914 11.186 C 84.914 12.128 85.408 12.773 86.146 12.773 C 86.806 12.773 87.272 12.205 87.272 11.533 Z M 94.979 13.609 C 93.6 13.609 92.707 12.59 92.707 11.206 C 92.707 9.764 93.619 8.736 95.057 8.736 C 96.417 8.736 97.329 9.707 97.329 11.13 C 97.33 12.59 96.389 13.609 94.979 13.609 Z M 95.018 9.495 C 94.261 9.495 93.776 10.196 93.776 11.176 C 93.776 12.138 94.271 12.839 95.008 12.839 C 95.746 12.839 96.241 12.09 96.241 11.157 C 96.243 10.206 95.757 9.495 95.018 9.495 Z M 102.97 13.503 L 101.92 13.503 L 101.92 10.821 C 101.92 9.995 101.6 9.581 100.968 9.581 C 100.347 9.581 99.921 10.11 99.921 10.725 L 99.921 13.503 L 98.871 13.503 L 98.871 10.167 C 98.871 9.754 98.861 9.312 98.832 8.831 L 99.754 8.831 L 99.803 9.552 L 99.832 9.552 C 100.114 9.053 100.687 8.735 101.328 8.735 C 102.319 8.735 102.97 9.485 102.97 10.705 Z M 110.027 9.611 L 108.873 9.611 L 108.873 11.879 C 108.873 12.456 109.075 12.744 109.483 12.744 C 109.668 12.744 109.824 12.724 109.949 12.696 L 109.978 13.484 C 109.775 13.561 109.502 13.6 109.164 13.6 C 108.337 13.6 107.843 13.148 107.843 11.966 L 107.843 9.611 L 107.154 9.611 L 107.154 8.832 L 107.843 8.832 L 107.843 7.977 L 108.873 7.669 L 108.873 8.831 L 110.027 8.831 Z M 115.579 13.503 L 114.531 13.503 L 114.531 10.841 C 114.531 10.005 114.212 9.582 113.58 9.582 C 113.036 9.582 112.53 9.948 112.53 10.687 L 112.53 13.503 L 111.482 13.503 L 111.482 6.689 L 112.53 6.689 L 112.53 9.495 L 112.551 9.495 C 112.881 8.986 113.359 8.735 113.97 8.735 C 114.969 8.735 115.579 9.504 115.579 10.725 Z M 121.268 11.417 L 118.12 11.417 C 118.14 12.301 118.732 12.801 119.607 12.801 C 120.073 12.801 120.501 12.723 120.879 12.58 L 121.043 13.301 C 120.596 13.493 120.071 13.589 119.459 13.589 C 117.983 13.589 117.109 12.666 117.109 11.235 C 117.109 9.803 118.004 8.727 119.341 8.727 C 120.547 8.727 121.304 9.611 121.304 10.947 C 121.311 11.104 121.298 11.262 121.268 11.417 Z M 120.306 10.677 C 120.306 9.956 119.939 9.447 119.268 9.447 C 118.666 9.447 118.189 9.966 118.121 10.677 Z" fill="rgb(255,255,255)"></path></svg>