<svg xmlns="http://www.w3.org/2000/svg" xmlns:xlink="http://www.w3.org/1999/xlink" viewBox="0 0 136 92"><path d="M 109.65 34.73 C 105.725 14.544 88.277 -0.005 68 0 C 51.623 0 37.4 9.43 30.317 23.23 C 13.069 25.121 -0.002 39.897 -0 57.5 C -0 76.533 15.243 92 34 92 L 107.667 92 C 123.307 92 136 79.12 136 63.25 C 136 48.07 124.383 35.765 109.65 34.73 Z" fill="rgb(31, 48, 67)"></path><path d="M 35.428 57.983 C 35.428 59.002 35.181 59.881 34.687 60.619 C 34.199 61.355 33.497 61.921 32.577 62.314 C 31.663 62.705 30.573 62.903 29.303 62.903 C 28.685 62.903 28.093 62.866 27.529 62.797 C 26.989 62.73 26.454 62.627 25.928 62.489 C 25.463 62.359 25.008 62.19 24.571 61.983 L 24.571 59.324 C 25.322 59.652 26.094 59.931 26.88 60.159 C 27.73 60.403 28.596 60.525 29.478 60.525 C 30.197 60.525 30.793 60.43 31.264 60.242 C 31.694 60.084 32.067 59.796 32.332 59.418 C 32.568 59.042 32.69 58.604 32.681 58.158 C 32.694 57.692 32.55 57.235 32.273 56.863 C 32.003 56.509 31.593 56.189 31.044 55.897 C 30.382 55.542 29.701 55.224 29.004 54.945 C 28.454 54.721 27.919 54.461 27.402 54.167 C 26.911 53.887 26.459 53.543 26.055 53.144 C 25.658 52.746 25.339 52.274 25.117 51.755 C 24.88 51.148 24.765 50.498 24.779 49.846 C 24.779 48.875 25.008 48.042 25.464 47.352 C 25.928 46.662 26.579 46.133 27.413 45.763 C 28.256 45.395 29.238 45.211 30.36 45.211 C 31.251 45.211 32.085 45.303 32.867 45.492 C 33.655 45.68 34.428 45.947 35.185 46.292 L 34.304 48.565 C 33.644 48.286 32.966 48.054 32.275 47.87 C 31.624 47.697 30.954 47.609 30.28 47.61 C 29.691 47.61 29.192 47.702 28.784 47.881 C 28.404 48.038 28.077 48.304 27.844 48.647 C 27.628 48.991 27.519 49.392 27.529 49.8 C 27.529 50.303 27.649 50.727 27.889 51.072 C 28.138 51.41 28.515 51.72 29.027 52.001 C 29.544 52.284 30.21 52.599 31.022 52.944 C 31.958 53.335 32.749 53.749 33.402 54.179 C 34.059 54.611 34.558 55.129 34.907 55.734 C 35.256 56.329 35.428 57.079 35.428 57.981 Z M 41.149 44.351 L 41.149 48.951 C 41.149 49.419 41.134 49.887 41.104 50.354 C 41.081 50.809 41.052 51.161 41.022 51.412 L 41.172 51.412 C 41.444 50.959 41.775 50.584 42.169 50.294 C 42.563 49.995 43.005 49.772 43.493 49.625 C 43.987 49.475 44.513 49.399 45.07 49.399 C 46.052 49.399 46.888 49.57 47.575 49.905 C 48.264 50.237 48.79 50.75 49.153 51.446 C 49.524 52.148 49.71 53.054 49.71 54.167 L 49.71 62.668 L 46.983 62.668 L 46.983 54.687 C 46.983 53.675 46.779 52.916 46.369 52.412 C 45.961 51.904 45.327 51.649 44.465 51.649 C 43.64 51.649 42.983 51.826 42.493 52.178 C 42.015 52.523 41.67 53.038 41.462 53.719 C 41.253 54.395 41.149 55.218 41.149 56.191 L 41.149 62.668 L 38.42 62.668 L 38.42 44.351 L 41.147 44.351 Z M 60.117 49.388 C 61.64 49.388 62.861 49.954 63.782 51.083 C 64.711 52.212 65.173 53.894 65.173 56.12 C 65.173 57.597 64.958 58.841 64.525 59.853 C 64.099 60.858 63.501 61.619 62.728 62.137 C 61.929 62.657 60.995 62.924 60.046 62.903 C 59.471 62.914 58.899 62.826 58.353 62.643 C 57.909 62.489 57.493 62.263 57.122 61.971 C 56.798 61.705 56.51 61.397 56.265 61.054 L 56.102 61.054 C 56.141 61.366 56.175 61.716 56.207 62.102 C 56.245 62.48 56.265 62.825 56.265 63.137 L 56.265 68.446 L 53.527 68.446 L 53.527 49.636 L 55.755 49.636 L 56.136 51.437 L 56.265 51.437 C 56.511 51.06 56.804 50.716 57.136 50.414 C 57.483 50.099 57.9 49.85 58.387 49.671 C 58.883 49.482 59.459 49.388 60.117 49.388 Z M 59.387 51.649 C 58.636 51.649 58.031 51.801 57.576 52.109 C 57.127 52.408 56.798 52.856 56.59 53.461 C 56.388 54.066 56.279 54.823 56.265 55.734 L 56.265 56.122 C 56.265 57.088 56.361 57.907 56.556 58.583 C 56.755 59.25 57.084 59.756 57.542 60.113 C 58.004 60.458 58.63 60.63 59.421 60.63 C 60.085 60.63 60.633 60.446 61.069 60.078 C 61.508 59.708 61.837 59.181 62.055 58.498 C 62.27 57.817 62.379 57.012 62.379 56.086 C 62.379 54.683 62.129 53.59 61.635 52.813 C 61.148 52.038 60.398 51.649 59.387 51.649 Z M 74.92 49.388 C 76.443 49.388 77.663 49.954 78.585 51.083 C 79.515 52.212 79.977 53.894 79.977 56.12 C 79.977 57.597 79.762 58.841 79.327 59.853 C 78.903 60.858 78.302 61.619 77.529 62.137 C 76.731 62.657 75.798 62.924 74.85 62.903 C 74.199 62.903 73.635 62.815 73.157 62.643 C 72.713 62.49 72.297 62.263 71.926 61.971 C 71.6 61.706 71.312 61.397 71.067 61.054 L 70.906 61.054 C 70.987 61.746 71.041 62.441 71.067 63.137 L 71.067 68.446 L 68.329 68.446 L 68.329 49.636 L 70.557 49.636 L 70.94 51.437 L 71.067 51.437 C 71.314 51.061 71.606 50.717 71.937 50.414 C 72.286 50.099 72.703 49.85 73.191 49.671 C 73.685 49.482 74.263 49.388 74.92 49.388 Z M 74.188 51.649 C 73.44 51.649 72.835 51.801 72.379 52.109 C 71.93 52.408 71.602 52.856 71.393 53.461 C 71.189 54.066 71.083 54.823 71.067 55.734 L 71.067 56.122 C 71.067 57.088 71.164 57.907 71.357 58.583 C 71.559 59.25 71.887 59.756 72.343 60.113 C 72.808 60.458 73.433 60.63 74.224 60.63 C 74.888 60.63 75.437 60.446 75.87 60.078 C 76.312 59.708 76.641 59.181 76.856 58.498 C 77.073 57.817 77.182 57.012 77.182 56.086 C 77.182 54.683 76.933 53.59 76.439 52.813 C 75.951 52.038 75.201 51.649 74.188 51.649 Z M 88.248 49.388 C 89.393 49.388 90.374 49.627 91.195 50.106 C 92.015 50.586 92.645 51.265 93.085 52.143 C 93.527 53.022 93.747 54.075 93.747 55.297 L 93.747 56.78 L 85.175 56.78 C 85.206 58.045 85.537 59.016 86.172 59.701 C 86.813 60.384 87.713 60.725 88.862 60.725 C 89.683 60.725 90.417 60.646 91.068 60.488 C 91.725 60.324 92.401 60.085 93.097 59.77 L 93.097 62.02 C 92.455 62.325 91.802 62.549 91.136 62.691 C 90.349 62.843 89.548 62.914 88.747 62.903 C 87.487 62.903 86.376 62.654 85.417 62.16 C 84.468 61.658 83.689 60.88 83.18 59.924 C 82.645 58.935 82.38 57.707 82.38 56.24 C 82.38 54.779 82.622 53.539 83.11 52.521 C 83.597 51.499 84.281 50.722 85.163 50.188 C 86.045 49.655 87.074 49.388 88.248 49.388 Z M 88.248 51.472 C 87.389 51.472 86.693 51.755 86.161 52.32 C 85.635 52.884 85.324 53.712 85.231 54.804 L 91.079 54.804 C 91.083 54.211 90.973 53.623 90.755 53.073 C 90.572 52.593 90.247 52.181 89.826 51.895 C 89.418 51.614 88.89 51.472 88.248 51.472 Z M 103.331 49.388 C 103.789 49.39 104.246 49.433 104.697 49.517 L 104.443 52.107 C 104.246 52.053 104.044 52.018 103.841 52.001 C 103.633 51.979 103.424 51.967 103.215 51.966 C 102.725 51.966 102.263 52.049 101.821 52.212 C 100.916 52.538 100.196 53.247 99.849 54.156 C 99.646 54.697 99.548 55.272 99.559 55.851 L 99.559 62.666 L 96.821 62.666 L 96.821 49.636 L 98.956 49.636 L 99.328 51.932 L 99.455 51.932 C 99.708 51.467 100.028 51.044 100.407 50.66 C 100.785 50.276 101.218 49.97 101.705 49.74 C 102.215 49.502 102.77 49.382 103.331 49.388 Z" fill="rgb(255,255,255)"></path><path d="M 34.687 60.619 L 34.338 60.375 L 34.338 60.377 L 34.335 60.377 Z M 32.577 62.314 L 32.413 61.916 L 32.411 61.916 Z M 25.928 62.489 L 25.815 62.903 L 25.817 62.905 L 25.822 62.905 L 25.928 62.491 Z M 24.573 61.983 L 24.147 61.983 L 24.147 62.256 L 24.392 62.371 Z M 24.573 59.324 L 24.743 58.928 L 24.147 58.664 L 24.147 59.324 Z M 26.88 60.159 L 26.763 60.573 L 26.765 60.573 Z M 31.266 60.242 L 31.421 60.642 L 31.425 60.642 Z M 32.332 59.418 L 32.685 59.657 L 32.688 59.653 L 32.334 59.418 Z M 31.044 55.899 L 30.843 56.276 L 30.847 56.276 L 30.847 56.281 L 31.044 55.897 Z M 29.004 54.945 L 29.163 54.544 M 27.402 54.167 L 27.193 54.542 M 25.117 51.752 L 24.727 51.92 L 24.727 51.929 L 25.117 51.755 Z M 25.466 47.352 L 25.115 47.109 L 25.115 47.113 Z M 27.415 45.763 L 27.245 45.367 L 27.413 45.763 Z M 32.867 45.492 L 32.769 45.91 M 35.188 46.292 L 35.582 46.451 L 35.729 46.069 L 35.36 45.899 Z M 34.304 48.564 L 34.145 48.962 L 34.542 49.128 L 34.7 48.721 L 34.306 48.564 Z M 32.275 47.87 L 32.166 48.286 L 32.169 48.286 Z M 27.844 48.647 L 27.49 48.408 M 27.889 51.071 L 27.542 51.32 L 27.547 51.324 L 27.549 51.329 Z M 29.027 52.001 L 28.823 52.38 L 28.825 52.38 Z M 31.022 52.944 L 30.858 53.342 M 33.402 54.179 L 33.168 54.54 L 33.399 54.179 Z M 34.909 55.734 L 34.542 55.95 L 34.542 55.952 Z M 35.006 57.981 C 35.006 58.928 34.777 59.719 34.338 60.375 L 35.04 60.86 C 35.589 60.041 35.856 59.075 35.856 57.981 Z M 34.335 60.38 C 33.9 61.037 33.268 61.553 32.413 61.916 L 32.74 62.709 C 33.726 62.291 34.501 61.674 35.04 60.858 Z M 32.411 61.918 C 31.563 62.282 30.53 62.47 29.306 62.47 L 29.306 63.333 C 30.616 63.333 31.765 63.13 32.742 62.712 Z M 29.306 62.47 C 28.703 62.47 28.127 62.436 27.583 62.369 L 27.479 63.222 C 28.061 63.296 28.671 63.333 29.306 63.333 Z M 27.583 62.369 C 27.062 62.305 26.545 62.206 26.037 62.072 L 25.822 62.907 C 26.343 63.045 26.896 63.151 27.477 63.222 L 27.581 62.369 Z M 26.044 62.075 C 25.601 61.951 25.169 61.79 24.752 61.594 L 24.389 62.374 C 24.825 62.581 25.301 62.758 25.815 62.903 Z M 24.997 61.983 L 24.997 59.324 L 24.147 59.324 L 24.147 61.983 Z M 24.401 59.717 C 25.11 60.032 25.897 60.315 26.763 60.573 L 26.998 59.745 C 26.23 59.522 25.477 59.25 24.743 58.928 L 24.403 59.717 Z M 26.765 60.573 C 27.653 60.828 28.558 60.955 29.478 60.955 L 29.478 60.094 C 28.637 60.094 27.81 59.979 26.996 59.745 Z M 29.478 60.955 C 30.231 60.955 30.883 60.856 31.421 60.642 L 31.11 59.841 C 30.702 60.002 30.165 60.094 29.478 60.094 Z M 31.425 60.639 C 31.965 60.419 32.395 60.097 32.685 59.657 L 31.98 59.179 C 31.763 59.485 31.459 59.716 31.108 59.841 Z M 32.688 59.65 C 32.971 59.213 33.105 58.71 33.105 58.158 L 32.257 58.158 C 32.266 58.519 32.169 58.876 31.978 59.181 L 32.688 59.653 Z M 33.105 58.158 C 33.105 57.567 32.946 57.038 32.611 56.598 L 31.94 57.127 C 32.144 57.394 32.257 57.73 32.257 58.158 Z M 32.611 56.598 C 32.235 56.144 31.768 55.776 31.241 55.517 L 30.849 56.279 C 31.364 56.555 31.717 56.84 31.94 57.127 Z M 31.248 55.52 C 30.571 55.156 29.875 54.83 29.163 54.544 L 28.846 55.343 C 29.655 55.676 30.319 55.989 30.843 56.276 Z M 29.163 54.544 C 28.63 54.328 28.111 54.077 27.61 53.792 L 27.195 54.542 C 27.721 54.841 28.272 55.11 28.846 55.345 Z M 27.613 53.792 C 27.154 53.53 26.731 53.208 26.355 52.836 L 25.761 53.45 C 26.182 53.871 26.661 54.232 27.193 54.542 Z M 26.355 52.836 C 25.994 52.476 25.706 52.05 25.505 51.58 L 24.729 51.929 C 24.981 52.509 25.325 53.02 25.761 53.452 Z M 25.509 51.587 C 25.295 51.033 25.192 50.442 25.205 49.848 L 24.358 49.848 C 24.358 50.621 24.475 51.315 24.725 51.922 Z M 25.205 49.848 C 25.205 48.944 25.416 48.201 25.817 47.592 L 25.115 47.113 C 24.602 47.886 24.355 48.804 24.355 49.848 Z M 25.817 47.594 C 26.23 46.977 26.815 46.497 27.585 46.156 L 27.245 45.367 C 26.385 45.729 25.646 46.333 25.115 47.109 Z M 27.581 46.159 C 28.363 45.816 29.285 45.639 30.36 45.639 L 30.36 44.779 C 29.195 44.779 28.152 44.97 27.245 45.367 L 27.583 46.159 Z M 30.36 45.639 C 31.221 45.639 32.023 45.731 32.769 45.91 L 32.964 45.073 C 32.11 44.872 31.236 44.773 30.36 44.779 Z M 32.769 45.91 C 33.531 46.094 34.279 46.352 35.013 46.685 L 35.36 45.899 C 34.589 45.546 33.787 45.269 32.964 45.071 Z M 34.791 46.136 L 33.909 48.406 L 34.7 48.721 L 35.582 46.451 Z M 34.467 48.167 C 33.789 47.881 33.092 47.643 32.382 47.454 L 32.169 48.286 C 32.803 48.454 33.463 48.677 34.143 48.962 Z M 32.382 47.454 C 31.696 47.271 30.989 47.179 30.28 47.18 L 30.28 48.042 C 30.924 48.042 31.554 48.123 32.166 48.286 Z M 30.28 47.18 C 29.65 47.18 29.09 47.276 28.614 47.486 L 28.952 48.277 C 29.294 48.125 29.732 48.042 30.28 48.042 Z M 28.614 47.486 C 28.138 47.695 27.758 47.999 27.49 48.406 L 28.197 48.886 C 28.384 48.613 28.647 48.401 28.952 48.277 L 28.612 47.486 Z M 27.488 48.41 C 27.228 48.825 27.094 49.308 27.105 49.8 L 27.955 49.8 C 27.943 49.477 28.028 49.158 28.197 48.884 Z M 27.105 49.8 C 27.105 50.375 27.243 50.89 27.542 51.318 L 28.236 50.823 C 28.038 50.52 27.94 50.162 27.955 49.8 Z M 27.549 51.329 C 27.844 51.732 28.279 52.079 28.823 52.38 L 29.231 51.623 C 28.844 51.429 28.502 51.153 28.229 50.814 Z M 28.825 52.38 C 29.36 52.672 30.038 52.992 30.858 53.342 L 31.185 52.546 C 30.518 52.269 29.865 51.962 29.226 51.623 L 28.825 52.382 Z M 30.861 53.342 C 31.779 53.726 32.545 54.126 33.168 54.538 L 33.633 53.82 C 32.858 53.319 32.038 52.893 31.185 52.546 Z M 33.17 54.54 C 33.778 54.94 34.231 55.412 34.542 55.95 L 35.274 55.515 C 34.866 54.825 34.303 54.244 33.631 53.818 Z M 34.544 55.952 C 34.843 56.465 35.006 57.134 35.006 57.981 L 35.854 57.981 C 35.854 57.024 35.671 56.194 35.274 55.515 Z M 41.149 44.351 L 41.573 44.351 L 41.573 43.918 L 41.149 43.918 Z M 41.104 50.354 L 40.68 50.324 L 40.68 50.331 Z M 41.022 51.412 L 40.601 51.359 L 40.542 51.842 L 41.022 51.842 L 41.022 51.414 Z M 41.172 51.412 L 41.172 51.844 L 41.412 51.844 L 41.537 51.637 L 41.174 51.412 Z M 42.169 50.294 L 42.418 50.644 L 42.423 50.644 L 42.423 50.639 L 42.171 50.294 Z M 43.493 49.625 L 43.373 49.211 L 43.37 49.211 Z M 47.577 49.905 L 47.391 50.294 L 47.396 50.294 Z M 49.155 51.446 L 48.779 51.649 L 48.779 51.651 L 49.155 51.449 Z M 49.71 62.668 L 49.71 63.096 L 50.136 63.096 L 50.136 62.668 Z M 46.986 62.668 L 46.56 62.668 L 46.56 63.096 L 46.986 63.096 Z M 46.369 52.412 L 46.041 52.686 L 46.043 52.688 Z M 42.493 52.178 L 42.743 52.53 M 41.462 53.719 L 41.868 53.85 L 41.462 53.721 Z M 41.149 62.666 L 41.149 63.096 L 41.573 63.096 L 41.573 62.668 L 41.149 62.668 Z M 38.422 62.666 L 37.998 62.666 L 37.998 63.096 L 38.425 63.096 L 38.425 62.668 Z M 38.422 44.351 L 38.422 43.918 L 37.998 43.918 L 37.998 44.351 L 38.425 44.351 Z M 40.725 44.351 L 40.725 48.951 L 41.573 48.951 L 41.573 44.351 Z M 40.725 48.951 C 40.725 49.422 40.709 49.88 40.68 50.324 L 41.525 50.384 C 41.557 49.917 41.573 49.441 41.573 48.953 L 40.725 48.953 Z M 40.68 50.331 C 40.665 50.674 40.639 51.017 40.601 51.359 L 41.444 51.467 C 41.483 51.105 41.511 50.741 41.528 50.377 Z M 41.02 51.844 L 41.172 51.844 L 41.172 50.982 L 41.022 50.982 L 41.022 51.844 Z M 41.537 51.637 C 41.762 51.249 42.063 50.911 42.421 50.644 L 41.922 49.947 C 41.478 50.273 41.106 50.69 40.811 51.189 L 41.537 51.635 Z M 42.423 50.639 C 42.777 50.372 43.173 50.172 43.615 50.036 L 43.37 49.211 C 42.847 49.369 42.356 49.619 41.917 49.949 Z M 43.613 50.036 C 44.066 49.898 44.551 49.829 45.07 49.829 L 45.07 48.969 C 44.477 48.969 43.91 49.05 43.37 49.211 Z M 45.07 49.829 C 46.007 49.829 46.775 49.99 47.391 50.294 L 47.761 49.519 C 47.002 49.146 46.099 48.969 45.07 48.969 L 45.07 49.832 Z M 47.396 50.296 C 47.999 50.584 48.457 51.032 48.779 51.649 L 49.529 51.249 C 49.144 50.488 48.522 49.879 47.759 49.517 Z M 48.779 51.653 C 49.107 52.267 49.286 53.098 49.286 54.167 L 50.136 54.167 C 50.136 53.01 49.944 52.026 49.527 51.244 Z M 49.286 54.167 L 49.286 62.668 L 50.136 62.668 L 50.136 54.165 L 49.286 54.165 Z M 49.71 62.236 L 46.988 62.236 L 46.988 63.096 L 49.713 63.096 L 49.713 62.236 Z M 47.41 62.668 L 47.41 54.687 L 46.56 54.687 L 46.56 62.668 Z M 47.41 54.687 C 47.41 53.624 47.197 52.75 46.698 52.139 L 46.043 52.688 C 46.362 53.079 46.56 53.721 46.56 54.685 L 47.41 54.685 Z M 46.698 52.141 C 46.183 51.502 45.408 51.219 44.467 51.219 L 44.467 52.079 C 45.243 52.079 45.737 52.307 46.041 52.686 Z M 44.467 51.219 C 43.583 51.219 42.831 51.405 42.248 51.828 L 42.743 52.53 C 43.135 52.244 43.695 52.079 44.467 52.079 Z M 42.251 51.828 C 41.679 52.238 41.287 52.84 41.058 53.592 L 41.868 53.848 C 42.056 53.238 42.35 52.81 42.74 52.53 Z M 41.058 53.592 C 40.832 54.321 40.725 55.191 40.725 56.191 L 41.573 56.191 C 41.573 55.248 41.675 54.471 41.868 53.85 Z M 40.725 56.191 L 40.725 62.668 L 41.573 62.668 L 41.573 56.189 L 40.725 56.189 Z M 41.149 62.236 L 38.422 62.236 L 38.422 63.096 L 41.149 63.096 Z M 38.848 62.668 L 38.848 44.351 L 37.998 44.351 L 37.998 62.666 L 38.848 62.666 Z M 38.422 44.781 L 41.149 44.781 L 41.149 43.921 L 38.422 43.921 Z M 63.784 51.083 L 63.455 51.359 M 64.525 59.853 L 64.135 59.683 M 62.728 62.137 L 62.959 62.498 M 57.125 61.971 L 56.855 62.305 L 56.857 62.307 L 56.859 62.307 Z M 56.265 61.053 L 56.61 60.803 L 56.483 60.623 L 56.265 60.623 Z M 56.102 61.053 L 56.102 60.623 L 55.622 60.623 L 55.683 61.106 Z M 56.207 62.102 L 55.785 62.137 L 55.785 62.146 L 56.207 62.1 Z M 56.265 68.446 L 56.265 68.876 L 56.689 68.876 L 56.689 68.446 Z M 53.527 68.446 L 53.103 68.446 L 53.103 68.876 L 53.527 68.876 Z M 53.527 49.636 L 53.527 49.204 L 53.103 49.204 L 53.103 49.636 Z M 55.755 49.636 L 56.17 49.544 L 56.098 49.204 L 55.755 49.204 Z M 56.139 51.437 L 55.724 51.529 L 55.796 51.867 L 56.136 51.867 L 56.136 51.437 Z M 56.265 51.437 L 56.265 51.867 L 56.492 51.867 L 56.619 51.674 Z M 57.136 50.414 L 56.853 50.092 L 56.85 50.094 Z M 58.389 49.671 L 58.534 50.076 L 58.537 50.076 Z M 57.576 52.109 L 57.809 52.468 L 57.576 52.106 Z M 56.59 53.461 L 56.191 53.319 L 56.191 53.321 L 56.188 53.323 Z M 56.265 55.734 L 55.842 55.727 L 55.842 55.734 Z M 56.556 58.583 L 56.148 58.703 L 56.148 58.707 Z M 57.542 60.113 L 57.283 60.453 L 57.288 60.458 L 57.29 60.458 Z M 61.069 60.076 L 60.797 59.745 M 61.635 52.813 L 61.279 53.045 L 61.279 53.047 L 61.637 52.813 Z M 60.117 49.818 C 61.522 49.818 62.621 50.333 63.455 51.359 L 64.11 50.809 C 63.104 49.574 61.76 48.958 60.117 48.958 Z M 63.458 51.359 C 64.296 52.38 64.75 53.944 64.75 56.12 L 65.6 56.12 C 65.6 53.843 65.126 52.047 64.108 50.807 Z M 64.75 56.12 C 64.75 57.557 64.539 58.74 64.138 59.683 L 64.915 60.023 C 65.377 58.942 65.6 57.638 65.6 56.122 L 64.752 56.122 Z M 64.138 59.685 C 63.736 60.623 63.186 61.313 62.494 61.778 L 62.961 62.498 C 63.813 61.925 64.462 61.093 64.915 60.023 L 64.135 59.683 Z M 62.494 61.778 C 61.765 62.252 60.912 62.493 60.046 62.473 L 60.046 63.333 C 61.141 63.333 62.118 63.057 62.959 62.496 Z M 60.046 62.473 C 59.434 62.473 58.92 62.39 58.496 62.238 L 58.213 63.05 C 58.747 63.241 59.362 63.333 60.049 63.333 L 60.049 62.47 Z M 58.496 62.238 C 58.096 62.101 57.722 61.897 57.387 61.635 L 56.859 62.309 C 57.242 62.617 57.696 62.861 58.213 63.05 Z M 57.392 61.64 C 57.096 61.398 56.833 61.116 56.61 60.803 L 55.921 61.304 C 56.177 61.668 56.488 62.001 56.855 62.305 L 57.392 61.638 Z M 56.265 60.623 L 56.102 60.623 L 56.102 61.486 L 56.265 61.486 Z M 55.683 61.106 C 55.719 61.412 55.753 61.757 55.785 62.137 L 56.63 62.068 C 56.599 61.677 56.562 61.323 56.524 61.001 Z M 55.785 62.146 C 55.823 62.512 55.842 62.841 55.842 63.135 L 56.689 63.135 C 56.689 62.806 56.669 62.445 56.63 62.056 Z M 55.842 63.135 L 55.842 68.448 L 56.689 68.448 L 56.689 63.135 Z M 56.265 68.016 L 53.527 68.016 L 53.527 68.876 L 56.265 68.876 Z M 53.953 68.446 L 53.953 49.636 L 53.103 49.636 L 53.103 68.446 L 53.951 68.446 Z M 53.527 50.066 L 55.755 50.066 L 55.755 49.204 L 53.527 49.204 Z M 55.341 49.726 L 55.724 51.527 L 56.553 51.345 L 56.168 49.544 L 55.341 49.728 Z M 56.139 51.865 L 56.265 51.865 L 56.265 51.007 L 56.139 51.007 L 56.139 51.867 Z M 56.619 51.674 C 56.839 51.336 57.106 51.021 57.421 50.731 L 56.85 50.094 C 56.485 50.43 56.17 50.798 55.912 51.198 Z M 57.417 50.733 C 57.721 50.46 58.09 50.239 58.534 50.076 L 58.242 49.266 C 57.712 49.464 57.245 49.737 56.853 50.089 L 57.419 50.733 Z M 58.537 50.073 C 59.044 49.894 59.579 49.808 60.117 49.82 L 60.117 48.958 C 59.421 48.958 58.793 49.057 58.24 49.268 Z M 59.387 51.219 C 58.582 51.219 57.891 51.38 57.342 51.748 L 57.811 52.468 C 58.174 52.221 58.689 52.079 59.387 52.079 Z M 57.344 51.748 C 56.796 52.125 56.389 52.678 56.188 53.319 L 56.991 53.604 C 57.129 53.143 57.417 52.742 57.807 52.468 L 57.347 51.75 Z M 56.188 53.323 C 55.969 53.983 55.857 54.788 55.842 55.727 L 56.689 55.74 C 56.705 54.857 56.809 54.147 56.993 53.599 Z M 55.842 55.734 L 55.842 56.122 L 56.689 56.122 L 56.689 55.734 Z M 55.842 56.122 C 55.842 57.114 55.941 57.976 56.148 58.703 L 56.964 58.461 C 56.766 57.698 56.675 56.911 56.692 56.122 Z M 56.15 58.707 C 56.372 59.443 56.744 60.037 57.283 60.455 L 57.8 59.77 C 57.426 59.48 57.143 59.055 56.961 58.457 L 56.15 58.71 Z M 57.29 60.46 C 57.85 60.874 58.575 61.06 59.421 61.06 L 59.421 60.2 C 58.689 60.2 58.16 60.039 57.793 59.763 Z M 59.421 61.06 C 60.169 61.06 60.819 60.853 61.341 60.407 L 60.797 59.747 C 60.452 60.041 60.003 60.2 59.421 60.2 Z M 61.338 60.409 C 61.855 59.977 62.222 59.374 62.458 58.632 L 61.651 58.367 C 61.452 58.988 61.164 59.439 60.799 59.747 Z M 62.458 58.632 C 62.691 57.896 62.803 57.045 62.803 56.085 L 61.955 56.085 C 61.955 56.98 61.851 57.737 61.651 58.367 Z M 62.803 56.085 C 62.803 54.639 62.551 53.454 61.993 52.58 L 61.279 53.047 C 61.715 53.728 61.955 54.726 61.955 56.085 Z M 61.996 52.583 C 61.42 51.665 60.522 51.219 59.387 51.219 L 59.387 52.079 C 60.275 52.079 60.88 52.408 61.279 53.045 Z M 78.585 51.083 L 78.259 51.359 M 79.329 59.853 L 78.939 59.683 M 71.926 61.971 L 71.658 62.305 L 71.658 62.307 L 71.663 62.307 Z M 71.069 61.053 L 71.414 60.803 L 71.287 60.623 L 71.069 60.623 Z M 70.906 61.053 L 70.906 60.623 L 70.425 60.623 L 70.484 61.106 Z M 71.01 62.102 L 70.589 62.137 L 70.589 62.146 L 71.01 62.1 Z M 71.069 68.446 L 71.069 68.876 L 71.493 68.876 L 71.493 68.446 Z M 68.331 68.446 L 67.907 68.446 L 67.907 68.876 L 68.331 68.876 Z M 68.331 49.636 L 68.331 49.204 L 67.907 49.204 L 67.907 49.636 Z M 70.557 49.636 L 70.972 49.544 L 70.899 49.204 L 70.559 49.204 L 70.559 49.636 Z M 70.942 51.437 L 70.525 51.529 L 70.598 51.867 L 70.94 51.867 L 70.94 51.437 Z M 71.069 51.437 L 71.069 51.867 L 71.296 51.867 L 71.423 51.674 Z M 71.939 50.414 L 71.656 50.092 L 71.652 50.094 Z M 73.191 49.671 L 73.336 50.076 L 73.338 50.076 Z M 72.379 52.109 L 72.613 52.468 L 72.379 52.106 Z M 71.393 53.461 L 70.992 53.319 L 70.992 53.323 Z M 71.069 55.734 L 70.643 55.727 L 70.643 55.734 Z M 71.359 58.583 L 70.951 58.703 L 70.951 58.707 Z M 72.345 60.113 L 72.087 60.453 L 72.091 60.458 Z M 75.87 60.076 L 75.6 59.745 L 75.872 60.076 Z M 76.439 52.813 L 76.081 53.045 L 76.083 53.047 Z M 74.92 49.818 C 76.325 49.818 77.423 50.333 78.259 51.359 L 78.914 50.809 C 77.908 49.574 76.561 48.958 74.92 48.958 Z M 78.261 51.359 C 79.1 52.38 79.553 53.944 79.553 56.12 L 80.401 56.12 C 80.401 53.843 79.927 52.047 78.912 50.807 Z M 79.553 56.12 C 79.553 57.557 79.342 58.74 78.939 59.683 L 79.719 60.023 C 80.179 58.942 80.401 57.638 80.401 56.122 L 79.553 56.122 Z M 78.939 59.685 C 78.54 60.623 77.989 61.313 77.296 61.778 L 77.763 62.498 C 78.617 61.925 79.265 61.093 79.719 60.023 L 78.939 59.683 Z M 77.298 61.778 C 76.568 62.252 75.716 62.493 74.85 62.473 L 74.85 63.333 C 75.945 63.333 76.919 63.057 77.763 62.496 Z M 74.85 62.473 C 74.238 62.473 73.721 62.39 73.299 62.238 L 73.014 63.05 C 73.549 63.241 74.165 63.333 74.85 63.333 L 74.85 62.47 Z M 73.299 62.238 C 72.899 62.101 72.524 61.897 72.189 61.635 L 71.663 62.309 C 72.046 62.617 72.497 62.861 73.014 63.05 L 73.297 62.238 Z M 72.196 61.64 C 71.899 61.398 71.636 61.116 71.414 60.803 L 70.722 61.304 C 70.978 61.668 71.291 62.001 71.658 62.305 L 72.196 61.638 Z M 71.069 60.623 L 70.906 60.623 L 70.906 61.486 L 71.069 61.486 Z M 70.484 61.106 C 70.523 61.412 70.557 61.757 70.589 62.137 L 71.434 62.068 C 71.402 61.677 71.366 61.323 71.327 61.001 Z M 70.589 62.146 C 70.625 62.512 70.643 62.841 70.643 63.135 L 71.493 63.135 C 71.493 62.806 71.47 62.445 71.432 62.056 Z M 70.643 63.135 L 70.643 68.448 L 71.493 68.448 L 71.493 63.135 Z M 71.069 68.016 L 68.331 68.016 L 68.331 68.876 L 71.069 68.876 Z M 68.755 68.446 L 68.755 49.636 L 67.907 49.636 L 67.907 68.446 Z M 68.331 50.066 L 70.557 50.066 L 70.557 49.204 L 68.331 49.204 Z M 70.144 49.726 L 70.525 51.527 L 71.355 51.345 L 70.972 49.544 L 70.142 49.728 Z M 70.94 51.865 L 71.069 51.865 L 71.069 51.007 L 70.94 51.007 L 70.94 51.867 Z M 71.423 51.674 C 71.643 51.336 71.908 51.021 72.223 50.731 L 71.652 50.094 C 71.289 50.43 70.974 50.798 70.713 51.198 Z M 72.221 50.733 C 72.548 50.444 72.926 50.221 73.336 50.076 L 73.046 49.266 C 72.536 49.449 72.064 49.729 71.656 50.089 Z M 73.34 50.073 C 73.778 49.908 74.301 49.82 74.92 49.82 L 74.92 48.958 C 74.224 48.958 73.596 49.057 73.043 49.268 L 73.338 50.073 Z M 74.19 51.219 C 73.386 51.219 72.694 51.38 72.146 51.748 L 72.613 52.468 C 72.98 52.221 73.492 52.079 74.19 52.079 Z M 72.146 51.748 C 71.598 52.125 71.192 52.679 70.992 53.319 L 71.794 53.604 C 71.932 53.143 72.22 52.742 72.61 52.468 Z M 70.99 53.323 C 70.772 53.983 70.661 54.788 70.643 55.727 L 71.493 55.74 C 71.507 54.857 71.613 54.147 71.794 53.599 L 70.992 53.323 Z M 70.643 55.734 L 70.643 56.122 L 71.493 56.122 L 71.493 55.734 Z M 70.643 56.122 C 70.643 57.114 70.743 57.976 70.951 58.703 L 71.767 58.461 C 71.569 57.698 71.477 56.911 71.493 56.122 Z M 70.953 58.707 C 71.173 59.443 71.547 60.037 72.087 60.455 L 72.601 59.77 C 72.23 59.48 71.944 59.055 71.763 58.457 L 70.953 58.71 Z M 72.094 60.46 C 72.653 60.874 73.377 61.06 74.224 61.06 L 74.224 60.2 C 73.492 60.2 72.964 60.039 72.595 59.763 Z M 74.224 61.06 C 74.972 61.06 75.623 60.853 76.144 60.407 L 75.6 59.747 C 75.253 60.041 74.807 60.2 74.224 60.2 Z M 76.142 60.409 C 76.656 59.977 77.026 59.374 77.259 58.632 L 76.452 58.367 C 76.255 58.988 75.965 59.439 75.6 59.747 Z M 77.259 58.632 C 77.495 57.896 77.606 57.045 77.606 56.085 L 76.758 56.085 C 76.758 56.98 76.652 57.737 76.452 58.367 Z M 77.606 56.085 C 77.606 54.639 77.352 53.454 76.795 52.58 L 76.083 53.047 C 76.516 53.728 76.756 54.726 76.756 56.085 Z M 76.797 52.583 C 76.221 51.665 75.328 51.219 74.19 51.219 L 74.19 52.079 C 75.074 52.079 75.682 52.408 76.081 53.045 Z M 93.747 56.782 L 93.747 57.21 L 94.171 57.21 L 94.171 56.782 Z M 85.175 56.782 L 85.175 56.35 L 84.739 56.35 L 84.751 56.792 L 85.175 56.78 Z M 86.172 59.701 L 85.864 59.995 M 91.068 60.488 L 91.168 60.909 L 91.17 60.909 Z M 93.099 59.77 L 93.523 59.77 L 93.523 59.11 L 92.927 59.379 L 93.099 59.772 Z M 93.099 62.02 L 93.28 62.411 L 93.523 62.293 L 93.523 62.017 L 93.099 62.017 Z M 85.417 62.16 L 85.222 62.544 L 85.227 62.544 Z M 83.18 59.924 L 82.808 60.131 M 86.161 52.32 L 85.855 52.021 L 85.852 52.024 Z M 85.231 54.804 L 84.812 54.765 L 84.771 55.234 L 85.233 55.234 L 85.233 54.802 Z M 91.079 54.804 L 91.079 55.234 L 91.51 55.234 L 91.503 54.797 Z M 90.755 53.072 L 90.363 53.233 L 90.363 53.238 Z M 89.826 51.895 L 89.59 52.251 L 89.59 52.254 L 89.828 51.895 Z M 88.248 49.818 C 89.336 49.818 90.241 50.046 90.984 50.48 L 91.408 49.733 C 90.51 49.208 89.452 48.958 88.248 48.958 Z M 90.984 50.48 C 91.732 50.917 92.303 51.531 92.707 52.339 L 93.464 51.948 C 93.01 51.019 92.294 50.248 91.408 49.733 Z M 92.707 52.339 C 93.115 53.144 93.323 54.126 93.323 55.297 L 94.171 55.297 C 94.171 54.022 93.942 52.9 93.464 51.948 L 92.709 52.339 Z M 93.323 55.297 L 93.323 56.78 L 94.171 56.78 L 94.171 55.297 Z M 93.747 56.35 L 85.175 56.35 L 85.175 57.21 L 93.747 57.21 Z M 84.748 56.792 C 84.782 58.126 85.134 59.211 85.864 59.995 L 86.482 59.404 C 85.938 58.822 85.628 57.965 85.598 56.771 L 84.751 56.792 Z M 85.866 59.998 C 86.607 60.784 87.625 61.155 88.865 61.155 L 88.865 60.294 C 87.799 60.294 87.022 59.982 86.48 59.404 Z M 88.865 61.155 C 89.639 61.163 90.412 61.081 91.168 60.909 L 90.97 60.071 C 90.358 60.219 89.658 60.294 88.862 60.294 L 88.862 61.155 Z M 91.17 60.909 C 91.854 60.736 92.555 60.488 93.269 60.163 L 92.927 59.377 C 92.295 59.666 91.64 59.898 90.968 60.071 Z M 92.675 59.77 L 92.675 62.019 L 93.523 62.019 L 93.523 59.77 Z M 92.917 61.631 C 92.305 61.923 91.682 62.134 91.05 62.268 L 91.224 63.112 C 91.922 62.965 92.607 62.728 93.278 62.408 Z M 91.05 62.268 C 90.291 62.415 89.519 62.483 88.747 62.47 L 88.747 63.333 C 89.578 63.345 90.408 63.271 91.224 63.112 Z M 88.747 62.47 C 87.543 62.47 86.501 62.236 85.61 61.776 L 85.227 62.544 C 86.256 63.073 87.432 63.333 88.747 63.333 Z M 85.614 61.78 C 84.739 61.317 84.02 60.597 83.552 59.715 L 82.808 60.133 C 83.388 61.191 84.195 61.999 85.222 62.544 L 85.614 61.778 Z M 83.552 59.717 C 83.06 58.809 82.804 57.656 82.804 56.24 L 81.956 56.24 C 81.956 57.758 82.23 59.062 82.808 60.129 L 83.552 59.715 Z M 82.804 56.24 C 82.804 54.827 83.039 53.654 83.49 52.707 L 82.729 52.332 C 82.207 53.424 81.956 54.733 81.956 56.24 Z M 83.49 52.707 C 83.946 51.757 84.578 51.046 85.381 50.559 L 84.946 49.818 C 83.977 50.414 83.205 51.289 82.729 52.332 L 83.493 52.707 Z M 85.381 50.559 C 86.188 50.071 87.14 49.818 88.248 49.818 L 88.248 48.958 C 87.008 48.958 85.902 49.241 84.946 49.818 Z M 88.248 51.042 C 87.289 51.042 86.48 51.364 85.855 52.021 L 86.467 52.619 C 86.911 52.148 87.491 51.902 88.248 51.902 Z M 85.852 52.024 C 85.24 52.684 84.907 53.618 84.81 54.765 L 85.655 54.841 C 85.743 53.806 86.031 53.086 86.471 52.615 Z M 85.233 55.234 L 91.081 55.234 L 91.081 54.372 L 85.233 54.372 Z M 91.503 54.797 C 91.507 54.149 91.386 53.506 91.147 52.905 L 90.363 53.24 C 90.547 53.682 90.649 54.202 90.655 54.809 Z M 91.147 52.911 C 90.932 52.352 90.553 51.873 90.061 51.538 L 89.592 52.254 C 89.932 52.484 90.191 52.806 90.363 53.236 Z M 90.066 51.541 C 89.567 51.196 88.951 51.042 88.248 51.042 L 88.248 51.902 C 88.831 51.902 89.268 52.031 89.59 52.251 L 90.066 51.538 Z M 104.7 49.517 L 105.121 49.563 L 105.16 49.176 L 104.786 49.096 Z M 104.443 52.106 L 104.33 52.52 L 104.817 52.663 L 104.865 52.15 Z M 103.841 52.001 L 103.8 52.431 M 101.823 52.212 L 101.964 52.619 L 101.968 52.619 Z M 100.649 52.944 L 100.939 53.259 L 100.939 53.256 L 100.944 53.256 Z M 99.561 62.668 L 99.561 63.096 L 99.983 63.096 L 99.983 62.668 Z M 96.821 62.668 L 96.399 62.668 L 96.399 63.096 L 96.821 63.096 Z M 96.821 49.636 L 96.821 49.204 L 96.399 49.204 L 96.399 49.636 Z M 98.956 49.636 L 99.375 49.567 L 99.316 49.206 L 98.956 49.206 Z M 99.328 51.932 L 98.908 52.001 L 98.967 52.362 L 99.328 52.362 Z M 99.455 51.932 L 99.455 52.362 L 99.704 52.362 L 99.826 52.141 L 99.457 51.932 Z M 101.705 49.742 L 101.884 50.133 L 101.887 50.133 Z M 103.331 49.818 C 103.532 49.818 103.754 49.829 103.999 49.852 L 104.076 48.995 C 103.828 48.971 103.58 48.959 103.331 48.958 Z M 103.999 49.852 C 104.244 49.875 104.448 49.905 104.611 49.94 L 104.786 49.096 C 104.551 49.049 104.314 49.015 104.076 48.995 Z M 104.276 49.475 L 104.022 52.065 L 104.865 52.15 L 105.121 49.56 Z M 104.561 51.695 C 104.339 51.634 104.111 51.593 103.881 51.573 L 103.8 52.431 C 104.024 52.454 104.196 52.484 104.328 52.523 Z M 103.881 51.573 C 103.66 51.55 103.438 51.537 103.215 51.536 L 103.215 52.396 C 103.383 52.396 103.578 52.408 103.8 52.431 L 103.884 51.573 Z M 103.215 51.536 C 102.68 51.536 102.165 51.628 101.674 51.81 L 101.968 52.617 C 102.36 52.47 102.775 52.396 103.215 52.396 Z M 101.683 51.807 C 101.184 51.985 100.742 52.261 100.357 52.631 L 100.946 53.254 C 101.241 52.967 101.581 52.757 101.964 52.619 Z M 100.361 52.629 C 99.964 53.01 99.655 53.477 99.457 53.995 L 100.243 54.317 C 100.416 53.882 100.651 53.532 100.939 53.259 Z M 99.457 53.995 C 99.233 54.587 99.124 55.217 99.135 55.851 L 99.983 55.851 C 99.983 55.251 100.073 54.742 100.243 54.317 Z M 99.135 55.851 L 99.135 62.666 L 99.983 62.666 L 99.983 55.851 Z M 99.561 62.236 L 96.821 62.236 L 96.821 63.096 L 99.561 63.096 Z M 97.247 62.668 L 97.247 49.634 L 96.399 49.634 L 96.399 62.666 L 97.247 62.666 Z M 96.821 50.064 L 98.956 50.064 L 98.956 49.206 L 96.821 49.206 L 96.821 50.066 Z M 98.539 49.705 L 98.908 52.001 L 99.747 51.863 L 99.375 49.565 L 98.537 49.705 Z M 99.328 52.362 L 99.455 52.362 L 99.455 51.502 L 99.328 51.502 Z M 99.826 52.141 C 100.065 51.709 100.361 51.312 100.708 50.963 L 100.107 50.356 C 99.706 50.76 99.362 51.219 99.085 51.72 Z M 100.708 50.963 C 101.048 50.618 101.447 50.336 101.884 50.133 L 101.529 49.351 C 100.999 49.597 100.518 49.938 100.107 50.356 Z M 101.887 50.131 C 102.32 49.924 102.8 49.818 103.331 49.818 L 103.331 48.958 C 102.708 48.951 102.091 49.086 101.526 49.351 L 101.887 50.133 Z" fill="rgb(255,255,255)"></path><path d="M 109.53 62.491 C 110.7 62.491 111.649 61.528 111.649 60.341 C 111.649 59.153 110.7 58.19 109.53 58.19 C 108.359 58.19 107.411 59.153 107.411 60.341 C 107.411 61.528 108.359 62.491 109.53 62.491 Z" fill="rgb(255,215,0)"></path></svg>