<svg xmlns="http://www.w3.org/2000/svg" xmlns:xlink="http://www.w3.org/1999/xlink" viewBox="0 0 54 21"><g transform="translate(0.818 0.079)" id="ss819190069_1"><g transform="translate(34.462 10.229)" id="ss819190069_2"><path d="M 1.355 1.171 L 1.88 1.329 C 1.845 1.477 1.792 1.6 1.713 1.696 C 1.635 1.792 1.547 1.871 1.434 1.915 C 1.32 1.967 1.18 1.993 1.005 1.993 C 0.796 1.993 0.629 1.967 0.49 1.906 C 0.358 1.845 0.245 1.74 0.149 1.582 C 0.052 1.434 0 1.233 0 0.997 C 0 0.682 0.087 0.437 0.254 0.262 C 0.42 0.087 0.664 0.009 0.97 0.009 C 1.215 0.009 1.399 0.061 1.539 0.157 C 1.679 0.254 1.783 0.402 1.845 0.612 L 1.32 0.726 C 1.303 0.664 1.285 0.621 1.259 0.594 C 1.224 0.551 1.189 0.516 1.137 0.49 C 1.084 0.463 1.032 0.455 0.979 0.455 C 0.848 0.455 0.743 0.507 0.673 0.621 C 0.621 0.699 0.594 0.831 0.594 0.997 C 0.594 1.206 0.629 1.355 0.691 1.434 C 0.752 1.512 0.848 1.556 0.962 1.556 C 1.075 1.556 1.163 1.521 1.215 1.46 C 1.285 1.381 1.329 1.294 1.355 1.171 Z M 2.089 0.997 C 2.089 0.682 2.177 0.437 2.352 0.262 C 2.527 0.087 2.771 0 3.086 0 C 3.41 0 3.654 0.087 3.829 0.254 C 4.004 0.428 4.091 0.664 4.091 0.979 C 4.091 1.206 4.056 1.39 3.978 1.53 C 3.899 1.67 3.794 1.783 3.646 1.862 C 3.506 1.941 3.322 1.985 3.112 1.985 C 2.894 1.985 2.719 1.95 2.57 1.88 C 2.43 1.81 2.317 1.705 2.221 1.547 C 2.124 1.39 2.089 1.224 2.089 0.997 Z M 2.684 0.997 C 2.684 1.189 2.719 1.329 2.789 1.416 C 2.859 1.504 2.955 1.547 3.086 1.547 C 3.217 1.547 3.313 1.504 3.383 1.425 C 3.453 1.338 3.488 1.189 3.488 0.979 C 3.488 0.796 3.453 0.664 3.375 0.586 C 3.305 0.498 3.2 0.463 3.077 0.463 C 2.955 0.463 2.859 0.507 2.789 0.594 C 2.719 0.664 2.684 0.804 2.684 0.997 Z M 4.397 0.035 L 5.175 0.035 L 5.473 1.206 L 5.77 0.035 L 6.548 0.035 L 6.548 1.958 L 6.058 1.958 L 6.058 0.49 L 5.683 1.958 L 5.245 1.958 L 4.869 0.49 L 4.869 1.958 L 4.38 1.958 L 4.38 0.035 Z M 6.933 0.035 L 7.921 0.035 C 8.139 0.035 8.296 0.087 8.401 0.192 C 8.506 0.297 8.559 0.437 8.559 0.629 C 8.559 0.822 8.498 0.979 8.384 1.084 C 8.27 1.198 8.087 1.25 7.851 1.25 L 7.527 1.25 L 7.527 1.967 L 6.933 1.967 Z M 7.527 0.857 L 7.676 0.857 C 7.789 0.857 7.868 0.839 7.921 0.796 C 7.964 0.752 7.99 0.708 7.99 0.647 C 7.99 0.586 7.973 0.533 7.929 0.49 C 7.886 0.446 7.816 0.428 7.702 0.428 L 7.536 0.428 L 7.536 0.857 Z M 8.873 0.035 L 9.468 0.035 L 9.468 1.486 L 10.395 1.486 L 10.395 1.958 L 8.873 1.958 Z M 10.692 0.035 L 11.286 0.035 L 11.286 1.958 L 10.692 1.958 Z M 12.895 1.635 L 12.222 1.635 L 12.126 1.95 L 11.522 1.95 L 12.248 0.026 L 12.895 0.026 L 13.621 1.95 L 13 1.95 Z M 12.773 1.224 L 12.563 0.533 L 12.353 1.224 Z M 13.804 0.035 L 14.355 0.035 L 15.081 1.102 L 15.081 0.035 L 15.64 0.035 L 15.64 1.958 L 15.081 1.958 L 14.364 0.9 L 14.364 1.958 L 13.804 1.958 Z M 15.902 0.035 L 17.712 0.035 L 17.712 0.507 L 17.109 0.507 L 17.109 1.958 L 16.514 1.958 L 16.514 0.507 L 15.911 0.507 L 15.911 0.035 Z" fill="rgb(255, 255, 255)"></path></g><g id="ss819190069_4"><path d="M 28.666 13.192 L 30.388 12.65 L 29.829 11.409 C 29.418 11.925 29.007 12.589 28.666 13.192 Z M 28.08 7.518 L 24.706 0 L 0 1.399 L 6.845 20.072 L 20.02 15.92 C 19.181 14.713 18.875 13.28 19.845 12.58 C 20.929 11.793 22.564 12.703 23.604 13.988 C 24.61 12.309 27.433 8.401 28.08 7.518 Z" fill="rgb(34,94,99)"></path><g transform="translate(4.721 1.901)" id="ss819190069_6"><path d="M 19.216 3.532 C 20.247 3.532 21.087 2.745 21.087 1.766 C 21.087 0.787 20.247 0 19.216 0 C 18.184 0 17.345 0.787 17.345 1.766 C 17.345 2.736 18.184 3.532 19.216 3.532 Z M 17.686 4.292 L 20.746 4.292 L 20.746 12.292 L 17.686 12.292 Z" fill="rgb(254,254,254)"></path><path d="M 16.173 6.627 C 16.2 6.635 16.217 6.627 16.217 6.6 L 16.217 4.572 C 16.217 4.546 16.2 4.52 16.173 4.502 C 16.173 4.502 15.771 4.24 14.547 4.17 C 14.486 4.135 13.411 4.126 13.122 4.17 C 8.664 4.529 8.498 7.754 8.498 7.894 L 8.498 8.681 C 8.498 8.777 8.498 12.073 13.122 12.362 C 13.577 12.397 14.46 12.362 14.547 12.362 C 15.614 12.362 16.348 12.038 16.348 12.038 C 16.374 12.029 16.392 12.003 16.392 11.977 L 16.392 10.08 C 16.392 10.054 16.374 10.045 16.357 10.062 C 16.357 10.062 16.025 10.325 14.573 10.473 C 14.163 10.517 13.962 10.5 13.813 10.473 C 11.75 10.124 11.654 8.62 11.654 8.62 C 11.654 8.594 11.645 8.55 11.645 8.533 L 11.645 7.956 C 11.645 7.929 11.645 7.886 11.654 7.868 C 11.654 7.868 11.793 6.251 13.813 6.076 L 14.573 6.076 C 15.456 6.19 16.173 6.627 16.173 6.627 Z" fill="rgb(254,254,254)"></path><path d="M 0 12.265 C 0 12.292 0.017 12.309 0.044 12.309 L 3.025 12.309 C 3.051 12.309 3.069 12.292 3.069 12.265 L 3.069 9.94 C 3.069 9.914 3.086 9.896 3.112 9.896 C 3.112 9.896 7.877 10.237 7.877 7.046 C 7.877 4.52 4.887 4.249 3.908 4.292 L 0.044 4.292 C 0.017 4.292 0 4.31 0 4.336 Z M 3.016 8.122 L 3.016 6.032 L 3.75 6.032 C 3.75 6.032 4.808 6.076 4.896 6.802 C 4.913 6.854 4.913 7.212 4.896 7.23 C 4.756 8.078 3.838 8.122 3.838 8.122 Z" fill="rgb(254,254,254)"></path></g><path d="M 24.024 18.053 C 24.269 18.053 24.461 18.053 24.776 17.913 C 25.86 17.345 29.523 8.401 33.387 5.648 C 33.413 5.63 33.439 5.604 33.457 5.578 C 33.483 5.543 33.483 5.508 33.483 5.508 C 33.483 5.508 33.483 5.324 32.915 5.324 C 29.479 5.228 25.904 12.44 24.024 15.29 C 23.998 15.325 23.875 15.29 23.875 15.29 C 23.875 15.29 22.616 13.804 21.524 13.236 C 21.497 13.227 21.375 13.183 21.244 13.192 C 21.156 13.192 20.649 13.297 20.413 13.542 C 20.134 13.839 20.142 14.005 20.142 14.364 C 20.142 14.39 20.16 14.512 20.195 14.573 C 20.466 15.046 21.681 16.724 22.686 17.651 C 22.835 17.764 23.071 18.053 24.024 18.053 Z" fill="rgb(43,188,93)"></path></g><g transform="translate(34.401 2.833)" id="ss819190069_11"><path d="M 0 0.114 L 2.859 0.114 C 3.427 0.114 3.882 0.192 4.223 0.341 C 4.572 0.498 4.861 0.717 5.079 0.997 C 5.307 1.285 5.473 1.617 5.569 1.993 C 5.674 2.369 5.726 2.771 5.726 3.2 C 5.726 3.864 5.648 4.38 5.499 4.747 C 5.35 5.114 5.14 5.42 4.869 5.674 C 4.598 5.919 4.31 6.085 4.004 6.172 C 3.584 6.286 3.2 6.338 2.859 6.338 L 0 6.338 Z M 1.923 1.521 L 1.923 4.922 L 2.395 4.922 C 2.798 4.922 3.086 4.878 3.252 4.791 C 3.418 4.703 3.558 4.546 3.654 4.327 C 3.75 4.109 3.803 3.742 3.803 3.243 C 3.803 2.579 3.698 2.133 3.479 1.888 C 3.261 1.644 2.911 1.521 2.404 1.521 Z M 6.26 4.284 L 8.095 4.17 C 8.139 4.467 8.218 4.695 8.34 4.852 C 8.541 5.106 8.821 5.228 9.188 5.228 C 9.459 5.228 9.678 5.167 9.826 5.036 C 9.975 4.904 10.054 4.756 10.054 4.59 C 10.054 4.432 9.984 4.284 9.844 4.153 C 9.704 4.021 9.372 3.908 8.856 3.794 C 8.008 3.602 7.413 3.348 7.046 3.034 C 6.679 2.719 6.504 2.317 6.504 1.827 C 6.504 1.504 6.6 1.206 6.784 0.918 C 6.968 0.629 7.247 0.411 7.623 0.245 C 7.999 0.079 8.506 0 9.153 0 C 9.949 0 10.561 0.149 10.972 0.446 C 11.391 0.743 11.636 1.215 11.715 1.862 L 9.896 1.967 C 9.844 1.687 9.748 1.486 9.59 1.355 C 9.433 1.224 9.223 1.163 8.952 1.163 C 8.725 1.163 8.559 1.206 8.445 1.303 C 8.331 1.399 8.279 1.512 8.279 1.652 C 8.279 1.748 8.323 1.845 8.419 1.923 C 8.506 2.002 8.725 2.081 9.066 2.151 C 9.905 2.334 10.508 2.518 10.875 2.701 C 11.243 2.885 11.505 3.121 11.671 3.392 C 11.837 3.663 11.916 3.978 11.916 4.319 C 11.916 4.721 11.802 5.088 11.584 5.42 C 11.365 5.761 11.05 6.015 10.657 6.19 C 10.263 6.364 9.756 6.452 9.153 6.452 C 8.095 6.452 7.361 6.251 6.95 5.84 C 6.548 5.429 6.321 4.913 6.26 4.284 Z" fill="rgb(255, 255, 255)"></path></g><g transform="translate(46.806 2.833)" id="ss819190069_13"><path d="M 0 4.284 L 1.836 4.17 C 1.88 4.467 1.958 4.695 2.081 4.852 C 2.282 5.106 2.562 5.228 2.929 5.228 C 3.2 5.228 3.418 5.167 3.567 5.036 C 3.715 4.904 3.794 4.756 3.794 4.59 C 3.794 4.432 3.724 4.284 3.584 4.153 C 3.444 4.021 3.112 3.908 2.596 3.794 C 1.748 3.602 1.154 3.348 0.787 3.034 C 0.428 2.719 0.245 2.317 0.245 1.827 C 0.245 1.504 0.341 1.206 0.525 0.918 C 0.708 0.629 0.988 0.411 1.364 0.245 C 1.74 0.079 2.247 0 2.894 0 C 3.689 0 4.301 0.149 4.712 0.446 C 5.132 0.743 5.377 1.215 5.455 1.862 L 3.637 1.967 C 3.584 1.687 3.488 1.486 3.331 1.355 C 3.173 1.224 2.964 1.163 2.693 1.163 C 2.465 1.163 2.299 1.206 2.186 1.303 C 2.072 1.399 2.019 1.512 2.019 1.652 C 2.019 1.748 2.063 1.845 2.159 1.923 C 2.247 2.002 2.465 2.081 2.806 2.151 C 3.646 2.334 4.249 2.518 4.616 2.701 C 4.983 2.885 5.245 3.121 5.412 3.392 C 5.578 3.663 5.656 3.978 5.656 4.319 C 5.656 4.721 5.543 5.088 5.324 5.42 C 5.106 5.761 4.791 6.015 4.397 6.19 C 4.004 6.364 3.497 6.452 2.894 6.452 C 1.836 6.452 1.102 6.251 0.691 5.84 C 0.28 5.429 0.052 4.913 0 4.284 Z" fill="rgb(255, 255, 255)"></path></g></g></svg>