<svg xmlns:xlink="http://www.w3.org/1999/xlink" width="568" height="159" fill="none" xmlns="http://www.w3.org/2000/svg" id="svg173740052_24816"><path d="M72.846 89.517c0 6.495-1.598 12.088-4.793 16.779-3.146 4.701-7.691 8.29-13.634 10.788-5.892 2.497-12.933 3.75-21.122 3.75-3.995 0-7.816-.227-11.461-.674-3.646-.456-7.092-1.101-10.337-1.956-3.196-.892-6.118-1.965-8.764-3.219V98.063c4.444 1.947 9.413 3.713 14.906 5.318a61.56 61.56 0 0 0 16.779 2.317c4.644 0 8.49-.598 11.536-1.795 3.095-1.253 5.392-3 6.89-5.242 1.498-2.297 2.248-4.975 2.248-8.014 0-3.248-.874-5.992-2.622-8.243-1.748-2.25-4.394-4.292-7.94-6.143-3.495-1.9-7.89-3.92-13.183-6.066a89.607 89.607 0 0 1-10.337-4.944c-3.246-1.848-6.142-4.02-8.69-6.517-2.546-2.497-4.569-5.443-6.066-8.839-1.448-3.446-2.173-7.49-2.173-12.135 0-6.192 1.473-11.485 4.42-15.88 2.995-4.394 7.19-7.765 12.584-10.112 5.443-2.346 11.785-3.52 19.026-3.52 5.743 0 11.136.599 16.179 1.797a82.827 82.827 0 0 1 14.982 5.094L65.58 29.596c-4.495-1.848-8.865-3.321-13.11-4.42a50.627 50.627 0 0 0-12.88-1.646c-3.796 0-7.017.574-9.663 1.722-2.647 1.15-4.67 2.772-6.067 4.869-1.349 2.047-2.023 4.494-2.023 7.341 0 3.196.774 5.892 2.322 8.09 1.598 2.147 4.045 4.119 7.34 5.918 3.346 1.797 7.641 3.794 12.884 5.992 6.042 2.496 11.162 5.118 15.356 7.865 4.245 2.746 7.49 6.042 9.737 9.89 2.248 3.789 3.371 8.565 3.371 14.3ZM109.775 2.78v29.287c0 3.047-.1 6.018-.3 8.914-.15 2.896-.325 5.144-.524 6.741h.973c1.748-2.896 3.896-5.268 6.442-7.115 2.547-1.898 5.394-3.32 8.54-4.27 3.195-.949 6.591-1.423 10.187-1.423 6.342 0 11.736 1.073 16.18 3.221 4.444 2.097 7.839 5.368 10.187 9.813 2.397 4.444 3.595 10.211 3.595 17.303v54.083h-17.603V68.546c0-6.441-1.323-11.26-3.97-14.457-2.646-3.245-6.741-4.868-12.284-4.868-5.343 0-9.588 1.123-12.734 3.371-3.097 2.197-5.319 5.468-6.667 9.812-1.348 4.295-2.022 9.538-2.022 15.727v41.203H92.172V2.78h17.603Zm122.471 32.06c9.837 0 17.727 3.594 23.669 10.786 5.993 7.19 8.989 17.877 8.989 32.059 0 9.391-1.399 17.302-4.194 23.749-2.747 6.391-6.617 11.234-11.611 14.529-4.943 3.248-10.711 4.871-17.303 4.871-4.195 0-7.84-.55-10.936-1.652-3.097-1.101-5.743-2.526-7.941-4.273-2.197-1.795-4.044-3.741-5.542-5.84h-1.049c.25 1.994.474 4.216.675 6.666.249 2.403.374 4.596.374 6.59v33.787h-17.678v-119.7h14.382l2.471 11.46h.825c1.548-2.346 3.42-4.519 5.618-6.516 2.247-1.998 4.943-3.57 8.089-4.72 3.196-1.198 6.917-1.797 11.162-1.797Zm-4.72 14.38c-4.844 0-8.739.975-11.685 2.922-2.896 1.898-5.018 4.77-6.367 8.614-1.299 3.846-1.998 8.665-2.097 14.46v2.469c0 6.144.624 11.357 1.872 15.659 1.298 4.245 3.421 7.483 6.367 9.733 2.996 2.194 7.042 3.295 12.135 3.295 4.294 0 7.84-1.168 10.637-3.523 2.846-2.345 4.968-5.688 6.367-10.037 1.398-4.34 2.097-9.458 2.097-15.355 0-8.936-1.598-15.876-4.794-20.82-3.146-4.944-7.99-7.416-14.532-7.416Zm100.303-14.38c9.838 0 17.72 3.594 23.664 10.786 5.992 7.19 8.993 17.877 8.993 32.059 0 9.391-1.396 17.302-4.197 23.749-2.745 6.391-6.619 11.234-11.614 14.529-4.938 3.248-10.711 4.871-17.301 4.871-4.198 0-7.835-.55-10.935-1.652-3.096-1.101-5.742-2.526-7.94-4.273-2.197-1.795-4.045-3.741-5.542-5.84h-1.05c.25 1.994.475 4.216.674 6.666.25 2.403.376 4.596.376 6.59v33.787h-17.678v-119.7h14.381l2.472 11.46h.825c1.547-2.346 3.42-4.519 5.617-6.516 2.247-1.998 4.944-3.57 8.09-4.72 3.198-1.198 6.921-1.797 11.165-1.797Zm-4.719 14.38c-4.848 0-8.743.975-11.69 2.922-2.896 1.898-5.018 4.77-6.367 8.614-1.298 3.846-1.997 8.665-2.096 14.46v2.469c0 6.144.623 11.357 1.872 15.659 1.298 4.245 3.421 7.483 6.367 9.733 2.996 2.194 7.04 3.295 12.132 3.295 4.292 0 7.844-1.168 10.636-3.523 2.848-2.345 4.976-5.688 6.371-10.037 1.396-4.34 2.099-9.458 2.099-15.355 0-8.936-1.605-15.876-4.795-20.82-3.144-4.944-7.996-7.416-14.529-7.416Zm90.781-14.38c7.388 0 13.731 1.522 19.03 4.569 5.289 3.045 9.363 7.365 12.202 12.958 2.849 5.593 4.274 12.285 4.274 20.074v9.441h-55.352c.199 8.034 2.345 14.225 6.438 18.574 4.15 4.349 9.942 6.514 17.378 6.514 5.298 0 10.037-.493 14.234-1.5 4.245-1.044 8.613-2.564 13.105-4.567v14.31c-4.141 1.947-8.367 3.371-12.659 4.273-4.292.893-9.439 1.348-15.431 1.348-8.138 0-15.307-1.576-21.499-4.719-6.143-3.2-10.958-7.948-14.452-14.234-3.447-6.296-5.166-14.111-5.166-23.446 0-9.289 1.567-17.179 4.719-23.671 3.144-6.492 7.559-11.435 13.257-14.831 5.688-3.396 12.335-5.094 19.922-5.094Zm0 13.257c-5.545 0-10.037 1.798-13.484 5.393-3.39 3.596-5.394 8.865-5.992 15.805h37.756c-.057-4.144-.75-7.815-2.099-11.01-1.301-3.196-3.295-5.693-5.991-7.49-2.65-1.8-6.05-2.698-10.19-2.698Zm97.381-13.258c1.396 0 2.916.075 4.568.225 1.643.15 3.067.35 4.264.6l-1.643 16.478c-1.054-.3-2.346-.524-3.893-.673a41.049 41.049 0 0 0-4.046-.226c-3.152 0-6.144.525-8.992 1.573a20.867 20.867 0 0 0-7.569 4.645c-2.193 2.047-3.912 4.618-5.166 7.715-1.244 3.096-1.87 6.692-1.87 10.79v43.368h-17.682V36.412h13.788l2.393 14.607h.827a36.569 36.569 0 0 1 6.143-8.09 28.744 28.744 0 0 1 8.385-5.843c3.2-1.497 6.695-2.247 10.493-2.247Z" fill="#1F3043"></path><path d="m68.057 106.296-2.265-1.538-.005.009-.006.01 2.276 1.519Zm-13.633 10.787-1.06-2.525-.008.009 1.068 2.516Zm-42.921 1.121-.742 2.64.025.009.024.01.693-2.659Zm-8.764-3.219H0v1.738l1.571.74 1.17-2.478Zm0-16.922 1.1-2.516-3.84-1.681v4.197h2.74Zm14.907 5.318-.765 2.63h.021l.744-2.63Zm28.314.522 1.003 2.545h.01l.012-.009-1.025-2.536Zm6.891-5.242 2.28 1.52.007-.01.008-.019-2.295-1.49Zm-8.314-22.4-1.308 2.411.02.01.022.01 1.266-2.432Zm-13.184-6.067 1.03-2.539-.006-.002-1.024 2.541Zm-10.337-4.943-1.355 2.38.008.005.007.004 1.34-2.39ZM6.26 49.895l-2.526 1.061.01.022.01.023 2.506-1.106ZM8.507 21.88l-2.264-1.543-.005.009-.006.009 2.275 1.525Zm12.584-10.112-1.084-2.516-.009.004 1.093 2.512Zm35.206-1.723-.634 2.666.007.002.627-2.668Zm14.981 5.094 2.549 1.003.958-2.431-2.385-1.072-1.122 2.5Zm-5.693 14.456-1.041 2.535 2.571 1.057 1.02-2.588-2.55-1.004Zm-13.109-4.419-.694 2.65.008.002.686-2.652ZM23.863 30.12l-2.28-1.52-.004.007-.005.006 2.289 1.507Zm.3 15.43-2.24 1.579.02.028.022.029 2.197-1.636Zm7.34 5.918-1.312 2.405.008.005.007.003 1.297-2.413Zm12.884 5.992-1.06 2.527.007.003.006.003 1.047-2.533Zm15.356 7.866-1.502 2.291.007.005.007.004 1.488-2.3Zm9.737 9.89-2.366 1.377.005.01.004.009 2.357-1.396Zm.631 14.3c0 6.03-1.476 11.064-4.319 15.242l4.53 3.086c3.548-5.213 5.268-11.367 5.268-18.327h-5.479Zm-4.33 15.261c-2.807 4.187-6.898 7.463-12.418 9.781l2.123 5.051c6.365-2.668 11.362-6.59 14.846-11.784l-4.551-3.048Zm-12.425 9.79c-5.475 2.317-12.134 3.523-20.055 3.523v5.479c8.458 0 15.881-1.291 22.192-3.96l-2.137-5.042ZM33.3 118.09c-3.892 0-7.6-.218-11.126-.655l-.67 5.441c3.766.465 7.698.693 11.796.693v-5.479Zm-11.126-.655c-3.536-.437-6.86-1.064-9.979-1.88l-1.386 5.308c3.374.883 6.94 1.548 10.695 2.013l.67-5.441Zm-9.93-1.861c-3.068-.864-5.845-1.89-8.337-3.068l-2.338 4.957c2.802 1.32 5.868 2.45 9.191 3.381l1.484-5.27Zm-6.766-.589V98.063h-5.48v16.922h5.48Zm-3.84-14.415c4.571 2.004 9.654 3.808 15.242 5.441l1.53-5.261c-5.399-1.576-10.253-3.304-14.572-5.203l-2.2 5.023Zm15.263 5.441a64.01 64.01 0 0 0 17.522 2.431v-5.479a58.797 58.797 0 0 1-16.035-2.222l-1.487 5.27Zm17.522 2.431c4.856 0 9.07-.627 12.539-1.994l-2.007-5.099c-2.622 1.035-6.098 1.614-10.532 1.614v5.479Zm12.56-2.003c3.487-1.406 6.278-3.457 8.146-6.258l-4.559-3.039c-1.126 1.69-2.93 3.124-5.636 4.216l2.05 5.081Zm8.162-6.287c1.82-2.792 2.692-5.992 2.692-9.505h-5.48c0 2.573-.625 4.71-1.802 6.514l4.59 2.991Zm2.692-9.505c0-3.77-1.025-7.132-3.199-9.924l-4.325 3.362c1.322 1.7 2.044 3.836 2.044 6.562h5.48Zm-3.199-9.924c-2.066-2.658-5.073-4.928-8.837-6.894l-2.531 4.862c3.327 1.738 5.614 3.561 7.043 5.394l4.325-3.361Zm-8.796-6.865c-3.614-1.967-8.11-4.032-13.46-6.203l-2.06 5.078c5.236 2.122 9.53 4.107 12.906 5.94l2.614-4.815Zm-13.466-6.205a86.891 86.891 0 0 1-10.021-4.792l-2.68 4.779a92.126 92.126 0 0 0 10.654 5.096l2.047-5.083ZM22.372 62.87c-3.05-1.736-5.756-3.768-8.127-6.091L10.41 60.69c2.723 2.67 5.81 4.982 9.252 6.941l2.711-4.762Zm-8.127-6.091c-2.288-2.244-4.115-4.898-5.479-7.99l-5.013 2.213c1.633 3.7 3.851 6.939 6.656 9.689l3.836-3.912Zm-5.46-7.945c-1.277-3.038-1.958-6.708-1.958-11.073H1.348c0 4.924.767 9.344 2.386 13.197l5.051-2.124ZM6.827 37.76c0-5.743 1.361-10.483 3.955-14.354l-4.55-3.051C2.934 25.273 1.348 31.119 1.348 37.76h5.48Zm3.944-14.336c2.675-3.924 6.442-6.98 11.413-9.144l-2.186-5.024c-5.815 2.53-10.437 6.215-13.755 11.08l4.528 3.088Zm11.404-9.14c5.034-2.17 10.994-3.297 17.942-3.297V5.508c-7.533 0-14.258 1.22-20.11 3.744l2.168 5.032Zm17.942-3.297c5.553 0 10.732.58 15.546 1.724L56.93 7.38c-5.272-1.253-10.88-1.872-16.813-1.872v5.48Zm15.553 1.726a80.137 80.137 0 0 1 14.486 4.925L72.4 12.64a85.569 85.569 0 0 0-15.476-5.26l-1.254 5.334Zm13.059 1.422-5.693 14.457 5.098 2.007 5.693-14.457-5.098-2.007Zm-2.102 12.927c-4.598-1.89-9.087-3.405-13.464-4.538l-1.373 5.304c4.111 1.065 8.363 2.497 12.754 4.302l2.083-5.068ZM53.17 22.526a53.386 53.386 0 0 0-13.577-1.737v5.48c4.163 0 8.224.52 12.19 1.557l1.387-5.3Zm-13.577-1.737c-4.058 0-7.673.611-10.753 1.948l2.181 5.028c2.212-.96 5.04-1.497 8.572-1.497v-5.48ZM28.84 22.737c-3.059 1.328-5.526 3.266-7.257 5.863l4.559 3.04c1.066-1.598 2.644-2.906 4.879-3.875l-2.181-5.027Zm-7.266 5.877c-1.687 2.563-2.473 5.553-2.473 8.847h5.479c0-2.4.562-4.303 1.57-5.834l-4.576-3.014Zm-2.473 8.847c0 3.651.89 6.926 2.822 9.668l4.48-3.157c-1.166-1.653-1.823-3.77-1.823-6.511H19.1Zm2.864 9.725c1.908 2.566 4.714 4.772 8.226 6.687l2.624-4.81c-3.079-1.68-5.168-3.42-6.455-5.149l-4.395 3.272Zm8.241 6.695c3.451 1.855 7.833 3.89 13.122 6.106l2.117-5.053c-5.197-2.179-9.404-4.138-12.645-5.88l-2.594 4.827Zm13.134 6.112c5.93 2.449 10.886 4.996 14.901 7.624l3.002-4.584c-4.374-2.864-9.654-5.561-15.81-8.104l-2.093 5.064Zm14.914 7.633c3.934 2.545 6.858 5.539 8.86 8.967l4.731-2.764c-2.49-4.261-6.058-7.855-10.614-10.804l-2.977 4.6Zm8.869 8.986c1.932 3.257 2.988 7.511 2.988 12.905h5.48c0-6.087-1.191-11.376-3.753-15.697l-4.715 2.792ZM109.78 2.78h2.739V.04h-2.739v2.74Zm-.3 38.201-2.733-.188-.002.023-.001.024 2.736.141Zm-.525 6.741-2.718-.339-.385 3.08h3.103v-2.74Zm.974 0v2.74h1.547l.799-1.324-2.346-1.416Zm6.442-7.115 1.608 2.217.015-.01.014-.01-1.637-2.197Zm8.54-4.27-.78-2.626-.011.003.791 2.623Zm26.366 1.798-1.192 2.466.012.006.011.006 1.169-2.478Zm10.187 9.812-2.422 1.28.005.01.005.011 2.412-1.3Zm3.596 71.387v2.735h2.739v-2.735h-2.739Zm-17.603 0h-2.74v2.735h2.74v-2.735Zm-3.97-65.245-2.124 1.732.007.008.007.008 2.11-1.748Zm-25.019-1.497 1.586 2.234.007-.005-1.593-2.23Zm-6.667 9.812 2.615.82.002-.008-2.617-.812Zm-2.021 56.93v2.735h2.739v-2.735h-2.739Zm-17.603 0h-2.74v2.735h2.74v-2.735Zm0-116.554V.04h-2.74v2.74h2.74Zm14.862 0v29.287h5.48V2.78h-5.48Zm0 29.287c0 2.987-.098 5.895-.292 8.726l5.466.377c.205-2.963.306-5.997.306-9.103h-5.48Zm-.295 8.773c-.149 2.873-.32 5.043-.507 6.543l5.437.68c.212-1.697.39-4.021.541-6.94l-5.471-.283Zm2.211 9.623h.974v-5.48h-.974v5.48Zm3.32-1.325c1.573-2.606 3.477-4.697 5.704-6.314l-3.217-4.435c-2.866 2.08-5.256 4.731-7.179 7.918l4.692 2.831Zm5.733-6.335c2.283-1.7 4.841-2.982 7.694-3.843l-1.582-5.246c-3.441 1.038-6.575 2.602-9.386 4.696l3.274 4.393Zm7.682-3.84c2.924-.868 6.056-1.31 9.408-1.31v-5.478c-3.839 0-7.499.506-10.967 1.536l1.559 5.252Zm9.408-1.31c6.042 0 11.005 1.024 14.987 2.948l2.384-4.933c-4.907-2.37-10.731-3.493-17.371-3.493v5.479Zm15.01 2.96c3.894 1.837 6.857 4.681 8.934 8.613l4.845-2.558c-2.617-4.956-6.447-8.654-11.441-11.011l-2.338 4.956Zm8.944 8.635c2.112 3.915 3.268 9.192 3.268 16.003h5.479c0-7.372-1.241-13.632-3.924-18.604l-4.823 2.601Zm3.268 16.003v54.083h5.479V65.251h-5.479Zm2.74 51.339h-17.603v5.479h17.603v-5.479Zm-14.864 2.744V68.546h-5.479v50.788h5.479Zm0-50.788c0-6.745-1.374-12.309-4.599-16.204l-4.22 3.495c2.068 2.497 3.34 6.57 3.34 12.709h5.479Zm-4.586-16.188c-3.324-4.076-8.327-5.877-14.407-5.877v5.48c5.004 0 8.191 1.445 10.16 3.86l4.247-3.463Zm-14.407-5.877c-5.703 0-10.569 1.197-14.327 3.881l3.185 4.46c2.533-1.812 6.156-2.862 11.142-2.862v-5.479Zm-14.32 3.876c-3.678 2.61-6.208 6.434-7.698 11.235l5.233 1.624c1.206-3.888 3.122-6.607 5.636-8.39l-3.171-4.469Zm-7.695 11.227c-1.457 4.638-2.149 10.176-2.149 16.547h5.48c0-6.007.656-10.956 1.897-14.907l-5.228-1.64Zm-2.149 16.547v41.203h5.48V78.131h-5.48Zm2.741 38.459H92.177v5.479h17.603v-5.479Zm-14.863 2.744V2.78h-5.48v116.554h5.48ZM92.177 5.519h17.603V.04H92.177v5.48ZM255.92 45.626l-2.112 1.745.007.008 2.105-1.753Zm4.794 55.808-2.513-1.092-.004.01 2.517 1.082Zm-11.61 14.529 1.503 2.288h.005l-1.508-2.288Zm-36.18-1.054-1.735 2.127.015.009.014.01 1.706-2.146Zm-5.543-5.84 2.23-1.595-.82-1.14h-1.41v2.735Zm-1.048 0v-2.735h-3.104l.385 3.077 2.719-.342Zm.674 6.666-2.731.228.003.028.003.029 2.725-.285Zm.374 40.377v2.735h2.74v-2.735h-2.74Zm-17.678 0h-2.739v2.735h2.739v-2.735Zm0-119.7v-2.74h-2.739v2.74h2.739Zm14.382 0 2.679-.578-.466-2.162h-2.213v2.74Zm2.472 11.46-2.678.579.466 2.16h2.212v-2.739Zm.824 0v2.74h1.475l.813-1.23-2.288-1.51Zm5.618-6.516-1.82-2.048-.012.01-.011.01 1.843 2.028Zm8.09-4.72.94 2.574.011-.004.011-.005-.962-2.564Zm-5.243 15.506 1.501 2.292.01-.007-1.511-2.285Zm-6.367 8.614-2.586-.907-.005.016-.005.015 2.596.876Zm-2.098 14.46-2.739-.048v.048h2.739Zm1.873 18.128-2.631.76.005.018.006.02 2.62-.798Zm6.367 9.733-1.662 2.175.021.018.021.019 1.62-2.212Zm22.771-.228-1.743-2.108-.009.009h-.009l1.761 2.099Zm3.67-46.213-2.311 1.471.006.008.004.01 2.301-1.489ZM232.25 37.58c9.072 0 16.168 3.27 21.558 9.792l4.224-3.49c-6.495-7.86-15.179-11.782-25.782-11.782v5.48Zm21.565 9.8c5.417 6.5 8.354 16.448 8.354 30.306h5.479c0-14.506-3.056-25.932-9.623-33.813l-4.21 3.508Zm8.354 30.306c0 9.135-1.363 16.656-3.968 22.657l5.026 2.175c2.987-6.875 4.421-15.184 4.421-24.832h-5.479Zm-3.972 22.667c-2.571 5.982-6.124 10.369-10.602 13.322l3.017 4.577c5.51-3.637 9.697-8.935 12.619-15.744l-5.034-2.155Zm-10.598 13.322c-4.446 2.916-9.678 4.416-15.799 4.416v5.479c7.063 0 13.367-1.747 18.807-5.318l-3.008-4.577ZM231.8 118.09c-3.965 0-7.286-.522-10.019-1.491l-1.833 5.166c3.459 1.225 7.428 1.804 11.852 1.804v-5.479Zm-10.019-1.491c-2.858-1.016-5.228-2.298-7.152-3.827l-3.411 4.283c2.471 1.966 5.396 3.523 8.73 4.71l1.833-5.166Zm-7.122-3.808c-2.028-1.662-3.705-3.428-5.048-5.317l-4.46 3.19c1.653 2.308 3.673 4.435 6.038 6.372l3.47-4.245Zm-7.278-6.457h-1.048v5.479h1.048v-5.479Zm-3.767 3.077c.244 1.946.464 4.13.662 6.552l5.461-.446c-.202-2.479-.43-4.739-.686-6.79l-5.437.684Zm.668 6.609c.242 2.326.36 4.425.36 6.305h5.479c0-2.108-.131-4.396-.39-6.875l-5.449.57Zm.36 6.305v33.787h5.479v-33.787h-5.479Zm2.739 31.042h-17.678v5.48h17.678v-5.48Zm-14.938 2.745v-119.7h-5.479v119.7h5.479Zm-2.74-116.96h14.382v-5.48h-14.382v5.48Zm11.704-2.162 2.472 11.46 5.357-1.155-2.472-11.46-5.357 1.155Zm5.15 13.622h.824v-5.48h-.824v5.48Zm3.112-1.23c1.415-2.147 3.135-4.147 5.173-6l-3.686-4.053c-2.357 2.142-4.381 4.487-6.062 7.035l4.575 3.017Zm5.15-5.978c1.962-1.744 4.35-3.15 7.21-4.194l-1.88-5.147c-3.433 1.254-6.437 2.993-8.97 5.245l3.64 4.096Zm7.232-4.203c2.824-1.058 6.206-1.622 10.199-1.622v-5.48c-4.496 0-8.555.634-12.123 1.973l1.924 5.13Zm5.48 7.28c-5.188 0-9.663 1.04-13.196 3.376l3.022 4.57c2.359-1.56 5.673-2.467 10.174-2.467v-5.479Zm-13.186 3.37c-3.486 2.283-5.941 5.69-7.452 9.998l5.171 1.814c1.186-3.381 2.976-5.717 5.283-7.229l-3.002-4.584Zm-7.462 10.029c-1.418 4.2-2.138 9.321-2.241 15.288l5.479.095c.097-5.623.775-10.14 1.953-13.63l-5.191-1.753Zm-2.241 15.336v2.469h5.479v-2.47h-5.479Zm0 2.469c0 6.315.639 11.803 1.981 16.418l5.262-1.529c-1.156-3.969-1.764-8.916-1.764-14.89h-5.479Zm1.992 16.456c1.432 4.682 3.839 8.452 7.325 11.111l3.324-4.35c-2.407-1.842-4.244-4.558-5.409-8.365l-5.24 1.604Zm7.367 11.148c3.612 2.65 8.29 3.827 13.755 3.827v-5.479c-4.724 0-8.135-1.025-10.515-2.773l-3.24 4.425Zm13.755 3.827c4.819 0 9.023-1.329 12.398-4.168l-3.523-4.198c-2.219 1.871-5.106 2.887-8.875 2.887v5.479Zm12.379-4.149c3.337-2.754 5.711-6.59 7.232-11.31l-5.216-1.68c-1.276 3.959-3.146 6.817-5.502 8.764l3.486 4.226Zm7.232-11.31c1.507-4.681 2.229-10.094 2.229-16.2h-5.48c0 5.688-.675 10.512-1.965 14.52l5.216 1.68Zm2.229-16.2c0-9.208-1.638-16.747-5.233-22.308l-4.602 2.975c2.798 4.326 4.355 10.67 4.355 19.333h5.48Zm-5.222-22.292c-3.714-5.837-9.493-8.684-16.843-8.684v5.48c5.734 0 9.643 2.096 12.22 6.146l4.623-2.942Zm107.124-9.54-2.108 1.746.009.008 2.099-1.753Zm4.795 55.809-2.516-1.092v.01l2.516 1.082Zm-47.789 13.475-1.735 2.127.014.009.015.01 1.706-2.146Zm-5.543-5.84 2.229-1.595-.82-1.14h-1.409v2.735Zm-1.049 0v-2.735h-3.104l.385 3.077 2.719-.342Zm.674 6.666-2.73.228.002.028.003.029 2.725-.285Zm.375 40.377v2.735h2.74v-2.735h-2.74Zm-17.678 0h-2.739v2.735h2.739v-2.735Zm0-119.7v-2.74h-2.739v2.74h2.739Zm14.382 0 2.678-.578-.467-2.162h-2.211v2.74Zm2.472 11.46-2.678.579.466 2.16h2.212v-2.739Zm.824 0v2.74h1.475l.812-1.23-2.287-1.51Zm5.618-6.516-1.821-2.048-.011.01-.011.01 1.843 2.028Zm8.089-4.72.94 2.574.011-.004.011-.005-.962-2.564Zm-5.243 15.506 1.501 2.292.009-.007-1.51-2.285Zm-6.367 8.614-2.585-.907-.006.016-.005.015 2.596.876Zm-2.097 14.46-2.74-.048v.048h2.74Zm1.873 18.128-2.632.76.006.018.006.02 2.62-.798Zm6.367 9.733-1.662 2.175.021.018.02.019 1.621-2.212Zm22.767-.228-1.738-2.108-.009.009h-.01l1.757 2.099Zm3.675-46.213-2.317 1.471.01.008.009.01 2.298-1.489Zm-9.809-19.057c9.068 0 16.162 3.27 21.556 9.792l4.225-3.49c-6.495-7.86-15.184-11.782-25.781-11.782v5.48Zm21.565 9.8c5.413 6.5 8.347 16.448 8.347 30.306h5.479c0-14.506-3.058-25.932-9.619-33.813l-4.207 3.508Zm8.347 30.306c0 9.135-1.358 16.656-3.969 22.657l5.033 2.175c2.981-6.875 4.415-15.184 4.415-24.832h-5.479Zm-3.969 22.667c-2.574 5.982-6.125 10.369-10.607 13.322l3.019 4.577c5.508-3.637 9.696-8.935 12.621-15.744l-5.033-2.155Zm-10.598 13.322c-4.444 2.916-9.676 4.416-15.801 4.416v5.479c7.065 0 13.37-1.747 18.811-5.318l-3.01-4.577Zm-15.801 4.416c-3.96 0-7.284-.522-10.018-1.491l-1.833 5.166c3.456 1.225 7.426 1.804 11.851 1.804v-5.479Zm-10.018-1.491c-2.859-1.016-5.227-2.298-7.151-3.827l-3.411 4.283c2.471 1.966 5.395 3.523 8.729 4.71l1.833-5.166Zm-7.121-3.808c-2.029-1.662-3.705-3.428-5.049-5.317l-4.459 3.19c1.653 2.308 3.671 4.435 6.038 6.372l3.47-4.245Zm-7.278-6.457h-1.049v5.479h1.049v-5.479Zm-3.768 3.077c.244 1.946.465 4.13.663 6.552l5.461-.446a160.045 160.045 0 0 0-.687-6.79l-5.437.684Zm.668 6.609c.242 2.326.36 4.425.36 6.305h5.48c0-2.108-.132-4.396-.39-6.875l-5.45.57Zm.36 6.305v33.787h5.48v-33.787h-5.48Zm2.74 31.042h-17.678v5.48h17.678v-5.48Zm-14.938 2.745v-119.7h-5.479v119.7h5.479Zm-2.74-116.96h14.382v-5.48h-14.382v5.48Zm11.704-2.162 2.472 11.46 5.356-1.155-2.472-11.46-5.356 1.155Zm5.15 13.622h.824v-5.48h-.824v5.48Zm3.111-1.23c1.415-2.147 3.136-4.147 5.174-6l-3.686-4.053c-2.357 2.142-4.382 4.487-6.063 7.035l4.575 3.017Zm5.151-5.978c1.961-1.744 4.35-3.15 7.209-4.194l-1.879-5.147c-3.434 1.254-6.438 2.993-8.971 5.245l3.641 4.096Zm7.231-4.203c2.825-1.058 6.206-1.622 10.204-1.622v-5.48c-4.501 0-8.556.634-12.128 1.973l1.924 5.13Zm5.484 7.28c-5.191 0-9.668 1.04-13.2 3.376l3.021 4.57c2.361-1.56 5.678-2.467 10.179-2.467v-5.479Zm-13.191 3.37c-3.485 2.283-5.939 5.69-7.45 9.998l5.17 1.814c1.185-3.381 2.975-5.717 5.283-7.229l-3.003-4.584Zm-7.461 10.029c-1.418 4.2-2.138 9.321-2.241 15.288l5.479.095c.096-5.623.775-10.14 1.954-13.63l-5.192-1.753Zm-2.241 15.336v2.469h5.48v-2.47h-5.48Zm0 2.469c0 6.315.639 11.803 1.981 16.418l5.262-1.529c-1.155-3.969-1.763-8.916-1.763-14.89h-5.48Zm1.993 16.456c1.432 4.682 3.839 8.452 7.325 11.111l3.322-4.35c-2.406-1.842-4.243-4.558-5.408-8.365l-5.239 1.604Zm7.366 11.148c3.612 2.65 8.291 3.827 13.753 3.827v-5.479c-4.72 0-8.133-1.025-10.512-2.773l-3.241 4.425Zm13.753 3.827c4.824 0 9.03-1.329 12.401-4.168l-3.523-4.198c-2.222 1.871-5.108 2.887-8.878 2.887v5.479Zm12.382-4.149c3.333-2.754 5.707-6.59 7.227-11.31l-5.213-1.68c-1.273 3.959-3.144 6.817-5.499 8.764l3.485 4.226Zm7.227-11.31c1.51-4.681 2.231-10.094 2.231-16.2h-5.479c0 5.688-.674 10.512-1.965 14.52l5.213 1.68Zm2.231-16.2c0-9.208-1.633-16.747-5.232-22.308l-4.596 2.975c2.792 4.326 4.349 10.67 4.349 19.333h5.479Zm-5.222-22.292c-3.713-5.837-9.487-8.684-16.837-8.684v5.48c5.726 0 9.639 2.096 12.212 6.146l4.625-2.942Zm109.45 26.717v2.735h2.735v-2.735h-2.735Zm-55.352 0v-2.744h-2.811l.067 2.81 2.744-.066Zm6.438 18.574-1.994 1.88.01.01 1.984-1.89Zm31.612 5.014.637 2.668h.019l-.656-2.668Zm13.105-4.568h2.744v-4.216l-3.855 1.719 1.111 2.497Zm0 14.311 1.168 2.478 1.576-.74v-1.738h-2.744Zm-49.588.902-1.263 2.431h.009l.02.009 1.234-2.44Zm-14.453-14.235-2.402 1.311v.009l.009.01 2.393-1.33Zm19.248-48.39-1.975-1.895-.009.007-.01.007 1.994 1.881Zm-5.992 15.805-2.725-.235-.256 2.975h2.981v-2.74Zm37.756 0v2.74h2.773l-.038-2.772-2.735.032Zm-2.098-11.01-2.536 1.03v.017l.01.017 2.526-1.064Zm-5.992-7.49-1.538 2.265.009.007.009.006 1.52-2.279Zm-10.189-13.216c7.008 0 12.857 1.442 17.662 4.203l2.726-4.748c-5.783-3.332-12.621-4.934-20.388-4.934v5.479Zm17.662 4.203c4.815 2.774 8.518 6.694 11.129 11.828l4.881-2.486c-3.076-6.053-7.511-10.772-13.284-14.09l-2.726 4.748Zm11.129 11.828c2.612 5.126 3.97 11.371 3.97 18.831h5.479c0-8.12-1.481-15.257-4.568-21.317l-4.881 2.486Zm3.97 18.831v9.441h5.479v-9.44h-5.479Zm2.744 6.697h-55.352v5.479h55.352v-5.48Zm-58.096 2.81c.209 8.48 2.488 15.403 7.188 20.388l3.989-3.76c-3.495-3.703-5.508-9.164-5.698-16.76l-5.479.132Zm7.198 20.398c4.786 5.014 11.366 7.369 19.362 7.369v-5.48c-6.885 0-11.889-1.994-15.393-5.669l-3.969 3.78Zm19.362 7.369c5.46 0 10.427-.513 14.871-1.577l-1.273-5.327c-3.95.94-8.47 1.424-13.598 1.424v5.48Zm14.89-1.577c4.415-1.092 8.945-2.678 13.56-4.729l-2.222-5.004c-4.368 1.937-8.584 3.399-12.649 4.406l1.311 5.327Zm9.714-7.236v14.311h5.479v-14.311h-5.479Zm1.576 11.832c-3.969 1.862-7.986 3.21-12.059 4.065l1.12 5.365c4.511-.94 8.936-2.441 13.266-4.473l-2.327-4.957Zm-12.059 4.065c-4.055.854-9.003 1.291-14.871 1.291v5.479c6.115 0 11.462-.456 15.991-1.405l-1.12-5.365Zm-14.871 1.291c-7.777 0-14.51-1.5-20.255-4.425l-2.478 4.89c6.637 3.371 14.234 5.014 22.733 5.014v-5.479Zm-20.236-4.406c-5.641-2.944-10.075-7.293-13.323-13.133l-4.786 2.659c3.741 6.742 8.945 11.879 15.583 15.336l2.526-4.862Zm-13.313-13.124c-3.172-5.782-4.834-13.113-4.834-22.125h-5.479c0 9.667 1.785 17.957 5.508 24.756l4.805-2.631Zm-4.834-22.125c0-8.99 1.529-16.448 4.444-22.476l-4.928-2.39c-3.371 6.956-4.995 15.278-4.995 24.866h5.479Zm4.444-22.476c2.934-6.056 7.008-10.577 12.203-13.673l-2.811-4.706c-6.192 3.694-10.959 9.06-14.32 15.989l4.928 2.39Zm12.203-13.673c5.203-3.108 11.347-4.707 18.517-4.707v-5.48c-8.015 0-15.156 1.797-21.328 5.48l2.811 4.707Zm18.517 3.072c-6.201 0-11.433 2.039-15.46 6.237l3.951 3.791c2.867-2.993 6.618-4.55 11.509-4.55v-5.478Zm-15.479 6.25c-3.96 4.198-6.096 10.142-6.723 17.452l5.46.47c.561-6.57 2.422-11.165 5.252-14.159l-3.989-3.762Zm-3.998 20.427h37.756v-5.48h-37.756v5.48Zm40.491-2.772c-.047-4.432-.797-8.464-2.307-12.044l-5.052 2.13c1.187 2.813 1.833 6.121 1.88 9.98l5.479-.066Zm-2.298-12.01c-1.491-3.67-3.827-6.616-7.008-8.739l-3.039 4.56c2.204 1.472 3.865 3.52 4.976 6.242l5.071-2.063Zm-6.989-8.725c-3.219-2.186-7.198-3.17-11.727-3.17v5.479c3.76 0 6.571.814 8.651 2.223l3.076-4.532Zm94.485-12.865 2.725.273.247-2.453-2.412-.502-.56 2.682Zm-1.643 16.479-.75 2.635 3.153.9.323-3.262-2.726-.273Zm-3.893-.674-.275 2.726h.009l.266-2.726Zm-13.038 1.348.912 2.586.019-.008.019-.007-.95-2.571Zm-7.568 4.644 1.87 2.005.01-.012.019-.01-1.899-1.983Zm-7.037 61.874v2.735h2.735v-2.735h-2.735Zm-17.681 0h-2.735v2.735h2.735v-2.735Zm0-82.922v-2.74h-2.735v2.74h2.735Zm13.788 0 2.697-.444-.371-2.296h-2.326v2.74Zm2.393 14.606-2.706.444.379 2.296h2.327v-2.74Zm.826 0v2.74h1.605l.788-1.402-2.393-1.338Zm14.529-13.932 1.149 2.489.009-.004.01-.004-1.168-2.481Zm10.493.493c1.301 0 2.735.07 4.321.213l.493-5.457a53.59 53.59 0 0 0-4.814-.236v5.48Zm4.321.213c1.576.144 2.886.33 3.959.553l1.111-5.364c-1.329-.278-2.858-.49-4.577-.646l-.493 5.457Zm1.785-2.402-1.643 16.48 5.451.545 1.642-16.48-5.45-.545Zm1.832 14.117c-1.262-.36-2.734-.606-4.387-.766l-.522 5.454c1.443.14 2.564.343 3.409.582l1.5-5.27Zm-4.377-.765a43.61 43.61 0 0 0-4.311-.238v5.479c1.082 0 2.336.068 3.77.21l.541-5.45Zm-4.311-.238c-3.457 0-6.78.577-9.943 1.741l1.9 5.142c2.525-.933 5.203-1.404 8.043-1.404v-5.48Zm-9.895 1.727a23.568 23.568 0 0 0-8.556 5.247l3.789 3.964a18.064 18.064 0 0 1 6.581-4.04l-1.814-5.17Zm-8.527 5.225c-2.526 2.35-4.464 5.269-5.841 8.695l5.081 2.05c1.111-2.767 2.621-4.992 4.491-6.736l-3.731-4.01Zm-5.841 8.695c-1.405 3.486-2.079 7.442-2.079 11.815h5.479c0-3.825.589-7.06 1.681-9.766l-5.081-2.049Zm-2.079 11.815v43.368h5.479V75.966h-5.479Zm2.744 40.624h-17.681v5.479h17.681v-5.479Zm-14.937 2.744V36.412h-5.479v82.922h5.479Zm-2.744-80.182h13.788v-5.48h-13.788v5.48Zm11.082-2.296 2.393 14.606 5.412-.887-2.402-14.607-5.403.888Zm5.099 16.902h.826v-5.48h-.826v5.48Zm3.219-1.402a33.812 33.812 0 0 1 5.688-7.49l-3.874-3.874a39.64 39.64 0 0 0-6.6 8.69l4.786 2.674Zm5.688-7.49a26.056 26.056 0 0 1 7.597-5.291l-2.289-4.978a31.484 31.484 0 0 0-9.182 6.395l3.874 3.874Zm7.616-5.299c2.801-1.315 5.897-1.988 9.325-1.988v-5.48c-4.169 0-8.072.825-11.652 2.507l2.327 4.961Z" fill="#1F3043"></path><path d="M551.306 118.223c7.569 0 13.694-6.134 13.694-13.693 0-7.568-6.125-13.693-13.694-13.693-7.558 0-13.693 6.125-13.693 13.693 0 7.559 6.135 13.693 13.693 13.693Z" fill="#FFD700" stroke="#FFD700" stroke-width="5.48px" stroke-miterlimit="10"></path></svg>