<svg   xmlns="http://www.w3.org/2000/svg"><path d="M10.857 1.667a68.31 68.31 0 0 1 1.824.019l.162.006c.186.006.37.015.593.025.887.041 1.492.181 2.022.387a4.06 4.06 0 0 1 1.477.961c.424.417.752.92.96 1.477.207.53.347 1.135.388 2.023.01.222.019.406.025.593l.005.162c.013.41.018.886.02 1.823v1.714c.003.607-.004 1.215-.019 1.823l-.005.162c-.006.187-.015.371-.025.593-.041.887-.183 1.492-.388 2.023a4.07 4.07 0 0 1-.96 1.477 4.092 4.092 0 0 1-1.478.96c-.53.207-1.135.347-2.022.388-.198.01-.396.018-.593.025l-.162.005c-.41.012-.887.018-1.824.02H9.145a65.254 65.254 0 0 1-1.825-.019l-.162-.005a53.388 53.388 0 0 1-.593-.026c-.887-.041-1.492-.181-2.023-.387a4.075 4.075 0 0 1-1.476-.961 4.087 4.087 0 0 1-.962-1.477c-.206-.53-.346-1.136-.387-2.023-.01-.198-.018-.396-.025-.593l-.004-.162a65.897 65.897 0 0 1-.021-1.823V9.143c-.003-.608.004-1.215.018-1.823l.006-.162.025-.593c.042-.888.182-1.492.387-2.023.21-.557.539-1.061.964-1.477a4.08 4.08 0 0 1 1.475-.96c.531-.207 1.136-.347 2.023-.388.222-.01.407-.019.593-.025l.162-.005a65.814 65.814 0 0 1 1.823-.02h1.714ZM10 5.833a4.167 4.167 0 1 0 0 8.334 4.167 4.167 0 0 0 0-8.334ZM10 7.5a2.5 2.5 0 1 1 0 5 2.5 2.5 0 0 1 0-5m4.376-2.917a1.042 1.042 0 1 0 0 2.084 1.042 1.042 0 0 0 0-2.084Z" /></svg>