<svg  xmlns="http://www.w3.org/2000/svg"><g clip-path="url(#a)"><path fill-rule="evenodd" clip-rule="evenodd" d="M10 1.667a5 5 0 0 0-5 5v1.562l-.75-.562A.833.833 0 1 0 3.25 9l1.555 1.167c-.37.973-1.273 1.991-2.733 2.869a.84.84 0 0 0-.265 1.177c.931 1.397 2.41 2.454 4.026 2.454 1.487 0 2.506 1.666 4.167 1.666 1.676 0 2.674-1.666 4.167-1.666 1.616 0 3.095-1.057 4.026-2.455a.841.841 0 0 0-.265-1.176c-1.46-.878-2.363-1.896-2.733-2.87L16.75 9a.834.834 0 0 0-1-1.333l-.75.562V6.667a5 5 0 0 0-5-5Z" /></g><defs><clipPath id="a"><path fill="#fff" d="M0 0h20v20H0z"/></clipPath></defs></svg>