<svg  viewBox="0 0 20 20"  xmlns="http://www.w3.org/2000/svg">
<g clip-path="url(#clip0_162319_1972)">
<path fill-rule="evenodd" clip-rule="evenodd" d="M10.0013 3.33301C10.7138 3.33301 11.4446 3.35134 12.153 3.38134L12.9896 3.42134L13.7905 3.46884L14.5405 3.51967L15.2255 3.57301C15.9688 3.62991 16.6683 3.94713 17.2009 4.46887C17.7335 4.99062 18.065 5.68346 18.1371 6.42551L18.1705 6.77967L18.233 7.53801C18.2913 8.32384 18.3346 9.18051 18.3346 9.99967C18.3346 10.8188 18.2913 11.6755 18.233 12.4613L18.1705 13.2197C18.1596 13.3413 18.1488 13.4588 18.1371 13.5738C18.065 14.316 17.7333 15.009 17.2006 15.5307C16.6679 16.0525 15.9682 16.3696 15.2246 16.4263L14.5413 16.4788L13.7913 16.5305L12.9896 16.578L12.153 16.618C11.4362 16.6492 10.7188 16.6653 10.0013 16.6663C9.28382 16.6653 8.56644 16.6492 7.84964 16.618L7.01297 16.578L6.21214 16.5305L5.46214 16.4788L4.77714 16.4263C4.03376 16.3694 3.33426 16.0522 2.8017 15.5305C2.26913 15.0087 1.93761 14.3159 1.86547 13.5738L1.83214 13.2197L1.76964 12.4613C1.70592 11.6423 1.67201 10.8212 1.66797 9.99967C1.66797 9.18051 1.7113 8.32384 1.76964 7.53801L1.83214 6.77967C1.84297 6.65801 1.8538 6.54051 1.86547 6.42551C1.93759 5.68359 2.26898 4.99085 2.80138 4.46913C3.33377 3.9474 4.03308 3.63009 4.7763 3.57301L5.46047 3.51967L6.21047 3.46884L7.01214 3.42134L7.8488 3.38134C8.56589 3.3502 9.28354 3.33409 10.0013 3.33301ZM8.33464 7.97884V12.0205C8.33464 12.4055 8.7513 12.6455 9.08463 12.4538L12.5846 10.433C12.6608 10.3892 12.7241 10.326 12.768 10.25C12.812 10.1739 12.8352 10.0876 12.8352 9.99967C12.8352 9.9118 12.812 9.82547 12.768 9.7494C12.7241 9.67332 12.6608 9.61018 12.5846 9.56634L9.08463 7.54634C9.0086 7.50244 8.92235 7.47934 8.83456 7.47935C8.74676 7.47937 8.66052 7.5025 8.5845 7.54642C8.50848 7.59034 8.44536 7.65351 8.4015 7.72956C8.35764 7.80562 8.33458 7.89188 8.33464 7.97967V7.97884Z" />
</g>
<defs>
<clipPath id="clip0_162319_1972">
<rect width="20" height="20" fill="white"/>
</clipPath>
</defs>
</svg>
