<svg xmlns="http://www.w3.org/2000/svg" width="20" height="20"><path d="M 19.5 10.003 C 19.5 4.746 15.244 0.479 10 0.479 C 4.754 0.481 0.502 4.744 0.5 10.003 C 0.5 14.612 3.767 18.452 8.1 19.336 L 8.1 12.86 L 6.2 12.86 L 6.2 10.003 L 8.1 10.003 L 8.1 7.622 C 8.101 5.782 9.589 4.29 11.425 4.288 L 13.8 4.288 L 13.8 7.146 L 11.9 7.146 C 11.376 7.147 10.952 7.572 10.95 8.098 L 10.95 10.003 L 13.8 10.003 L 13.8 12.86 L 10.95 12.86 L 10.95 19.479 C 15.804 18.991 19.5 14.894 19.5 10.003 Z" fill="rgb(48, 48, 54)"></path></svg>