<svg width="150" height="150" fill="none" xmlns="http://www.w3.org/2000/svg"><g clip-path="url(#a)"><path d="M32.288 56.85a.138.138 0 0 0-.138.131c0 2.475-2 4.482-4.456 4.482a.132.132 0 0 0-.131.137c0 .075.062.131.13.131 2.463 0 4.457 2.013 4.457 4.488 0 .075.063.131.138.131a.136.136 0 0 0 .13-.131 4.482 4.482 0 0 1 4.457-4.469.134.134 0 0 0 0-.269 4.475 4.475 0 0 1-4.456-4.487v-.013a.13.13 0 0 0-.038-.093.138.138 0 0 0-.093-.038ZM9.206 60.138 0 84.138h3l2.219-5.763h11.137l2.213 5.763h3.006l-9.2-24H9.206Zm14.15.012v23.988h3.069V60.15h-3.069Zm14.844 0v23.988h15.081V81h-11.95v-7.437h9.856V70.58h-9.856v-7.287h11.081v-3.138L38.2 60.15Zm-27.413 3.7 4.363 11.375H6.425l4.362-11.375Zm91.807 2.513a9.161 9.161 0 0 0-6.038 2.287v-1.775h-3.069v17.269h3.063c.013-2.981 0-5.969.013-8.956a6.056 6.056 0 0 1 6.031-5.738v-3.087Zm26.125.043c-.332 0-.656.02-.988.063-1.968.194-3.787 1.094-4.706 2.356a4.303 4.303 0 0 0-.875 2.906c.044 1.25.413 2.232 1.456 3.1 1.15.92 2.625 1.25 4.107 1.62 1.943.418 2.662.593 3.412 1.162.5.437.831.793.85 1.687 0 1.563-1.381 2.325-2.625 2.563a5.563 5.563 0 0 1-5.587-2.15l-2.319 1.8c2.062 2.387 4.856 3.156 6.812 3.125 3.375-.063 5.569-1.357 6.431-3.338.413-.956.394-1.931.394-2.375a4.228 4.228 0 0 0-1.668-3.406c-1.425-1.106-3.644-1.425-3.976-1.513-2.731-.487-4.112-1.225-4.356-2.13-.268-1.2.638-2.188 1.856-2.57a4.753 4.753 0 0 1 5.357 1.732l2.294-1.544a7.295 7.295 0 0 0-5.869-3.088Zm14.919 0c-.325 0-.657.02-.982.063-1.975.194-3.793 1.094-4.706 2.356a4.303 4.303 0 0 0-.875 2.906c.037 1.25.406 2.232 1.456 3.1 1.144.92 2.625 1.25 4.107 1.62 1.937.418 2.662.593 3.406 1.162.506.437.837.793.85 1.687.006 1.563-1.381 2.325-2.625 2.563a5.563 5.563 0 0 1-5.588-2.15l-2.318 1.8c2.062 2.387 4.856 3.156 6.812 3.125 3.381-.063 5.569-1.357 6.437-3.338.407-.956.388-1.931.388-2.375a4.236 4.236 0 0 0-1.669-3.406c-1.419-1.106-3.643-1.425-3.975-1.513-2.731-.487-4.112-1.225-4.35-2.13-.269-1.2.631-2.188 1.856-2.57a4.753 4.753 0 0 1 5.357 1.732l2.294-1.544a7.302 7.302 0 0 0-5.875-3.088Zm-61.5.013a9.132 9.132 0 0 0-8.876 6.981 8.163 8.163 0 0 0-.256 2.044V93.15h3.069V81.82a9.103 9.103 0 0 0 6 2.837 9.044 9.044 0 0 0 7.55-3.918 9.107 9.107 0 0 0-7.494-14.325l.007.006Zm30.024 0a9.05 9.05 0 0 0-8.049 13c1.593 3.312 5.068 5.437 8.824 5.206a9.075 9.075 0 0 0 6.326-3.187l-2.269-1.82a6.052 6.052 0 0 1-6.913 1.707 6.317 6.317 0 0 1-3.762-4.312h13.993l.013-2.67a8.092 8.092 0 0 0-8.163-7.924Zm-57.5.5 6.638 8.606-6.637 8.613h3.63l4.87-6.313 4.862 6.313h3.631l-6.637-8.613 6.637-8.612h-3.631l-4.863 6.312-4.868-6.312-3.631.006Zm-23.906.094v17.125h3.063V67.013h-3.063Zm51.457 2.312a6.001 6.001 0 0 1 5.937 6.206 6.019 6.019 0 0 1-5.394 6.238 6.013 6.013 0 0 1-6.462-4.619c-.463-2.387 0-4.662 1.919-6.369a5.994 5.994 0 0 1 4-1.456Zm29.937.094a5.144 5.144 0 0 1 5.119 4.719h-11a6.026 6.026 0 0 1 5.881-4.72Z" fill="#838383"/></g><defs><clipPath id="a"><path fill="#fff" d="M0 0h150v150H0z"/></clipPath></defs></svg>