<svg width="151" height="150" fill="none" xmlns="http://www.w3.org/2000/svg"><path d="M138.231 113.937c0 4.544-2.531 13.294-8.219 18.1-1.137.875-2.275.382-1.775-.893 1.657-4.05 5.444-13.419 3.669-15.575-1.256-1.638-6.444-1.513-10.869-1.138-2.018.257-3.793.375-5.168.656-1.275.1-1.532-1.018-.257-1.893a19.33 19.33 0 0 1 5.438-2.675c7.187-2.15 15.494-.856 16.687.519.225.262.494 1.006.494 2.899Zm-12.012 8.082a46.43 46.43 0 0 1-5.182 3.437c-13.262 7.969-30.443 12.144-45.362 12.144-24.019 0-45.5-8.856-61.8-23.675-1.4-1.137-.244-2.788 1.394-1.894 17.562 10.25 39.3 16.45 61.8 16.45 14.162 0 29.425-2.65 43.968-8.35 1.019-.381 2.157-.9 3.15-1.262 2.294-1.032 4.313 1.512 2.032 3.15ZM87.656 53.081c0-6.506.263-10.337-1.894-13.625-1.912-2.706-5.206-4.331-9.806-4.075-4.987.275-10.344 3.544-11.706 9.538-.269 1.375-1.069 2.725-2.731 3.019L46.3 46c-1.087-.25-2.744-1.081-2.2-3.256C47.369 25.55 62.062 19.556 75.963 18.75h3.262c7.625 0 17.425 2.181 23.694 7.9 7.606 7.1 6.793 16.638 6.793 27v24.544c0 7.362 2.988 10.625 5.988 14.462.812 1.369 1.094 2.981-.275 4.094a490.523 490.523 0 0 1-11.981 10.338c-1.094.831-3.057.918-3.813.281-4.812-4.031-5.987-6.269-8.969-10.363-5.187 5.444-9.543 8.45-14.725 10.082a44.027 44.027 0 0 1-11.15 1.35c-13.062 0-23.406-8.144-23.406-24.25 0-12.807 6.813-21.513 16.875-25.632 10.063-4.125 24.688-5.437 29.4-5.462m-2.981 32.45c3.25-5.45 2.981-9.913 2.981-19.906-4.075 0-8.162.28-11.694 1.112-6.53 1.894-11.718 6-11.718 14.719 0 6.812 3.55 11.45 9.537 11.45.825 0 1.55-.1 2.175-.281 4.188-1.163 6.8-3.263 8.719-7.094Z" fill="#838383"/></svg>