<svg width="151" height="150" fill="none" xmlns="http://www.w3.org/2000/svg"><g clip-path="url(#a)"><path d="M1.206 54.844h19.475c16.738 0 23.294 9.825 23.294 20.23 0 10.588-8.406 20.02-24.388 20.02H1.237c-.337 0-.456-.213-.456-.394 0-.213.213-.394.513-.394h3.431c1.063 0 1.756-.637 1.756-1.819V57.512c0-.875-.425-1.85-1.819-1.85H1.175c-.275 0-.425-.18-.425-.393 0-.182.063-.425.456-.425ZM13.37 93.219c0 .875.393 1.15.969 1.15H19.5c12.712 0 17.319-9.738 17.319-19.5 0-9.763-4.882-19.244-15.625-19.244h-7.006c-.732 0-.788.606-.788.881l-.031 36.713Zm32.544-38.375c-.3 0-.575.125-.575.362 0 .238.15.394.425.394h3.425c.793 0 1.55.55 1.55 2.062V92.52c0 .725-.55 1.812-1.52 1.812h-3.393c-.394 0-.425.313-.425.431 0 .12-.031.332.425.332h16.5c.244 0 .575-.032.575-.275 0-.244-.063-.482-.487-.482h-3.188c-.45 0-1.694-.275-1.694-1.668V57.3c0-1 .638-1.668 1.788-1.668h3.125c.275 0 .425-.15.425-.362 0-.213-.15-.394-.519-.394 0-.031-16.5.062-16.438-.031Zm25.78 20.143c0-11.13 4.976-20.143 14.313-20.143 9.163 0 14.319 9.012 14.319 20.143 0 11.132-4.7 20.138-14.313 20.138C76.7 95.156 71.7 86.119 71.7 74.987m14.313 20.988c13.287 0 21.656-9.4 21.656-20.963 0-11.562-8.281-20.987-21.656-20.987-13.344 0-21.657 9.4-21.657 20.962 0 11.563 8.644 20.988 21.657 20.988Zm64.125-1.125c-5.219.55-8.107-8-10.744-12.069-1.969-3-6.156-6.062-10.281-6.675 6.793-.394 14.406-2.575 14.406-10.281 0-6.25-3.85-10.981-17.988-10.981H109.25c-.212 0-.425.125-.425.362 0 .238.213.394.425.394h3.731c.788 0 1.55.55 1.55 2.062V92.52c0 .725-.55 1.812-1.519 1.812h-3.668c-.3 0-.425.25-.425.369s.125.394.425.394h17.287c.244 0 .457-.125.457-.363 0-.237-.151-.394-.488-.394h-3.488c-.456 0-1.7-.306-1.7-1.668V76.2h1.794c8.55 0 9.188 9.282 13.438 14.588 3.637 4.55 8.4 5.125 11.1 5.125 1.15 0 1.937-.03 2.668-.212.457-.15.544-.938-.274-.85ZM123.144 55.6h2.519c4.306 0 11.281 1.7 11.281 9.831 0 7.463-6.188 9.981-11.919 9.981h-3.669V57.3c0-1.031.638-1.694 1.788-1.694" fill="#838383"/></g><defs><clipPath id="a"><path fill="#fff" transform="translate(.75)" d="M0 0h150v150H0z"/></clipPath></defs></svg>