<svg width="188" height="150" fill="none" xmlns="http://www.w3.org/2000/svg"><g clip-path="url(#a)"><path d="m177.789 55.518-16.055 32.197-16.084-32.197h-10.986l3.193 6.035c-3.369-5.567-10.518-7.617-18.545-7.617-9.316 0-19.893 2.548-20.947 12.627h9.873c.41-4.044 4.599-6.387 10.254-6.387 7.617 0 12.011 2.812 12.011 9.668v.996c-3.72 0-8.203.03-12.216.117-12.422.264-20.391 2.93-22.471 10.078.293-1.523.44-3.105.44-4.746 0-15.264-11.632-22.324-22.09-22.324-6.24 0-12.598 1.611-17.198 7.09V37.44h-9.404V87.1c0 3.017-.176 6.709-.322 9.697h9.228c.205-1.846.322-3.78.322-5.713 3.985 4.863 10.372 7.295 17.198 7.295 10.81 0 19.013-6.416 21.474-15.879-.146.82-.205 1.7-.205 2.637 0 7.06 6.182 13.183 17.754 13.183 7.793 0 13.418-1.67 18.135-7.47 0 1.933.088 3.896.322 5.918h8.731c-.205-2.403-.293-5.127-.293-7.852V69.697c0-2.724-.498-5.039-1.407-6.972l18.018 34.013-8.35 15.85h10.518l29.063-57.07h-9.961ZM71.646 91.934c-8.672 0-14.707-6.3-14.707-15.762 0-9.492 6.035-15.762 14.707-15.762 8.73 0 14.707 6.27 14.707 15.762 0 9.463-5.977 15.762-14.707 15.762Zm58.857-13.858c0 8.79-5.244 14.18-15.117 14.18-7.353 0-10.254-3.926-10.254-7.559 0-5.595 5.303-7.148 13.828-7.412 3.838-.146 8.086-.176 11.543-.176v.967ZM9.83 78.545h37.734v-2.49c0-15.147-9.697-22.09-22.969-22.09C7.955 53.965.28 62.988.28 76.699c0 12.451 7.412 21.68 24.17 21.68 9.199 0 19.922-3.428 21.797-13.506h-9.698C33.033 95.361 10.855 95.625 9.83 78.545Zm27.832-6.27H10.005c2.022-16.582 26.983-16.025 27.657 0Z" fill="#838383"/></g><defs><clipPath id="a"><path fill="#fff" transform="translate(.25)" d="M0 0h187.5v150H0z"/></clipPath></defs></svg>