<svg width="151" height="150" fill="none" xmlns="http://www.w3.org/2000/svg"><path d="M70.369 87.862c-2.738 0-4.332-1.837-4.332-6.612V64.4l9.1.7.463-4.337-9.35.462v-9.563h-2.737c-1.35 7.507-4.744 10.238-9.3 10.7v2.276h5.43v19.137c0 5.225 3.676 7.944 8.207 7.944 3.656 0 7.513-1.594 8.863-4.769l-1.357-1.594c-.675 1.125-2.512 2.507-4.987 2.507ZM48.53 82.844c-1.837 4.312-4.794 4.556-7.75 4.556h-9.56c-3.175 0-4.556-1.163-4.556-3.875V69.412s6.824 0 9.106.244c1.819.219 2.737.681 3.412 2.956l.675 3.194h2.738l-.244-8.181.462-7.987H40.1l-.919 3.656c-.456 2.493-.918 2.737-3.412 3.175-3.175.237-9.106.237-9.106.237V49.87c0-.7 0-.919 1.156-.919h14.319c2.512 0 3.875 2.037 4.768 6.125l.919 3.2h2.494c.243-9.106.462-12.962.462-12.962s-6.131.656-9.762.656H22.813l-9.563-.194v2.494l3.175.669c2.294.462 2.969.918 2.969 2.956 0 0 .244 6.15.244 16.369 0 10.243-.244 16.393-.244 16.393 0 1.819-.675 2.494-2.969 2.956l-3.175.707v2.475l9.781-.219h16.394c3.631 0 12.281.219 12.281.219.213-2.257 1.35-12.275 1.594-13.413H51l-2.469 5.463Zm37.75-16.388c0-2.962 2.731-4.094 5.469-4.094 2.25 0 4.081.92 4.556 2.032L97.9 68.95l2.256-.219c0-2.275.238-5.237.694-7.506-2.05-.919-6.144-1.381-8.881-1.381-6.15 0-10.919 2.756-10.919 8.669 0 10.462 15.25 8.187 15.25 15.93 0 2.495-1.6 4.557-5.475 4.557-3.631 0-5.231-1.838-5.906-3.656l-1.813-4.331H80.8c.25 2.974.463 5.924 0 8.637 0 0 4.794 1.837 9.569 1.837 6.387 0 11.612-3.168 11.612-9.106 0-10.462-15.7-8.881-15.7-15.925Zm39.807-5.906v2.275l1.618.462c1.575.438 2.25 1.113 2.25 2.27 0 .674-.212.9-.456 1.818-.675 1.819-5.013 12.519-7.263 17.294a473.396 473.396 0 0 1-6.831-18.431c-.219-.457-.219-.675-.219-.913 0-.925.657-1.825 2.257-2.038l2.056-.462V60.55l-8.413.456-6.849-.243v2.3l1.168.43c1.569.463 1.794.688 2.932 3.2 4.331 9.563 9.106 22.057 10.725 25.938-3.65 6.369-7.525 8.181-10.482 8.181-1.818 0-2.493-.918-2.718-2.056l-.913-4.769-2.5.22c-.456 2.98-.919 6.149-1.594 8.643 1.794 1.137 3.85 1.838 6.581 1.831 4.319 0 10.469-1.137 16.394-14.575l10.007-23.418c.906-1.832 1.137-2.057 3.412-2.976l1.144-.9V60.55l-5.907.213-6.399-.213Z" fill="#838383"/></svg>