<svg width="150" height="150" fill="none" xmlns="http://www.w3.org/2000/svg"><path d="M93.125 31.875s-1.25.375-3.375 1.063c-.375-1.126-.875-2.563-1.625-3.938C85.75 24.437 82.25 22.062 78 22c-.313 0-.563 0-.875.063-.125-.125-.25-.313-.375-.438-1.813-2-4.188-2.938-7-2.875-5.438.188-10.875 4.125-15.313 11.125C51.313 34.813 49 41 48.313 45.75c-6.25 1.938-10.626 3.313-10.75 3.313-3.188 1-3.25 1.124-3.688 4.062-.313 2.25-8.563 66.25-8.563 66.25l68.626 11.875v-99.5c-.313 0-.626.063-.813.125ZM77.25 36.813c-3.625 1.124-7.625 2.374-11.563 3.562 1.126-4.313 3.25-8.563 5.876-11.375 1-1.063 2.312-2.188 3.937-2.875 1.5 3.188 1.813 7.625 1.75 10.688Zm-7.438-14.438c1.25 0 2.376.25 3.313.875-1.5.75-2.875 1.875-4.25 3.313-3.438 3.687-6.125 9.5-7.188 15.062-3.312 1-6.5 2-9.5 2.938 1.876-8.813 9.25-21.938 17.626-22.188ZM59.188 72.313c.374 5.812 15.75 7.124 16.624 20.812.688 10.75-5.687 18.125-14.937 18.687C49.875 112.5 43.75 106 43.75 106l2.313-9.938s6.124 4.625 11 4.313c3.187-.188 4.312-2.813 4.25-4.625-.5-7.625-13-7.188-13.75-19.688-.688-10.562 6.25-21.187 21.5-22.187C75 53.5 78 55 78 55l-3.5 13.063s-3.875-1.75-8.5-1.5c-6.75.437-6.875 4.687-6.813 5.75Zm21.687-36.626c-.063-2.75-.375-6.624-1.688-9.937 4.126.813 6.188 5.438 7.063 8.25-1.563.5-3.375 1.063-5.375 1.688ZM96.188 131l28.5-7.062S112.437 41.062 112.375 40.5c-.063-.563-.563-.875-1-.938-.438-.062-8.438-.187-8.438-.187s-4.874-4.75-6.75-6.563V131Z" fill="#838383"/></svg>