<svg width="151" height="150" fill="none" xmlns="http://www.w3.org/2000/svg"><g clip-path="url(#a)"><path d="m54.263 43.75.012.038 17.462 47.63V46.232H64.55v-.437H89.3c11.894 0 20.194 6.1 20.194 14.844 0 6.375-5.688 11.675-14.144 13.18l-1.556.195 1.562.162c5.132.588 9.207 2.163 12.094 4.688l.019.018 12.912-35.131h.438l.012.038 22.225 60.612h7.694v.438h-24.487v-.438h7.212l-7.313-19.931h-14.831v.012l.081.232c.588 1.756.888 3.6.869 5.456v7.475c0 3.844 1.694 7.737 4.938 7.737 1.9 0 3.419-.668 5.231-2.325l.256.238c-1.962 2.075-4.344 2.956-7.912 2.956-2.688 0-5-.65-6.85-1.925l-.35-.25c-2.438-1.85-4.025-4.862-4.707-8.969l-.112-.662-.113-1-.012-.175-4.088 11.125h5.8v.437H92.225v-.437h5.863l4.487-12.213v-.031a39.008 39.008 0 0 1-.081-2.163V84.65c0-6.556-4.875-10.313-13.375-10.313h-8.356V104.4H88v.438H59.706v-.438h7.213l-7.313-19.931H39.325l-7.238 19.712.3-.05c9.507-1.637 13.876-8.894 13.938-16.531h.438v17.238H.75l34.156-58.607H21.175c-11.388 0-16.538 8.794-16.619 17.563h-.431v-18h41.462l-.25.437L11.431 104.4H29.27c.444 0 .881-.019 1.325-.056l.45-.038.562-.062L53.82 43.75h.444Zm61.768 13.094-8.206 22.35.044.043.418.413a13.483 13.483 0 0 1 2.826 4.275l.043.106H126l-9.969-27.187Zm-66.55 0L39.487 84.03H59.45l-9.969-27.187ZM87.144 46.23h-6.375V73.9h8.35c8.456 0 11.044-3.081 11.044-13.169 0-9.481-4.5-14.5-13.02-14.5Z" fill="#838383"/></g><defs><clipPath id="a"><path fill="#fff" transform="translate(.75)" d="M0 0h150v150H0z"/></clipPath></defs></svg>