<svg width="286" height="23" viewBox="0 0 286 23" fill="none" xmlns="http://www.w3.org/2000/svg">
<path d="M20.322 15.454L20.116 14.423H17.817L17.451 15.447L15.608 15.45C16.793 12.597 17.672 10.484 18.246 9.10999C18.396 8.75099 18.662 8.56699 19.054 8.56999C19.354 8.57199 19.843 8.57199 20.523 8.57099L21.947 15.451L20.322 15.454ZM18.333 13.01H19.816L19.262 10.425L18.333 13.01ZM6.458 8.56899L8.311 8.57099L5.447 15.455L3.571 15.453C3.099 13.635 2.634 11.815 2.174 9.99399C2.082 9.63099 1.901 9.37699 1.553 9.25599C1.038 9.08399 0.52 8.91899 0 8.76099V8.57099H2.96C3.472 8.57099 3.771 8.81899 3.867 9.32899C3.964 9.83999 4.207 11.14 4.599 13.228L6.458 8.56899ZM10.857 8.57099L9.393 15.454L7.629 15.451L9.09 8.56899L10.857 8.57099ZM14.432 8.44299C14.96 8.44299 15.625 8.60799 16.007 8.76099L15.698 10.187C15.352 10.048 14.784 9.85899 14.305 9.86599C13.61 9.87799 13.18 10.17 13.18 10.451C13.18 10.907 13.926 11.138 14.695 11.636C15.571 12.205 15.687 12.715 15.676 13.271C15.664 14.421 14.695 15.557 12.65 15.557C11.717 15.543 11.381 15.465 10.62 15.194L10.942 13.705C11.716 14.03 12.045 14.133 12.707 14.133C13.313 14.133 13.833 13.888 13.838 13.459C13.841 13.155 13.655 13.004 12.975 12.628C12.294 12.251 11.339 11.73 11.352 10.683C11.368 9.34199 12.634 8.44299 14.432 8.44299Z" fill="white"/>
<path d="M44.0025 7.33456C45.5025 8.51456 46.3775 10.3216 46.3765 12.2326C46.3765 14.1436 45.5015 15.9496 44.0015 17.1296C42.5015 15.9486 41.6265 14.1426 41.6275 12.2316C41.6265 10.3196 42.5015 8.51356 44.0015 7.33356M43.2065 6.79956C41.6205 8.15756 40.7085 10.1446 40.7115 12.2346C40.7095 14.3246 41.6205 16.3096 43.2065 17.6666C40.5915 19.1376 37.3025 18.5286 35.3845 16.2186C33.4675 13.9086 33.4675 10.5546 35.3865 8.24556C37.3055 5.93656 40.5945 5.32856 43.2085 6.80056M44.8015 17.6666C46.3865 16.3096 47.2985 14.3236 47.2955 12.2346C47.2975 10.1446 46.3845 8.15856 44.7985 6.80056C47.7735 5.12456 51.5395 6.16456 53.2365 9.13156C54.6295 11.5636 54.2295 14.6276 52.2615 16.6196C50.2935 18.6106 47.2405 19.0396 44.8015 17.6666Z" fill="white"/>
<path d="M207.489 13.157C207.58 13.157 209.702 13.249 210.964 12.937H210.973C212.427 12.58 214.448 11.553 214.969 8.198C214.969 8.198 216.13 4 210.369 4H205.422C204.973 4.002 204.591 4.327 204.516 4.77L202.413 18.117C202.393 18.249 202.431 18.383 202.517 18.485C202.602 18.587 202.728 18.646 202.861 18.648H205.998L206.766 13.772C206.823 13.417 207.13 13.156 207.489 13.157Z" fill="white"/>
<path d="M215.773 8.849C215.033 12.268 212.701 14.074 208.988 14.074H207.644L206.702 20.051C206.684 20.163 206.716 20.278 206.79 20.364C206.864 20.451 206.972 20.5 207.086 20.5H208.823C209.134 20.5 209.409 20.271 209.455 19.959C209.528 19.592 209.93 16.916 210.012 16.458C210.061 16.146 210.329 15.917 210.643 15.917H211.046C213.625 15.917 215.645 14.863 216.24 11.828C216.478 10.6 216.35 9.592 215.773 8.849Z" fill="white"/>
<path d="M242.28 12.3459H228.354V16.9959H242.28V12.3459Z" fill="#84B740"/>
<path d="M242.28 6H228.354V10.655H242.28V6Z" fill="#259BD6"/>
<path d="M256.206 16.051L256.144 16.063C255.929 16.105 255.85 16.122 255.693 16.122C255.329 16.122 254.899 15.935 254.899 15.057C254.899 14.604 254.974 14.004 255.652 14.004H255.656C255.772 14.012 255.904 14.024 256.152 14.099L256.206 14.115V16.051ZM256.317 11.67L256.206 11.691V13.316L256.107 13.287L256.078 13.279C255.966 13.245 255.71 13.171 255.462 13.171C254.106 13.171 253.82 14.199 253.82 15.061C253.82 16.242 254.481 16.922 255.635 16.922C256.123 16.922 256.483 16.872 256.847 16.752C257.182 16.644 257.302 16.491 257.302 16.163V11.5C256.979 11.558 256.644 11.616 256.317 11.67ZM260.237 16.08L260.179 16.097L259.973 16.151C259.778 16.201 259.605 16.229 259.472 16.229C259.154 16.229 258.964 16.072 258.964 15.803C258.964 15.629 259.042 15.334 259.563 15.334H260.237V16.08ZM259.762 13.15C259.344 13.15 258.914 13.224 258.381 13.39L258.033 13.494L258.149 14.281L258.488 14.17C258.844 14.054 259.286 13.979 259.617 13.979C259.766 13.979 260.221 13.979 260.221 14.472V14.688H259.588C258.434 14.688 257.901 15.057 257.901 15.848C257.901 16.524 258.393 16.93 259.22 16.93C259.477 16.93 259.832 16.88 260.138 16.806L260.154 16.801L260.171 16.806L260.274 16.822C260.597 16.88 260.932 16.938 261.258 17V14.414C261.258 13.577 260.754 13.15 259.762 13.15ZM252.203 16.08L252.145 16.097L251.938 16.151C251.744 16.201 251.575 16.229 251.439 16.229C251.12 16.229 250.93 16.072 250.93 15.803C250.93 15.629 251.008 15.334 251.525 15.334H252.199L252.203 16.08ZM251.732 13.15C251.31 13.15 250.884 13.224 250.351 13.39L250.003 13.494L250.119 14.281L250.458 14.17C250.814 14.054 251.256 13.979 251.587 13.979C251.736 13.979 252.191 13.979 252.191 14.472V14.688H251.558C250.405 14.688 249.867 15.057 249.867 15.848C249.867 16.524 250.359 16.93 251.19 16.93C251.447 16.93 251.802 16.88 252.108 16.806L252.125 16.801L252.141 16.806L252.24 16.822C252.567 16.88 252.898 16.938 253.224 17.004V14.418C253.229 13.573 252.724 13.15 251.732 13.15ZM247.849 13.158C247.463 13.163 247.081 13.247 246.729 13.407L246.688 13.427L246.65 13.399C246.427 13.237 246.1 13.154 245.646 13.154C245.244 13.154 244.868 13.212 244.459 13.332C244.108 13.44 243.971 13.61 243.971 13.929V16.884H245.071V14.153L245.125 14.137C245.348 14.062 245.48 14.049 245.608 14.049C245.927 14.049 246.088 14.219 246.088 14.551V16.888H247.171V14.505C247.171 14.364 247.143 14.281 247.138 14.265L247.101 14.194L247.175 14.161C247.345 14.086 247.528 14.048 247.713 14.049C247.932 14.049 248.193 14.136 248.193 14.551V16.888H249.272V14.443C249.272 13.577 248.809 13.158 247.849 13.158ZM259.427 9.034C259.212 9.033 258.997 9.014 258.786 8.976L258.724 8.964V7.368C258.725 7.291 258.716 7.214 258.695 7.14L258.662 7.074L258.732 7.045C258.749 7.037 258.765 7.033 258.786 7.024L258.798 7.016L258.873 6.991C258.885 6.987 258.893 6.983 258.901 6.983C259.146 6.916 259.369 6.925 259.468 6.916H259.472C260.146 6.916 260.225 7.517 260.225 7.969C260.221 8.848 259.786 9.034 259.427 9.034ZM259.422 6H259.394C258.761 6 258.112 6.174 257.88 6.514C257.756 6.68 257.686 6.887 257.682 7.132V8.778C257.682 8.918 257.653 8.972 257.649 8.985L257.611 9.055H255.615V7.911H255.61C255.585 6.705 254.874 6.042 253.845 6.042H252.84C252.799 6.336 252.766 6.543 252.724 6.838H253.725C254.25 6.838 254.527 7.285 254.527 7.973V9.126L254.457 9.088C254.38 9.065 254.301 9.054 254.221 9.055H252.493C252.459 9.275 252.418 9.56 252.373 9.847H257.686C257.868 9.809 258.079 9.776 258.26 9.747C258.53 9.88 259.03 9.95 259.373 9.95C260.526 9.95 261.275 9.175 261.275 7.982C261.271 6.8 260.547 6.025 259.422 6ZM250.107 10.331H250.157C251.31 10.331 251.848 9.95 251.848 9.009C251.848 8.334 251.356 7.795 250.529 7.795H249.466C249.148 7.795 248.958 7.613 248.958 7.306C248.958 7.099 249.036 6.842 249.557 6.842H251.881C251.93 6.539 251.955 6.349 252.001 6.046H249.586C248.461 6.046 247.895 6.519 247.895 7.306C247.895 8.085 248.387 8.492 249.214 8.492H250.277C250.595 8.492 250.785 8.744 250.785 9.009C250.785 9.183 250.707 9.544 250.19 9.544H250.012L246.609 9.536H245.989C245.464 9.536 245.096 9.237 245.096 8.545V8.069C245.096 7.348 245.381 6.899 245.989 6.899H246.998C247.043 6.593 247.072 6.398 247.114 6.108H245.737C244.707 6.108 243.996 6.8 243.971 8.006V8.545C243.996 9.751 244.707 10.327 245.737 10.327H246.741L248.585 10.331H250.107Z" fill="white"/>
<path d="M96.7879 22.998H68.2569C67.6749 22.999 67.1159 22.767 66.7049 22.354C66.2929 21.942 66.0619 21.382 66.0619 20.798V11.544H67.6429L67.9999 10.678H68.7979L69.1539 11.54H72.2649V10.885L72.5429 11.545H74.1579L74.4359 10.874V11.543H82.1659V10.128H82.3119C82.4159 10.131 82.4469 10.14 82.4469 10.315V11.545H86.4459V11.215C86.8809 11.434 87.3609 11.547 87.8479 11.545H87.9339H87.9299H89.6119L89.9729 10.683H90.7709L91.1229 11.545H94.3659V10.725L94.8559 11.545H97.4499V6.133H94.8829V6.772L94.5229 6.133H91.8839V6.772L91.5539 6.133H87.9899C87.4499 6.105 86.9119 6.216 86.4279 6.456L86.4469 6.448V6.133H83.9889V6.448C83.6909 6.213 83.3149 6.1 82.9369 6.134H82.9429H73.9599L73.3579 7.531L72.7379 6.134H69.9089V6.773L69.5969 6.133H67.1829L66.0649 8.7V3.2C66.0649 1.985 67.0479 1 68.2599 1H96.7909C98.0029 1 98.9859 1.985 98.9859 3.2V12.807H97.2729C97.2459 12.805 97.2129 12.805 97.1809 12.805C96.7839 12.805 96.4149 12.924 96.1079 13.129L96.1149 13.124V12.807H93.5819C93.1869 12.785 92.7949 12.898 92.4709 13.127L92.4759 13.123V12.806H87.9539V13.123C87.5829 12.914 87.1649 12.804 86.7399 12.806H86.7039H86.7059H83.7219V13.123C83.3319 12.873 82.8699 12.762 82.4089 12.807L82.4169 12.806H79.0789L78.3139 13.635L77.5989 12.806H72.6119V18.222H77.5059L78.2929 17.38L79.0349 18.222H82.0509V16.954H82.4719C82.8769 16.97 83.2799 16.902 83.6569 16.755L83.6369 16.762V18.224H86.1249V16.813H86.2449C86.3959 16.813 86.4119 16.818 86.4119 16.972V18.224H93.9709L94.0629 18.226C94.4969 18.226 94.9009 18.096 95.2369 17.873L95.2289 17.878V18.224H97.6269L97.7409 18.226C98.1759 18.227 98.6059 18.138 99.0049 17.966L98.9839 17.974V20.799C98.9829 22.014 98.0009 22.999 96.7889 22.999L96.7879 22.998ZM85.3619 17.463H84.4309V13.581H86.5669C86.9529 13.545 87.3419 13.61 87.6949 13.769L87.6799 13.764C87.9739 13.924 88.1569 14.232 88.1579 14.567L88.1559 14.628V14.626V14.66C88.1569 15.093 87.9009 15.484 87.5049 15.656L87.4969 15.659C87.6809 15.725 87.8349 15.837 87.9489 15.983L87.9509 15.985C88.0799 16.199 88.1339 16.451 88.1039 16.699L88.1049 16.694V17.462H87.1759V16.976C87.2199 16.711 87.1669 16.44 87.0269 16.211L87.0299 16.216C86.8349 16.067 86.5879 16.006 86.3459 16.045L86.3519 16.044H85.3619V17.463ZM85.3619 14.383V15.254H86.4869C86.6459 15.269 86.8049 15.24 86.9489 15.172L86.9439 15.175C87.0639 15.097 87.1359 14.964 87.1359 14.822L87.1349 14.801C87.1439 14.658 87.0699 14.523 86.9459 14.453L86.9439 14.452C86.8049 14.39 86.6529 14.365 86.5019 14.379H86.5049L85.3619 14.383ZM77.1089 17.462H73.4439V13.581H77.1669L78.3049 14.853L79.4819 13.581H82.4379C83.4879 13.581 83.9989 14 83.9989 14.859C83.9989 15.735 83.4709 16.16 82.3889 16.16H81.2319V17.461H79.4329L78.2939 16.178L77.1089 17.462ZM80.3099 13.997L78.8889 15.528L80.3099 17.108V13.997ZM74.3669 15.881V16.652H76.6419L77.6939 15.514L76.6829 14.383H74.3659V15.089H76.3979V15.879L74.3669 15.881ZM81.2319 14.383V15.372H82.4269C82.7929 15.372 83.0029 15.185 83.0029 14.858C83.0029 14.547 82.8079 14.383 82.4379 14.383H81.2319ZM97.7279 17.463H95.9399V16.629H97.7199C97.8529 16.648 97.9889 16.613 98.0959 16.532L98.0949 16.533C98.1649 16.469 98.2039 16.378 98.2039 16.283V16.268C98.2039 16.174 98.1629 16.085 98.0909 16.024C97.9969 15.956 97.8799 15.925 97.7639 15.938H97.7659L97.5949 15.933C96.7589 15.911 95.8119 15.885 95.8119 14.737C95.8119 14.177 96.1619 13.581 97.1389 13.581H98.9839V14.407H97.2969C97.1659 14.393 97.0349 14.419 96.9199 14.482L96.9239 14.481C96.8319 14.542 96.7809 14.648 96.7889 14.758V14.757V14.767C96.7889 14.893 96.8699 15.006 96.9899 15.045L96.9919 15.046C97.1079 15.082 97.2299 15.097 97.3509 15.09H97.3479L97.8499 15.103C98.2279 15.065 98.6059 15.178 98.9029 15.417L98.8999 15.416C98.9269 15.438 98.9509 15.462 98.9719 15.488L98.9729 15.489L98.9839 16.967C98.6719 17.333 98.1979 17.519 97.7209 17.463H97.7279ZM94.1159 17.463H92.3129V16.629H94.1069C94.2409 16.647 94.3769 16.612 94.4869 16.532L94.4849 16.533C94.5529 16.468 94.5929 16.378 94.5929 16.283V16.274C94.5929 16.178 94.5519 16.087 94.4799 16.024C94.3839 15.956 94.2659 15.925 94.1479 15.938H94.1499L93.9799 15.933C93.1469 15.911 92.2009 15.885 92.2009 14.737C92.2009 14.177 92.5489 13.581 93.5249 13.581H95.3789V14.407H93.6819C93.5519 14.393 93.4219 14.419 93.3079 14.482L93.3119 14.481C93.2389 14.531 93.1889 14.608 93.1749 14.695C93.1609 14.783 93.1829 14.872 93.2359 14.943C93.2709 14.99 93.3179 15.026 93.3719 15.048L93.3739 15.049C93.4909 15.085 93.6139 15.1 93.7369 15.093H93.7339L94.2319 15.106C94.6129 15.069 94.9929 15.182 95.2909 15.421L95.2889 15.419C95.4919 15.643 95.5919 15.942 95.5649 16.244V16.24C95.5669 17.049 95.0779 17.462 94.1139 17.462L94.1159 17.464V17.463ZM91.7589 17.463H88.6679V13.58H91.7559V14.382H89.5909V15.088H91.7049V15.879H89.5909V16.651L91.7589 16.654V17.463ZM93.5599 10.785H91.6749L91.3149 9.919H89.3929L89.0439 10.785H87.9609C87.4749 10.81 86.9959 10.657 86.6149 10.353L86.6189 10.356C86.2529 9.951 86.0739 9.41 86.1259 8.866L86.1249 8.874C86.0769 8.32 86.2579 7.771 86.6259 7.355L86.6239 7.356C87.0119 7.016 87.5239 6.853 88.0369 6.905H88.0289H88.9259V7.732H88.0479C87.7879 7.699 87.5259 7.783 87.3339 7.962L87.3359 7.961C87.1399 8.212 87.0449 8.528 87.0689 8.845V8.841C87.0399 9.166 87.1309 9.492 87.3259 9.755L87.3229 9.752C87.5049 9.901 87.7379 9.972 87.9719 9.951H87.9679H88.3829L89.6919 6.899H91.0819L92.6479 10.566V6.899H94.0579L95.6839 9.601V6.899H96.6349V10.778H95.3139L93.5579 7.865V10.778L93.5599 10.785ZM90.3609 7.56L89.7229 9.107H91.0009L90.3609 7.56ZM81.3999 10.783H80.4739V6.902H82.6029C82.9919 6.861 83.3839 6.927 83.7379 7.093L83.7239 7.088C84.0139 7.248 84.1949 7.554 84.1939 7.886L84.1929 7.95V7.948V7.976C84.1929 8.409 83.9399 8.801 83.5469 8.979L83.5389 8.982C83.7229 9.051 83.8779 9.163 83.9959 9.306L83.9969 9.308C84.1279 9.523 84.1819 9.776 84.1499 10.026L84.1509 10.02V10.782H83.2179L83.2139 10.293V10.219C83.2469 9.98 83.1939 9.737 83.0649 9.533L83.0679 9.537C82.8719 9.393 82.6269 9.333 82.3869 9.371L82.3929 9.37H81.3999V10.782V10.783ZM81.3999 7.709V8.571H82.5229C82.6809 8.588 82.8419 8.559 82.9839 8.489L82.9799 8.49C83.0989 8.417 83.1709 8.288 83.1719 8.148L83.1709 8.123C83.1809 7.981 83.1039 7.846 82.9779 7.782L82.9759 7.781C82.8369 7.721 82.6849 7.696 82.5339 7.708H82.5369L81.3999 7.709ZM71.5999 10.783H69.7199L69.3639 9.918H67.4369L67.0779 10.783H66.0719L67.7299 6.902H69.1049L70.6779 10.575V6.902H72.1879L73.3989 9.534L74.5119 6.902H76.0529V10.781H75.1009L75.0999 7.745L73.7579 10.782H72.9459L71.6009 7.741V10.782L71.5999 10.783ZM68.3959 7.56L67.7659 9.107H69.0289L68.3959 7.56ZM85.6679 10.782H84.7249V6.902H85.6689V10.781L85.6679 10.782ZM79.8279 10.782H76.7429V6.902H79.8339V7.708H77.6679V8.408H79.7819V9.204H77.6659V9.98H79.8319V10.781L79.8279 10.782Z" fill="white"/>
<path d="M111.059 20.598L115.114 3.068C115.378 1.928 116.516 1 117.634 1H126.342C126.892 1 127.322 1.224 127.586 1.572C127.85 1.921 127.962 2.414 127.832 2.976L123.778 20.505C123.512 21.642 122.373 22.571 121.256 22.571H112.549C112 22.571 111.569 22.347 111.305 21.999C111.04 21.65 110.929 21.158 111.059 20.598Z" fill="white" stroke="#1F3042" stroke-width="0.63" stroke-miterlimit="10"/>
<path d="M135.814 2.976L131.761 20.505C131.708 20.734 131.667 20.956 131.63 21.161C131.616 21.236 131.603 21.308 131.59 21.377C131.539 21.642 131.488 21.864 131.414 22.044C131.341 22.221 131.251 22.347 131.127 22.43C131.002 22.514 130.822 22.571 130.545 22.571H120.531C119.98 22.571 119.549 22.347 119.287 21.999C119.023 21.65 118.913 21.159 119.043 20.598H119.044L123.097 3.069C123.365 1.927 124.501 1 125.617 1H135.631C135.915 1 136.043 1.059 136.101 1.117C136.156 1.17 136.191 1.262 136.182 1.438C136.173 1.615 136.121 1.836 136.049 2.102L135.987 2.325C135.924 2.541 135.867 2.758 135.814 2.976Z" fill="white" stroke="#1F3042" stroke-width="0.63" stroke-miterlimit="10"/>
<path d="M145.432 2.976L141.378 20.505C141.112 21.642 139.973 22.571 138.855 22.571H130.151C129.6 22.571 129.169 22.347 128.905 21.999C128.64 21.65 128.53 21.158 128.66 20.598L132.715 3.068C132.978 1.928 134.115 1 135.234 1H143.942C144.493 1 144.924 1.224 145.188 1.572C145.452 1.921 145.562 2.413 145.432 2.976Z" fill="white" stroke="#1F3042" stroke-width="0.63" stroke-miterlimit="10"/>
<path d="M119.908 6.41406C119.012 6.42306 118.748 6.41406 118.663 6.39406C118.631 6.54906 118.027 9.35606 118.025 9.35906C117.894 9.92706 117.8 10.3321 117.478 10.5931C117.296 10.7451 117.083 10.8191 116.836 10.8191C116.439 10.8191 116.207 10.6201 116.168 10.2431L116.161 10.1141C116.161 10.1141 116.282 9.35306 116.282 9.34906C116.282 9.34906 116.916 6.79006 117.03 6.45206C117.036 6.43306 117.037 6.42306 117.039 6.41406C115.805 6.42506 115.586 6.41406 115.57 6.39406C115.562 6.42106 115.531 6.58006 115.531 6.58006L114.884 9.46306L114.828 9.70806L114.721 10.5081C114.721 10.7451 114.767 10.9391 114.859 11.1021C115.154 11.6221 115.996 11.6991 116.472 11.6991C117.085 11.6991 117.661 11.5681 118.05 11.3291C118.724 10.9271 118.901 10.2991 119.058 9.74106L119.132 9.45506C119.132 9.45506 119.785 6.79806 119.896 6.45206C119.9 6.43306 119.902 6.42306 119.908 6.41406ZM122.13 8.55706C121.887 8.56206 121.647 8.61906 121.427 8.72406C121.333 8.77206 121.244 8.82806 121.15 8.88406L121.235 8.57706L121.189 8.52506C120.64 8.63706 120.518 8.65206 120.011 8.72406L119.969 8.75206C119.91 9.24306 119.858 9.61206 119.64 10.5771C119.556 10.9341 119.471 11.2901 119.384 11.6471L119.408 11.6921C119.783 11.6681 120.159 11.6611 120.535 11.6721L120.572 11.6321C120.629 11.3361 120.636 11.2671 120.763 10.6681C120.823 10.3841 120.948 9.76006 121.009 9.53806C121.122 9.48606 121.233 9.43406 121.339 9.43406C121.592 9.43406 121.561 9.65606 121.551 9.74506C121.54 9.89306 121.448 10.3791 121.354 10.7951L121.291 11.0641C121.247 11.2631 121.198 11.4551 121.154 11.6521L121.174 11.6921C121.541 11.6681 121.91 11.6621 122.278 11.6721L122.329 11.6321C122.408 11.1701 122.431 11.0471 122.572 10.3741L122.642 10.0661C122.779 9.46106 122.848 9.15406 122.744 8.90506C122.635 8.62506 122.372 8.55706 122.13 8.55706ZM124.614 9.19006C124.342 9.24306 124.169 9.27806 123.996 9.30106C123.796 9.33306 123.596 9.36206 123.396 9.39006L123.375 9.40906L123.356 9.42406C123.328 9.62106 123.309 9.79106 123.273 9.99206C123.231 10.2541 123.18 10.5141 123.118 10.7721C123.059 11.0311 123.028 11.1221 122.994 11.2121C122.961 11.3041 122.924 11.3921 122.857 11.6471L122.873 11.6701L122.886 11.6921C123.131 11.6801 123.292 11.6721 123.457 11.6701C123.622 11.6641 123.793 11.6701 124.058 11.6721L124.081 11.6531L124.106 11.6321C124.144 11.4021 124.149 11.3401 124.173 11.2281C124.196 11.1081 124.236 10.9421 124.334 10.4981C124.38 10.2891 124.432 10.0811 124.479 9.86806C124.529 9.65706 124.582 9.44806 124.631 9.23906L124.624 9.21406L124.614 9.19006ZM124.62 8.33706C124.373 8.19106 123.939 8.23706 123.647 8.44006C123.356 8.63906 123.323 8.92106 123.569 9.07006C123.812 9.21206 124.247 9.17006 124.536 8.96506C124.827 8.76206 124.863 8.48306 124.62 8.33706ZM126.114 11.7381C126.614 11.7381 127.126 11.6001 127.511 11.1881C127.808 10.8541 127.944 10.3571 127.991 10.1531C128.145 9.47406 128.026 9.15806 127.876 8.96506C127.648 8.67106 127.244 8.57706 126.827 8.57706C126.575 8.57706 125.977 8.60206 125.509 9.03606C125.173 9.34906 125.018 9.77406 124.925 10.1821C124.83 10.5971 124.722 11.3441 125.404 11.6221C125.615 11.7131 125.918 11.7381 126.114 11.7381ZM126.075 10.2131C126.19 9.69906 126.326 9.26806 126.673 9.26806C126.945 9.26806 126.965 9.58906 126.844 10.1041C126.823 10.2181 126.723 10.6441 126.589 10.8251C126.495 10.9581 126.384 11.0391 126.261 11.0391C126.225 11.0391 126.008 11.0391 126.004 10.7151C126.002 10.5541 126.035 10.3901 126.075 10.2131ZM129.241 11.6721L129.28 11.6321C129.336 11.3371 129.344 11.2671 129.467 10.6691C129.529 10.3851 129.656 9.76106 129.715 9.53906C129.828 9.48606 129.937 9.43506 130.047 9.43506C130.298 9.43506 130.268 9.65706 130.258 9.74506C130.248 9.89406 130.156 10.3791 130.06 10.7951L130 11.0641C129.955 11.2631 129.905 11.4561 129.861 11.6531L129.88 11.6921C130.247 11.6691 130.615 11.6621 130.983 11.6721L131.036 11.6321C131.113 11.1701 131.134 11.0471 131.278 10.3751L131.347 10.0661C131.485 9.46106 131.554 9.15506 131.452 8.90506C131.34 8.62506 131.075 8.55806 130.837 8.55806C130.68 8.55806 130.39 8.59606 130.133 8.72406C130.04 8.77406 129.948 8.82806 129.859 8.88406L129.937 8.57706L129.895 8.52506C129.347 8.63706 129.222 8.65206 128.716 8.72406L128.677 8.75306C128.616 9.24306 128.566 9.61206 128.348 10.5781C128.265 10.9351 128.18 11.2911 128.093 11.6471L128.116 11.6921C128.49 11.6691 128.866 11.6621 129.241 11.6721ZM133.012 11.6921C133.044 11.5341 133.236 10.5941 133.237 10.5941C133.237 10.5941 133.401 9.90406 133.411 9.87906C133.411 9.87906 133.462 9.80706 133.513 9.77806H133.589C134.302 9.77806 135.107 9.77806 135.738 9.31106C136.167 8.99006 136.461 8.51706 136.592 7.94106C136.63 7.78506 136.65 7.62506 136.651 7.46506C136.651 7.24506 136.607 7.02606 136.48 6.85606C136.158 6.40306 135.517 6.39406 134.778 6.39106L134.413 6.39406C133.466 6.40606 133.087 6.40306 132.93 6.38306C132.917 6.45306 132.893 6.57706 132.893 6.57706C132.893 6.57706 132.553 8.16006 132.553 8.16206L131.703 11.6861C132.53 11.6771 132.869 11.6771 133.012 11.6921ZM133.64 8.88006L133.999 7.30606L134.011 7.22506L134.016 7.16406L134.16 7.17806L134.921 7.24406C135.215 7.35806 135.336 7.65406 135.251 8.03806C135.174 8.39006 134.948 8.68606 134.657 8.82806C134.417 8.94906 134.124 8.96006 133.821 8.96006H133.625L133.64 8.88006ZM135.886 10.2421C135.79 10.6511 135.681 11.3981 136.36 11.6651C136.576 11.7581 136.77 11.7851 136.968 11.7751C137.176 11.7641 137.369 11.6591 137.548 11.5071L137.499 11.6941L137.53 11.7341C138.018 11.7141 138.17 11.7141 138.699 11.7181L138.747 11.6811C138.824 11.2231 138.897 10.7791 139.098 9.90406C139.196 9.48406 139.293 9.07006 139.394 8.65206L139.378 8.60606C138.831 8.70806 138.686 8.73006 138.16 8.80506L138.12 8.83706L138.104 8.96206C138.016 8.81606 137.881 8.70406 137.721 8.64506C137.487 8.55206 136.939 8.67106 136.467 9.10406C136.135 9.41306 135.976 9.83606 135.886 10.2421ZM137.033 10.2671C137.15 9.76306 137.284 9.33606 137.632 9.33606C137.852 9.33606 137.969 9.54006 137.945 9.88906C137.925 9.98406 137.904 10.0781 137.882 10.1721C137.847 10.3221 137.81 10.4701 137.773 10.6191C137.735 10.7211 137.692 10.8171 137.644 10.8811C137.554 11.0081 137.341 11.0881 137.219 11.0881C137.184 11.0881 136.969 11.0881 136.962 10.7691C136.96 10.6101 136.992 10.4471 137.033 10.2671ZM143.025 8.60206L142.983 8.55306C142.442 8.66306 142.344 8.68106 141.848 8.74906L141.811 8.78606C141.809 8.79206 141.808 8.80106 141.805 8.80906L141.804 8.80106C141.434 9.66006 141.445 9.47406 141.144 10.1511C141.142 10.1201 141.142 10.1011 141.14 10.0681L141.065 8.60206L141.018 8.55306C140.451 8.66306 140.438 8.68106 139.915 8.74906L139.874 8.78606C139.869 8.80306 139.869 8.82206 139.865 8.84306L139.869 8.85106C139.934 9.18706 139.918 9.11206 139.984 9.64306C140.015 9.90406 140.055 10.1661 140.086 10.4231C140.137 10.8541 140.166 11.0661 140.229 11.7231C139.876 12.3101 139.792 12.5321 139.452 13.0471L139.455 13.0521L139.215 13.4341C139.188 13.4741 139.163 13.5011 139.128 13.5131C139.09 13.5321 139.04 13.5361 138.971 13.5361H138.839L138.642 14.1961L139.318 14.2081C139.715 14.2061 139.965 14.0191 140.099 13.7681L140.525 13.0341H140.518L140.562 12.9821C140.849 12.3621 143.025 8.60206 143.025 8.60206ZM135.886 17.2761H135.599L136.661 13.7381H137.013L137.125 13.3741L137.136 13.7791C137.122 14.0301 137.318 14.2521 137.832 14.2151H138.427L138.631 13.5341H138.408C138.279 13.5341 138.219 13.5011 138.227 13.4311L138.216 13.0191H137.115V13.0211C136.759 13.0281 135.696 13.0551 135.481 13.1131C135.221 13.1801 134.946 13.3791 134.946 13.3791L135.054 13.0141H134.024L133.81 13.7381L132.733 17.3301H132.524L132.32 18.0061H134.371L134.302 18.2321H135.313L135.38 18.0061H135.663L135.886 17.2761ZM135.044 14.4571C134.879 14.5031 134.572 14.6421 134.572 14.6421L134.845 13.7381H135.663L135.466 14.3971C135.466 14.3971 135.213 14.4121 135.044 14.4571ZM135.06 15.7491C135.06 15.7491 134.803 15.7811 134.634 15.8201C134.467 15.8711 134.155 16.0311 134.155 16.0311L134.437 15.0901H135.259L135.06 15.7491ZM134.601 17.2841H133.781L134.018 16.4901H134.837L134.601 17.2841ZM136.578 15.0901H137.761L137.591 15.6441H136.392L136.212 16.2501H137.261L136.467 17.3771C136.43 17.4391 136.373 17.4861 136.306 17.5121C136.251 17.5411 136.177 17.5741 136.093 17.5741H135.802L135.602 18.2381H136.363C136.759 18.2381 136.993 18.0571 137.165 17.8191L137.71 17.0681L137.827 17.8301C137.847 17.9431 137.92 18.0391 138.022 18.0891C138.099 18.1281 138.177 18.1941 138.288 18.2031C138.408 18.2081 138.494 18.2131 138.551 18.2131H138.925L139.15 17.4701H139.003C138.918 17.4701 138.772 17.4561 138.747 17.4291C138.722 17.3961 138.722 17.3461 138.709 17.2701L138.59 16.5061H138.104L138.317 16.2501H139.514L139.698 15.6451H138.59L138.763 15.0901H139.867L140.072 14.4061H136.779L136.578 15.0901ZM126.586 17.4391L126.862 16.5141H127.997L128.204 15.8261H127.068L127.241 15.2561H128.352L128.557 14.5901H125.78L125.578 15.2561H126.209L126.041 15.8261H125.408L125.198 16.5251H125.829L125.461 17.7491C125.411 17.9111 125.485 17.9731 125.531 18.0481C125.578 18.1221 125.626 18.1711 125.734 18.1981C125.845 18.2231 125.922 18.2381 126.025 18.2381H127.305L127.533 17.4761L126.965 17.5541C126.856 17.5541 126.552 17.5411 126.586 17.4391ZM126.716 13.0101L126.428 13.5331C126.367 13.6481 126.311 13.7191 126.261 13.7511C126.217 13.7791 126.13 13.7911 126.004 13.7911H125.854L125.654 14.4601H126.152C126.392 14.4601 126.575 14.3721 126.664 14.3281C126.758 14.2771 126.783 14.3061 126.856 14.2351L127.024 14.0881H128.58L128.787 13.3911H127.648L127.847 13.0101H126.716ZM129.013 17.4521C128.987 17.4141 129.006 17.3461 129.046 17.2051L129.472 15.7871H130.985C131.206 15.7841 131.364 15.7811 131.468 15.7741C131.579 15.7621 131.7 15.7221 131.832 15.6501C131.968 15.5751 132.038 15.4961 132.096 15.4051C132.162 15.3141 132.268 15.1151 132.358 14.8091L132.893 13.0141L131.323 13.0231C131.323 13.0231 130.839 13.0951 130.626 13.1751C130.411 13.2631 130.104 13.5101 130.104 13.5101L130.246 13.0191H129.276L127.918 17.5541C127.87 17.7301 127.837 17.8581 127.83 17.9351C127.828 18.0171 127.934 18.0991 128.002 18.1611C128.084 18.2231 128.204 18.2131 128.319 18.2231C128.441 18.2321 128.613 18.2381 128.851 18.2381H129.596L129.825 17.4601L129.158 17.5231C129.101 17.5241 129.047 17.4981 129.013 17.4521ZM129.746 14.8291H131.335L131.234 15.1481C131.22 15.1561 131.186 15.1331 131.024 15.1521H129.648L129.746 14.8291ZM130.065 13.7601H131.667L131.552 14.1441C131.552 14.1441 130.797 14.1361 130.676 14.1591C130.143 14.2521 129.832 14.5381 129.832 14.5381L130.065 13.7601ZM131.27 16.2171C131.261 16.2561 131.239 16.2901 131.207 16.3151C131.175 16.3361 131.122 16.3431 131.045 16.3431H130.818L130.832 15.9551H129.89L129.851 17.8541C129.85 17.9911 129.863 18.0701 129.963 18.1341C130.062 18.2131 130.369 18.2231 130.782 18.2231H131.372L131.585 17.5121L131.071 17.5411L130.9 17.5511C130.877 17.5401 130.855 17.5311 130.83 17.5071C130.808 17.4851 130.771 17.4981 130.778 17.3611L130.782 16.8741L131.321 16.8521C131.612 16.8521 131.736 16.7561 131.842 16.6661C131.943 16.5791 131.977 16.4791 132.015 16.3431L132.105 15.9121H131.364L131.27 16.2171Z" fill="#1F3042"/>
<path d="M188.213 23H159.682C159.1 23 158.541 22.769 158.13 22.356C157.718 21.943 157.487 21.384 157.487 20.8V3.2C157.487 1.985 158.47 1 159.682 1H188.213C188.795 1 189.354 1.231 189.765 1.644C190.177 2.057 190.408 2.616 190.408 3.2V20.8C190.408 22.015 189.425 23 188.213 23ZM182.903 16.482V17.5C183.048 17.52 183.216 17.532 183.386 17.532H183.4C184.675 17.532 185.28 17.035 185.801 15.564L188.1 9.102H186.77L185.228 14.094H185.201L183.659 9.101H182.291L184.509 15.255L184.39 15.629C184.306 16.166 183.825 16.549 183.284 16.509H183.288C183.16 16.504 183.031 16.495 182.903 16.482ZM162.711 8.383H162.688C161.904 8.404 161.19 8.836 160.806 9.521L160.8 9.532C160.028 10.863 160.519 12.899 161.373 14.139C161.774 14.726 162.213 15.3 162.792 15.3H162.823C163.056 15.286 163.283 15.224 163.492 15.12L163.481 15.124C163.725 15.001 164.013 14.928 164.316 14.926C164.6 14.927 164.879 14.995 165.132 15.124L165.122 15.12C165.331 15.227 165.561 15.285 165.796 15.29H165.823C166.467 15.278 166.872 14.685 167.229 14.163C167.493 13.777 167.7 13.355 167.843 12.91L167.853 12.876V12.866L167.837 12.859C167.108 12.531 166.637 11.807 166.632 11.006C166.638 10.302 167.002 9.65 167.597 9.276L167.605 9.271L167.621 9.26C167.24 8.706 166.619 8.367 165.948 8.349H165.848C165.456 8.369 165.071 8.464 164.715 8.63L164.734 8.622C164.566 8.704 164.386 8.757 164.201 8.779L164.193 8.78C163.994 8.759 163.8 8.703 163.62 8.614L163.63 8.618C163.344 8.481 163.035 8.401 162.719 8.381H162.711V8.383ZM179.275 10.047C180.08 10.047 180.524 10.425 180.524 11.11V11.576L178.891 11.674C177.36 11.766 176.55 12.389 176.55 13.473C176.556 14.001 176.785 14.501 177.181 14.849C177.578 15.196 178.103 15.358 178.625 15.293L178.616 15.294L178.675 15.296C179.443 15.296 180.153 14.889 180.542 14.226L180.547 14.215H180.575V15.226H181.786V11.022C181.786 9.803 180.816 9.016 179.314 9.016C177.93 9.016 176.9 9.812 176.859 10.907H178.039C178.181 10.35 178.711 9.982 179.282 10.046H179.276L179.275 10.048V10.047ZM170.29 6.779V15.227H171.598V12.337H173.406C174.16 12.378 174.895 12.098 175.432 11.566C175.968 11.034 176.256 10.301 176.225 9.545V9.551C176.257 8.803 175.975 8.077 175.445 7.549C174.916 7.022 174.19 6.742 173.445 6.779H173.451H170.29ZM165.949 6.133C165.426 6.183 164.942 6.432 164.598 6.83L164.596 6.833C164.25 7.221 164.075 7.734 164.111 8.253V8.248C164.142 8.248 164.174 8.252 164.211 8.252C164.704 8.225 165.162 7.99 165.471 7.604L165.474 7.6C165.819 7.19 165.99 6.661 165.949 6.126V6.133ZM178.967 14.292C178.274 14.292 177.825 13.958 177.825 13.441C177.825 12.907 178.254 12.601 179.069 12.552L180.523 12.46V12.938C180.506 13.329 180.329 13.697 180.034 13.953C179.738 14.21 179.349 14.332 178.96 14.292H178.967ZM173.098 11.24H171.595V7.884H173.103C173.574 7.82 174.049 7.971 174.395 8.298C174.741 8.624 174.922 9.089 174.888 9.564V9.558C174.921 10.035 174.738 10.503 174.389 10.829C174.039 11.156 173.561 11.306 173.089 11.238L173.098 11.24Z" fill="white"/>
</svg>
