<svg width="684" height="54" fill="none" xmlns="http://www.w3.org/2000/svg"><g clip-path="url(#a)"><path d="m50 35.478-.507-2.531h-5.656l-.9 2.513-4.534.009c2.914-7.004 5.078-12.19 6.489-15.563.369-.882 1.024-1.332 1.989-1.325.738.006 1.942.006 3.614.002L54 35.47l-4 .007Zm-4.892-5.998h3.647l-1.361-6.346-2.286 6.346ZM15.89 18.578l4.558.005-7.047 16.897-4.615-.004c-1.16-4.463-2.306-8.93-3.438-13.401-.225-.891-.67-1.514-1.527-1.81A142.395 142.395 0 0 0 0 19.049v-.466h7.283c1.26 0 1.996.61 2.232 1.86.239 1.254.837 4.447 1.8 9.572l4.575-11.437Zm10.822.005L23.11 35.478l-4.34-.007 3.595-16.893 4.347.005Zm8.798-.313c1.298 0 2.934.405 3.874.779l-.76 3.5c-.851-.341-2.25-.803-3.427-.787-1.71.03-2.768.747-2.768 1.436 0 1.12 1.836 1.685 3.726 2.909 2.156 1.395 2.441 2.648 2.414 4.012-.029 2.823-2.414 5.611-7.445 5.611-2.295-.034-3.123-.225-4.995-.891l.792-3.654c1.906.797 2.714 1.05 4.343 1.05 1.491 0 2.772-.602 2.783-1.653.009-.747-.45-1.118-2.124-2.04-1.674-.926-4.023-2.204-3.991-4.775.038-3.29 3.154-5.497 7.578-5.497Z" fill="#fff"/></g><path d="M97.002 14.972a15.27 15.27 0 0 1 5.841 12.024A15.274 15.274 0 0 1 97 39.014a15.268 15.268 0 0 1-5.84-12.022A15.267 15.267 0 0 1 97 14.97m-1.957-1.31A17.512 17.512 0 0 0 88.905 27a17.511 17.511 0 0 0 6.138 13.334 15.295 15.295 0 1 1 .006-26.672m3.92 26.672A17.512 17.512 0 0 0 105.105 27a17.523 17.523 0 0 0-6.143-13.338 15.293 15.293 0 0 1 20.761 5.722 15.295 15.295 0 0 1-20.754 20.95Z" fill="#fff"/><g clip-path="url(#b)"><path d="M215.6 54h-70.2a5.398 5.398 0 0 1-5.4-5.4V25.884h3.89l.878-2.124h1.964l.875 2.115h7.655v-1.609l.684 1.62h3.973l.684-1.647v1.643h19.02v-3.474h.36c.256.009.33.031.33.459v3.02h9.84v-.809a7.633 7.633 0 0 0 3.449.81l.213-.002h-.011 4.14l.887-2.115h1.964l.866 2.115h7.979v-2.011l1.206 2.011h6.381V12.602h-6.316v1.569l-.884-1.569h-6.494v1.569l-.812-1.569h-8.768a7.804 7.804 0 0 0-3.845.794l.047-.02v-.774h-6.048v.774a3.661 3.661 0 0 0-2.586-.771h.014-22.102l-1.482 3.43-1.524-3.43h-6.961v1.568l-.768-1.569h-5.94l-2.751 6.3v-13.5a5.402 5.402 0 0 1 5.4-5.4h70.2a5.4 5.4 0 0 1 5.4 5.4v23.58h-4.214c-.068-.004-.149-.004-.228-.004-.976 0-1.883.293-2.639.794l.018-.011v-.779h-6.232a4.325 4.325 0 0 0-2.734.786l.013-.01v-.778h-11.128v.779a6.036 6.036 0 0 0-2.986-.779h-.088.005-7.342v.779a5.068 5.068 0 0 0-3.231-.776l.02-.003h-8.214l-1.881 2.034-1.76-2.034h-12.271v13.293h12.041l1.938-2.065 1.824 2.065h7.423v-3.111h1.035a7.262 7.262 0 0 0 2.916-.489l-.049.018v3.587h6.12v-3.463h.295c.373 0 .411.014.411.392v3.073h18.599l.227.005c1.067 0 2.061-.32 2.889-.867l-.02.011v.851h5.899l.281.005a7.828 7.828 0 0 0 3.11-.64l-.052.02v6.935a5.402 5.402 0 0 1-5.4 5.4L215.6 54Zm-28.114-13.588h-2.29v-9.528h5.256a5.512 5.512 0 0 1 2.774.463l-.036-.014a2.247 2.247 0 0 1 1.175 1.971l-.005.151v-.006l.002.085a2.662 2.662 0 0 1-1.604 2.444l-.018.006c.452.162.83.439 1.112.797l.004.004c.318.526.451 1.143.378 1.753l.002-.013v1.885h-2.286v-1.192a2.727 2.727 0 0 0-.367-1.877l.007.011a2.202 2.202 0 0 0-1.683-.42l.014-.003h-2.435v3.483Zm0-7.56v2.14h2.768a2.18 2.18 0 0 0 1.138-.203l-.013.007a1.026 1.026 0 0 0 .472-.866l-.002-.052a.909.909 0 0 0-.466-.852l-.004-.003a2.173 2.173 0 0 0-1.089-.18h.009l-2.813.01ZM167.18 40.41h-9.016v-9.526h9.158l2.801 3.123 2.896-3.123h7.274c2.583 0 3.839 1.028 3.839 3.138 0 2.149-1.299 3.193-3.96 3.193h-2.847v3.193h-4.426l-2.803-3.148-2.916 3.15Zm7.877-8.505-3.496 3.758 3.496 3.879v-7.637Zm-14.623 4.624v1.894h5.598l2.588-2.794-2.488-2.777h-5.7v1.733h5v1.941l-4.998.003Zm16.891-3.675v2.426h2.941c.9 0 1.417-.459 1.417-1.26 0-.765-.481-1.168-1.392-1.168l-2.966.003Zm40.586 7.56h-4.397v-2.047h4.379c.327.045.66-.04.924-.238l-.002.002a.83.83 0 0 0 .268-.614v-.037a.782.782 0 0 0-.277-.598 1.154 1.154 0 0 0-.805-.212h.004l-.421-.013c-2.056-.054-4.385-.117-4.385-2.936 0-1.373.86-2.837 3.265-2.837h4.538v2.029h-4.151a1.558 1.558 0 0 0-.927.184l.009-.004a.748.748 0 0 0-.331.68v-.003.025a.72.72 0 0 0 .495.684l.005.002c.285.088.584.125.882.108h-.007l1.235.032a3.561 3.561 0 0 1 2.59.771l-.007-.004c.068.054.126.113.178.178l.002.002.027 3.627a3.541 3.541 0 0 1-3.107 1.217l.016.002Zm-8.886 0h-4.436v-2.047h4.414a1.3 1.3 0 0 0 .934-.238l-.005.002a.846.846 0 0 0 .266-.614v-.023a.811.811 0 0 0-.277-.612 1.184 1.184 0 0 0-.817-.212h.005l-.419-.013c-2.05-.054-4.376-.117-4.376-2.936 0-1.373.855-2.837 3.256-2.837h4.563v2.029h-4.176a1.547 1.547 0 0 0-.921.184l.01-.004a.793.793 0 0 0-.186 1.134.794.794 0 0 0 .334.259l.005.002c.289.089.591.125.893.108h-.007l1.226.032a3.622 3.622 0 0 1 2.606.773l-.007-.006a2.665 2.665 0 0 1 .68 2.027v-.011c.006 1.986-1.197 2.999-3.571 2.999l.006.005Zm-5.8 0h-7.605v-9.533h7.598v1.969h-5.326v1.733h5.202v1.941h-5.202v1.895l5.333.009v1.986Zm4.433-16.393h-4.638l-.886-2.124h-4.73l-.859 2.124h-2.664a4.903 4.903 0 0 1-3.312-1.06l.011.007a4.77 4.77 0 0 1-1.215-3.656l-.002.018a4.978 4.978 0 0 1 1.233-3.728l-.005.004a4.58 4.58 0 0 1 3.477-1.107l-.019-.002h2.206v2.032h-2.161a2.164 2.164 0 0 0-1.755.564l.003-.002a3.134 3.134 0 0 0-.655 2.169v-.011c-.072.8.153 1.6.632 2.245l-.007-.009c.448.366 1.02.542 1.596.49h-.009 1.021l3.22-7.492h3.42l3.854 9v-9h3.468l4 6.633v-6.633h2.34v9.522h-3.249l-4.32-7.15v7.15l.005.016Zm-7.873-7.916-1.569 3.799h3.144l-1.575-3.799Zm-22.048 7.912h-2.277V14.49h5.238c.956-.1 1.921.063 2.792.47l-.034-.013a2.233 2.233 0 0 1 1.157 1.96l-.004.157v-.007.07a2.7 2.7 0 0 1-1.589 2.462l-.018.006c.452.171.832.446 1.123.797l.004.004a2.73 2.73 0 0 1 .376 1.762l.002-.014v1.87h-2.297l-.009-1.201v-.18a2.494 2.494 0 0 0-.367-1.685l.007.01a2.237 2.237 0 0 0-1.674-.406l.014-.003h-2.442v3.465l-.002.003Zm0-7.545v2.115h2.763c.39.043.785-.028 1.136-.202l-.011.004a.987.987 0 0 0 .472-.839l-.002-.063a.872.872 0 0 0-.475-.837l-.004-.002a2.305 2.305 0 0 0-1.087-.18h.007l-2.799.004Zm-24.111 7.544H149l-.875-2.123h-4.743l-.882 2.123h-2.475l4.079-9.526h3.382l3.872 9.016V14.49h3.715l2.979 6.46 2.738-6.46h3.791v9.522h-2.34l-.004-7.452-3.301 7.454h-1.998l-3.31-7.465v7.465l-.002.003Zm-7.884-7.91-1.55 3.797h3.109l-1.559-3.797Zm42.498 7.908h-2.322V14.49h2.324v9.522l-.002.002Zm-14.369 0h-7.591V14.49h7.605v1.98h-5.328v1.717h5.2v1.955h-5.205v1.904h5.329v1.966l-.01.002Z" fill="#fff"/></g><g clip-path="url(#c)"><path d="m237.634 48.603 9.979-43.026c.648-2.8 3.448-5.077 6.198-5.077h21.426c1.353 0 2.412.55 3.062 1.404.65.857.924 2.066.604 3.447l-9.975 43.025v.001c-.654 2.79-3.456 5.069-6.204 5.069H241.3c-1.35 0-2.41-.55-3.06-1.404-.652-.856-.925-2.064-.606-3.439Z" fill="#fff" stroke="#1F3042"/><path d="M298.544 5.35v.001l-9.974 43.026c-.13.56-.23 1.106-.322 1.609-.034.183-.066.36-.099.53-.124.651-.249 1.195-.431 1.638-.18.435-.403.742-.708.947-.306.206-.749.345-1.431.345h-24.638c-1.356 0-2.416-.55-3.063-1.404-.649-.855-.92-2.062-.598-3.438h.001l9.972-43.026h.001c.658-2.802 3.453-5.078 6.2-5.078h24.639c.698 0 1.013.146 1.157.287.134.13.22.355.198.789-.023.434-.149.975-.328 1.63l-.152.546a36.34 36.34 0 0 0-.424 1.599Z" fill="#fff" stroke="#1F3042"/><path d="M322.206 5.35v.001l-9.974 43.025c-.653 2.79-3.457 5.07-6.208 5.07h-21.415c-1.356 0-2.417-.55-3.066-1.404-.651-.855-.922-2.063-.601-3.438l9.975-43.027h.001c.647-2.8 3.445-5.077 6.198-5.077h21.425c1.355 0 2.416.55 3.065 1.404.65.856.922 2.065.6 3.447Z" fill="#fff" stroke="#1F3042"/><path d="M259.406 13.789c-2.203.023-2.854 0-3.062-.05-.08.382-1.566 7.272-1.57 7.278-.321 1.394-.553 2.388-1.345 3.03-.449.372-.973.553-1.581.553-.977 0-1.546-.488-1.642-1.412l-.018-.318s.297-1.867.297-1.878c0 0 1.561-6.279 1.84-7.109.015-.047.019-.071.023-.094-3.037.027-3.576 0-3.613-.05-.02.068-.096.458-.096.458l-1.593 7.077-.137.6-.264 1.963c0 .582.113 1.058.34 1.46.726 1.274 2.797 1.465 3.968 1.465 1.509 0 2.925-.322 3.882-.91 1.66-.986 2.095-2.527 2.482-3.896l.18-.703s1.607-6.521 1.881-7.37c.01-.047.014-.071.028-.094Zm5.469 5.26a4.22 4.22 0 0 0-1.731.409c-.231.119-.449.256-.68.393l.208-.754-.114-.127c-1.349.275-1.651.311-2.897.488l-.104.07c-.144 1.204-.273 2.11-.809 4.48-.206.876-.415 1.75-.629 2.625l.057.11a30.97 30.97 0 0 1 2.774-.049l.09-.098c.141-.725.159-.895.472-2.365.147-.697.453-2.228.603-2.773.278-.129.551-.256.812-.256.623 0 .547.545.523.762-.027.365-.253 1.556-.486 2.579l-.155.66c-.108.487-.227.96-.335 1.444l.047.097a29.834 29.834 0 0 1 2.717-.05l.127-.098c.194-1.133.251-1.436.596-3.086l.173-.758c.337-1.484.506-2.237.251-2.85-.269-.686-.916-.852-1.51-.852Zm6.111 1.554c-.67.13-1.096.215-1.52.271a67.6 67.6 0 0 1-1.477.22l-.051.046-.047.037c-.068.484-.115.902-.204 1.394a25.581 25.581 0 0 1-.382 1.916c-.146.635-.222.857-.306 1.08-.081.224-.171.441-.336 1.066l.039.058.032.053c.604-.03 1-.05 1.406-.053.406-.015.826 0 1.477.003l.057-.046.061-.052c.094-.564.108-.715.165-.99.057-.295.155-.703.396-1.793.114-.512.241-1.023.359-1.545.123-.52.251-1.033.373-1.546l-.018-.061-.024-.058ZM271 18.51c-.608-.36-1.675-.246-2.393.252-.716.488-.798 1.18-.192 1.545.598.35 1.669.246 2.38-.256.715-.498.804-1.184.205-1.541Zm3.676 8.348c1.23 0 2.49-.341 3.439-1.351.73-.82 1.065-2.04 1.181-2.541.378-1.665.084-2.442-.285-2.915-.561-.721-1.553-.953-2.581-.953-.618 0-2.091.061-3.241 1.127-.827.769-1.208 1.812-1.439 2.812-.232 1.019-.499 2.853 1.18 3.536.518.223 1.264.285 1.746.285Zm-.096-3.745c.283-1.26.618-2.318 1.472-2.318.67 0 .719.787.421 2.051-.053.281-.298 1.325-.628 1.769-.231.328-.504.527-.806.527-.09 0-.624 0-.633-.797-.004-.394.076-.796.174-1.232Zm7.79 3.583.097-.099c.136-.725.158-.896.46-2.365.151-.697.464-2.227.61-2.773.278-.13.547-.256.817-.256.617 0 .542.545.518.762-.023.365-.25 1.556-.486 2.578l-.147.66c-.112.488-.235.961-.343 1.445l.047.097a29.693 29.693 0 0 1 2.713-.05l.131-.098c.19-1.134.241-1.437.596-3.086l.169-.759c.339-1.484.51-2.235.259-2.848-.277-.687-.928-.853-1.513-.853-.388 0-1.1.094-1.733.408a11.41 11.41 0 0 0-.675.393l.194-.754-.104-.127c-1.348.275-1.656.311-2.901.488l-.096.07c-.15 1.205-.273 2.11-.809 4.48a294.63 294.63 0 0 1-.629 2.625l.057.11a30.828 30.828 0 0 1 2.768-.048Zm9.278.049c.08-.39.551-2.697.555-2.697 0 0 .402-1.693.427-1.755 0 0 .126-.176.252-.246h.186c1.754 0 3.735 0 5.288-1.147 1.056-.787 1.779-1.95 2.101-3.362a5.13 5.13 0 0 0 .145-1.17c0-.54-.108-1.076-.42-1.494-.792-1.113-2.369-1.133-4.189-1.142l-.897.009c-2.33.029-3.264.02-3.648-.027-.032.17-.093.474-.093.474s-.835 3.886-.835 3.891l-2.091 8.651c2.034-.024 2.868-.024 3.219.015Zm1.547-6.903.883-3.863.028-.2.013-.15.355.036 1.872.162c.722.28 1.02 1.005.812 1.949-.189.863-.746 1.589-1.463 1.939-.589.297-1.311.322-2.056.322h-.481l.037-.195Zm5.524 3.343c-.235 1.004-.504 2.838 1.167 3.492.532.228 1.01.295 1.495.27.512-.027.987-.285 1.427-.657l-.12.459.076.098c1.202-.05 1.575-.05 2.877-.04l.118-.091c.19-1.123.369-2.213.863-4.361.241-1.03.481-2.048.728-3.073l-.039-.112c-1.344.25-1.703.303-2.996.487l-.099.08-.039.306a1.846 1.846 0 0 0-.942-.779c-.575-.227-1.925.066-3.086 1.127-.816.759-1.208 1.798-1.43 2.794Zm2.823.061c.288-1.238.618-2.285 1.475-2.285.541 0 .827.502.768 1.358a40.87 40.87 0 0 1-.154.694c-.086.368-.178.732-.269 1.097-.092.25-.199.486-.316.643-.221.313-.745.508-1.047.508-.086 0-.614 0-.632-.783-.005-.39.075-.79.175-1.232Zm14.743-4.087-.104-.119c-1.33.27-1.571.314-2.793.48l-.09.09c-.004.015-.008.037-.014.057l-.004-.02c-.91 2.109-.883 1.654-1.624 3.314-.004-.076-.004-.123-.008-.203l-.185-3.599-.117-.119c-1.393.27-1.426.314-2.713.48l-.1.09c-.014.043-.014.09-.023.141l.009.02c.161.825.122.64.283 1.944.076.64.176 1.283.251 1.914.127 1.057.198 1.578.353 3.191-.869 1.44-1.075 1.986-1.911 3.25l.006.013-.59.936c-.067.099-.128.166-.214.195-.094.047-.216.055-.386.055h-.326l-.485 1.622 1.664.028c.977-.004 1.591-.463 1.922-1.08l1.047-1.802h-.017l.11-.126c.704-1.523 6.059-10.752 6.059-10.752ZM298.719 40.45h-.706l2.613-8.684h.867l.276-.894.026.995c-.033.615.449 1.16 1.714 1.07h1.463l.503-1.672h-.55c-.317 0-.464-.08-.445-.253L304.453 30h-2.709v.005c-.875.019-3.491.085-4.021.227-.64.165-1.315.653-1.315.653l.265-.895h-2.534l-.528 1.777-2.648 8.816h-.514l-.504 1.66h5.047l-.169.554h2.486l.166-.554h.697l.547-1.793Zm-2.071-6.919c-.406.113-1.161.455-1.161.455l.672-2.22h2.013l-.485 1.617s-.623.038-1.039.148m.039 3.17s-.632.08-1.048.175c-.41.125-1.179.518-1.179.518l.694-2.31h2.023l-.49 1.617Zm-1.128 3.77h-2.019l.585-1.95h2.013l-.579 1.95Zm4.863-5.386h2.911l-.418 1.36h-2.949l-.443 1.488h2.581l-1.955 2.765a.801.801 0 0 1-.395.332c-.137.07-.317.152-.525.152h-.716l-.492 1.63h1.873c.974 0 1.549-.446 1.973-1.03l1.34-1.842.288 1.87a.88.88 0 0 0 .481.636c.188.095.382.257.655.28.294.013.506.023.647.023h.92l.552-1.823h-.362c-.209 0-.568-.035-.629-.101-.061-.08-.061-.203-.094-.39l-.292-1.875h-1.195l.524-.627h2.944l.453-1.487h-2.726l.425-1.361h2.717l.504-1.679h-8.101l-.496 1.678Zm-24.585 5.765.679-2.271h2.793l.51-1.689h-2.795l.426-1.398h2.732l.506-1.635h-6.834l-.496 1.636h1.553l-.414 1.397h-1.557l-.516 1.718h1.552l-.906 3.004c-.122.398.058.55.172.734.116.18.234.3.5.367.273.061.461.098.715.098h3.149l.561-1.871-1.396.193c-.269 0-1.016-.033-.934-.283Zm.32-10.87-.708 1.284c-.151.28-.287.455-.41.535-.108.068-.323.096-.633.096h-.369l-.493 1.644h1.226c.59 0 1.042-.217 1.259-.326.232-.124.293-.053.473-.227l.414-.36h3.829l.508-1.712h-2.803l.49-.935h-2.783Zm5.653 10.903c-.065-.095-.018-.261.081-.607l1.047-3.48h3.723c.543-.008.934-.015 1.189-.033.274-.029.571-.127.896-.303.334-.185.506-.38.65-.603.162-.223.421-.711.643-1.463l1.316-4.404-3.863.022s-1.19.176-1.714.371c-.529.218-1.284.824-1.284.824l.349-1.207h-2.387l-3.341 11.133c-.118.431-.198.745-.216.934-.006.203.255.404.424.556.2.151.496.126.779.151.299.023.722.037 1.308.037h1.834l.563-1.91-1.642.156a.432.432 0 0 1-.355-.174Zm1.803-6.438h3.91l-.248.783c-.035.018-.118-.039-.517.008h-3.386l.241-.79Zm.784-2.625h3.943l-.284.943s-1.858-.019-2.156.036c-1.31.228-2.075.931-2.075.931l.572-1.91Zm2.966 6.03a.425.425 0 0 1-.155.241c-.08.052-.209.07-.4.07h-.557l.033-.953h-2.318l-.094 4.66c-.004.336.029.531.274.687.245.194.999.22 2.015.22h1.452l.525-1.745-1.265.07-.42.024c-.057-.025-.112-.047-.174-.108-.053-.053-.143-.02-.128-.357l.01-1.195 1.326-.055c.716 0 1.022-.234 1.283-.457.249-.213.331-.459.425-.791l.222-1.058h-1.822l-.232.746Z" fill="#1F3042"/></g><g clip-path="url(#d)"><path d="M414.6 54h-70.2a5.398 5.398 0 0 1-5.4-5.4V5.4a5.4 5.4 0 0 1 5.4-5.4h70.2a5.398 5.398 0 0 1 5.4 5.4v43.2a5.4 5.4 0 0 1-5.4 5.4Zm-13.066-15.998V40.5c.358.05.77.079 1.188.079h.036c3.137 0 4.624-1.22 5.906-4.831l5.657-15.862h-3.272l-3.793 12.253h-.068l-3.793-12.254h-3.366l5.456 15.105-.292.918a2.565 2.565 0 0 1-2.721 2.16h.01a17.395 17.395 0 0 1-.945-.066h-.003Zm-49.68-19.88h-.058a5.481 5.481 0 0 0-4.631 2.792l-.013.027c-1.899 3.267-.691 8.266 1.41 11.31.986 1.44 2.066 2.849 3.49 2.849h.077a4.252 4.252 0 0 0 1.645-.443l-.025.011c.6-.301 1.307-.48 2.054-.486a4.48 4.48 0 0 1 2.007.486l-.025-.011a3.784 3.784 0 0 0 1.659.418h.065c1.586-.029 2.581-1.485 3.46-2.767a11.937 11.937 0 0 0 1.512-3.074l.025-.085v-.023l-.041-.018a5.02 5.02 0 0 1-2.965-4.547v-.002a5.067 5.067 0 0 1 2.374-4.246l.02-.011.04-.027a5.17 5.17 0 0 0-4.117-2.237h-.245a7.514 7.514 0 0 0-2.788.691l.047-.02c-.413.2-.856.33-1.311.384l-.021.003a4.174 4.174 0 0 1-1.408-.407l.024.01a6.108 6.108 0 0 0-2.243-.582h-.018v.005Zm40.755 4.085c1.98 0 3.073.927 3.073 2.608v1.145l-4.018.239c-3.769.227-5.76 1.755-5.76 4.417a4.549 4.549 0 0 0 5.105 4.468l-.023.002.146.003a5.324 5.324 0 0 0 4.593-2.626l.013-.025h.068v2.48h2.981V24.599c0-2.992-2.387-4.923-6.082-4.923-3.406 0-5.94 1.953-6.041 4.642h2.903a2.83 2.83 0 0 1 3.057-2.113l-.013-.002-.002.005ZM370.5 14.184V34.92h3.22v-7.092h4.448a6.589 6.589 0 0 0 6.935-6.854v.014a6.526 6.526 0 0 0-6.84-6.804h.015-7.778ZM359.819 12.6a5.029 5.029 0 0 0-3.323 1.71l-.004.007a4.742 4.742 0 0 0-1.195 3.487v-.013c.076 0 .157.009.247.009a4.272 4.272 0 0 0 3.101-1.591l.007-.009a5.018 5.018 0 0 0 1.169-3.618v.016l-.002.002Zm32.031 20.027c-1.705 0-2.81-.821-2.81-2.09 0-1.31 1.057-2.063 3.06-2.182l3.578-.226v1.173a3.488 3.488 0 0 1-3.844 3.323l.016.002Zm-14.44-7.492h-3.699v-8.238h3.712a3.876 3.876 0 0 1 4.39 4.123v-.014a3.894 3.894 0 0 1-1.228 3.12 3.88 3.88 0 0 1-3.198 1.004l.023.005Z" fill="#fff"/></g><path d="M443.889 38.906a8.322 8.322 0 0 0 5.827-2.093 5.375 5.375 0 0 0 1.608-3.907 5.103 5.103 0 0 0-1.492-3.651 7.706 7.706 0 0 0-4.102-2l-2.878-.558c-1.165-.233-1.864-.826-1.864-1.64 0-1.08 1.048-1.825 2.726-1.825a3.56 3.56 0 0 1 2.541.93c.387.422.632.955.699 1.523l4.148-.93a5.042 5.042 0 0 0-1.538-3.093 8.272 8.272 0 0 0-5.826-2.185 8.053 8.053 0 0 0-5.489 1.93 5.426 5.426 0 0 0-1.748 4.023 4.646 4.646 0 0 0 1.34 3.418 8.075 8.075 0 0 0 3.904 1.988l2.832.675c1.421.325 2.051.848 2.051 1.779 0 1.162-1.038 1.825-2.751 1.825a3.875 3.875 0 0 1-2.878-1.081 2.571 2.571 0 0 1-.746-1.71l-4.253.93c.13 1.25.7 2.411 1.608 3.28a8.599 8.599 0 0 0 6.269 2.325l.012.047Zm31.452-.047a8.85 8.85 0 0 0 6.339-2.43 8.136 8.136 0 0 0 2.249-3.756l-4.37-1.453a4.221 4.221 0 0 1-1.165 1.942 4.294 4.294 0 0 1-3.042 1.162 4.668 4.668 0 0 1-3.321-1.337 5.436 5.436 0 0 1-1.34-3.802 5.38 5.38 0 0 1 1.375-3.837 4.668 4.668 0 0 1 3.286-1.302 4.007 4.007 0 0 1 2.949 1.163 4.728 4.728 0 0 1 1.165 1.976l4.44-1.488a8.467 8.467 0 0 0-2.086-3.686 9.094 9.094 0 0 0-6.538-2.488 9.478 9.478 0 0 0-6.747 2.71 10.16 10.16 0 0 0 .07 13.952 9.638 9.638 0 0 0 6.747 2.72l-.011-.046Zm-15.056.047a6.313 6.313 0 0 0 3.915-1.163v-3.977a4.27 4.27 0 0 1-2.493.745 2.093 2.093 0 0 1-1.864-.586 2.085 2.085 0 0 1-.56-1.868V15h-4.906v5.035h9.847v4.755h-9.847v8.453a5.677 5.677 0 0 0 1.457 4.058 6.125 6.125 0 0 0 4.474 1.605m28.414-6.256V20.039h2.122v.998a3.411 3.411 0 0 1 2.785-1.25c2.442 0 4.199 1.96 4.199 4.77 0 2.809-1.7 4.827-4.199 4.827a3.41 3.41 0 0 1-2.785-1.273v4.587l-2.122-.046Zm2.122-9.172v2.293c.2.48.536.89.966 1.18.43.29.936.446 1.454.448 1.415 0 2.35-1.066 2.35-2.786s-.935-2.763-2.35-2.763a2.561 2.561 0 0 0-2.42 1.616m8.425 2.642a2.508 2.508 0 0 1 .724-1.87 2.891 2.891 0 0 1 1.926-.855l3.807-.449v-.449a.664.664 0 0 0-.203-.593.768.768 0 0 0-.287-.175.811.811 0 0 0-.341-.039h-4.819v-1.895h4.819c1.927 0 2.999.875 2.999 2.445v6.403h-2.168v-1.122a3.642 3.642 0 0 1-1.391 1.04 3.918 3.918 0 0 1-1.753.306c-.418.041-.841 0-1.241-.122-.4-.12-.769-.319-1.081-.581a2.82 2.82 0 0 1-.733-.941 2.648 2.648 0 0 1-.258-1.137v.034Zm3.867 1.087a2.97 2.97 0 0 0 1.529-.385 2.693 2.693 0 0 0 1.061-1.095v-1.121l-2.903.381c-.807.101-1.205.493-1.205 1.121s.566 1.122 1.566 1.122m6.513 3.477h1.421c.22.025.44-.045.616-.196.177-.15.296-.37.334-.616l.262-.812-2.999-9.288h2.027l1.859 6.463 1.787-6.463H517l-3.291 10.665c-.449 1.472-1.045 2.249-2.487 2.249h-1.525v-2.002Zm45.646-1.468c.225 0 5.445.226 8.55-.54h.022c3.578-.877 8.55-3.397 9.833-11.632 0 0 2.857-10.305-11.318-10.305h-12.172a2.27 2.27 0 0 0-2.228 1.89l-5.175 32.76a1.133 1.133 0 0 0 1.103 1.305h7.717l1.89-11.97a1.794 1.794 0 0 1 1.778-1.508Z" fill="#fff"/><path d="M575.727 18.652c-1.822 8.393-7.56 12.825-16.695 12.825h-3.307l-2.318 14.67a.954.954 0 0 0 .945 1.103h4.275c.765 0 1.44-.563 1.553-1.328.18-.9 1.17-7.47 1.372-8.594A1.573 1.573 0 0 1 563.105 36h.99c6.345 0 11.317-2.587 12.78-10.035.585-3.015.27-5.49-1.148-7.313Z" fill="#fff"/><path d="M637.264 28.575H603V39.99h34.264V28.575Z" fill="#84B740"/><path d="M637.264 13H603v11.425h34.264V13Z" fill="#259BD6"/><path d="m671.528 37.67-.153.03c-.529.103-.722.143-1.109.143-.895 0-1.953-.458-1.953-2.614 0-1.11.183-2.584 1.851-2.584h.011c.285.02.61.05 1.22.234l.133.04v4.751Zm.274-10.753-.274.051v3.988l-.244-.071-.072-.02c-.274-.082-.905-.265-1.515-.265-3.337 0-4.039 2.523-4.039 4.639 0 2.9 1.627 4.568 4.466 4.568 1.2 0 2.085-.122 2.981-.417.824-.265 1.119-.641 1.119-1.445V26.5c-.794.142-1.618.285-2.422.417Zm9.645 10.825-.143.04-.508.133c-.479.122-.906.193-1.231.193-.784 0-1.252-.387-1.252-1.048 0-.427.194-1.15 1.475-1.15h1.659v1.832Zm-1.17-7.193c-1.028 0-2.086.183-3.398.59l-.855.254.285 1.933.834-.274c.875-.285 1.964-.468 2.778-.468.366 0 1.485 0 1.485 1.21v.53h-1.557c-2.838 0-4.15.905-4.15 2.848 0 1.658 1.21 2.655 3.245 2.655.631 0 1.506-.122 2.259-.305l.04-.01.041.01.254.04c.794.143 1.618.285 2.421.438v-6.348c0-2.055-1.241-3.103-3.682-3.103Zm-18.597 7.193-.143.04-.509.133c-.478.122-.895.193-1.23.193-.784 0-1.252-.387-1.252-1.048 0-.427.193-1.15 1.465-1.15h1.658l.011 1.832Zm-1.16-7.193c-1.038 0-2.086.183-3.398.59l-.855.254.285 1.933.834-.274c.875-.285 1.964-.468 2.778-.468.366 0 1.485 0 1.485 1.21v.53h-1.556c-2.839 0-4.161.905-4.161 2.848 0 1.658 1.21 2.655 3.255 2.655.631 0 1.506-.122 2.259-.305l.04-.01.041.01.244.04c.804.143 1.618.285 2.421.448v-6.348c.011-2.075-1.231-3.113-3.672-3.113Zm-9.553.021a6.87 6.87 0 0 0-2.757.61l-.101.05-.092-.07c-.549-.397-1.353-.6-2.472-.6-.987 0-1.913.142-2.92.437-.864.264-1.2.681-1.2 1.465v7.253h2.706v-6.704l.132-.04c.55-.184.875-.214 1.19-.214.784 0 1.181.417 1.181 1.23v5.738h2.665v-5.85c0-.345-.071-.549-.081-.59l-.092-.172.183-.082a3.21 3.21 0 0 1 1.323-.274c.539 0 1.18.213 1.18 1.23v5.738h2.655v-6.002c0-2.126-1.139-3.154-3.5-3.154Zm28.485-10.123a9.21 9.21 0 0 1-1.577-.142l-.152-.031v-3.917a1.94 1.94 0 0 0-.071-.56l-.082-.162.173-.071c.041-.02.082-.03.132-.051l.031-.02.183-.062c.031-.01.051-.02.071-.02.601-.163 1.15-.142 1.394-.163h.01c1.659 0 1.852 1.476 1.852 2.584-.01 2.157-1.079 2.615-1.964 2.615Zm-.01-7.447h-.071c-1.557 0-3.154.427-3.723 1.261-.306.408-.479.916-.489 1.516v4.04c0 .345-.071.477-.081.508l-.092.173h-4.913V17.69h-.011c-.061-2.96-1.81-4.588-4.344-4.588h-2.472c-.101.722-.183 1.23-.285 1.953h2.462c1.292 0 1.974 1.099 1.974 2.788v2.828l-.173-.092a1.862 1.862 0 0 0-.58-.081h-4.252c-.082.539-.183 1.24-.295 1.943h13.072c.448-.092.967-.173 1.414-.244.662.325 1.893.498 2.737.498 2.838 0 4.68-1.902 4.68-4.832-.01-2.9-1.791-4.802-4.558-4.863Zm-22.92 10.631h.122c2.838 0 4.161-.936 4.161-3.245 0-1.658-1.211-2.98-3.245-2.98h-2.615c-.783 0-1.251-.448-1.251-1.201 0-.509.193-1.14 1.475-1.14h5.717c.122-.742.183-1.21.295-1.953h-5.941c-2.767 0-4.161 1.16-4.161 3.093 0 1.912 1.211 2.91 3.246 2.91h2.614c.783 0 1.251.62 1.251 1.27 0 .428-.193 1.313-1.465 1.313h-.437l-8.373-.02h-1.526c-1.292 0-2.197-.733-2.197-2.431v-1.17c0-1.77.702-2.87 2.197-2.87h2.483c.112-.752.183-1.23.285-1.942h-3.388c-2.533 0-4.283 1.698-4.344 4.659v1.322c.061 2.96 1.811 4.375 4.344 4.375h2.472l4.537.01h3.744Z" fill="#fff"/><defs><clipPath id="a"><path fill="#fff" d="M0 0h54v54H0z"/></clipPath><clipPath id="b"><path fill="#fff" transform="translate(140)" d="M0 0h81v54H0z"/></clipPath><clipPath id="c"><path fill="#fff" transform="translate(237)" d="M0 0h86v54H0z"/></clipPath><clipPath id="d"><path fill="#fff" transform="translate(339)" d="M0 0h81v54H0z"/></clipPath></defs></svg>